<svg xmlns="http://www.w3.org/2000/svg" xmlns:xlink="http://www.w3.org/1999/xlink" width="14" height="14" viewBox="0 0 14 14" fill="none"><path d="M13.9974 6.80747C13.9001 3.18019 10.8198 0.0999292 7.19254 0.00258546C3.2386 -0.103522 0 3.07004 0 7C0 8.86178 0.737339 10.5432 1.91375 11.8063C2.01505 11.915 1.98372 12.131 1.87305 12.2302C1.41095 12.6445 0.636057 13.2411 0.102539 13.6726C-0.0159141 13.7684 0.0390606 14 0.191407 14L7.00001 14C10.93 14 14.1035 10.7614 13.9974 6.80748L13.9974 6.80747ZM5.13265 5.75231C5.13265 5.49665 5.34183 5.28747 5.59749 5.28747L8.40251 5.28747C8.65818 5.28747 8.86736 5.49665 8.86736 5.75231C8.86736 6.00798 8.65818 6.21716 8.40251 6.21716L5.59749 6.21716C5.34183 6.21716 5.13265 6.00798 5.13265 5.75231ZM10.1971 8.17933C10.1971 8.435 9.98789 8.64418 9.73223 8.64418L4.26779 8.64418C4.01213 8.64418 3.80295 8.435 3.80295 8.17933C3.80295 7.92367 4.01213 7.71449 4.26779 7.71449L9.73224 7.71449C9.98789 7.71449 10.1971 7.92367 10.1971 8.17933Z"   fill="#5493E5" ></path></svg>