<svg xmlns="http://www.w3.org/2000/svg" xmlns:xlink="http://www.w3.org/1999/xlink" width="14" height="14.000244140625" viewBox="0 0 14 14.000244140625" fill="none"><path d="M11.9 5.95766L10.6 5.95766C10.8 6.5534 11 7.14915 11 7.74489C11 10.3265 8.9 12.4116 6.3 12.4116C3.7 12.4116 1.6 10.3265 1.6 7.74489C1.6 5.16333 3.7 3.07823 6.2 3.07823C6.9 3.07823 7.5 3.27681 8 3.47539L8 2.2839L8.3 1.98603C7.7 1.68816 7 1.58887 6.2 1.58887C2.8 1.58887 0 4.36901 0 7.74489C0 11.2201 2.8 14.0002 6.2 14.0002C9.6 14.0002 12.4 11.2201 12.4 7.84418C12.4 7.14915 12.3 6.45411 12 5.75908L11.9 5.95766Z"   fill="#5493E5" ></path><path d="M7.6 8.04256C7.4 8.24114 7.1 8.34043 6.7 8.34043C6.3 8.34043 6.2 8.34043 5.9 8.04256C5.7 7.84398 5.6 7.6454 5.6 7.24823C5.6 6.85107 5.8 6.65249 5.9 6.45391L7.5 4.86525C7.2 4.66667 6.7 4.56738 6.2 4.56738C4.4 4.56738 3 6.05674 3 7.74469C3 9.53192 4.4 11.0213 6.2 11.0213C8 11.0213 9.4 9.63121 9.4 7.84398C9.4 7.34752 9.3 6.95036 9.1 6.5532L7.6 8.04256Z"   fill="#5493E5" ></path><path d="M8.80039 2.68085L8.80039 4.76596L6.50039 7.04964C6.40039 7.14893 6.40039 7.24822 6.40039 7.24822C6.40039 7.34751 6.40039 7.44681 6.50039 7.44681C6.70039 7.64539 6.90039 7.64539 7.00039 7.44681L9.30039 5.16312L11.5004 5.16312L14.0004 2.68085L11.4004 2.68085L11.4004 0C11.5004 0 8.80039 2.68085 8.80039 2.68085Z"   fill="#5493E5" ></path></svg>