<svg xmlns="http://www.w3.org/2000/svg" xmlns:xlink="http://www.w3.org/1999/xlink" width="12" height="12" viewBox="0 0 12 12" fill="none"><g opacity="0.3"><path d="M11.4164 5.91669L5.55914 2.53365C5.68498 2.31925 5.80949 2.10419 5.91535 1.87848C5.92201 1.87183 5.92201 1.86517 5.92866 1.8585L5.93466 1.84519C5.9352 1.84319 5.93592 1.84124 5.9368 1.83936C5.93768 1.83748 5.93872 1.83569 5.93991 1.83398C5.9411 1.83228 5.94243 1.8307 5.9439 1.82922C5.94536 1.82776 5.94694 1.82642 5.94864 1.82521C5.949 1.8227 5.94955 1.82024 5.9503 1.81783C5.95105 1.81542 5.95198 1.81308 5.95312 1.81081C5.95426 1.80855 5.95556 1.80639 5.95705 1.80433C5.95853 1.80229 5.96016 1.80037 5.96196 1.79859C5.96862 1.78527 5.97528 1.77861 5.98193 1.76529L6.00125 1.74532C6.0079 1.73866 6.01456 1.72534 6.02122 1.71868L6.04785 1.69138L6.06783 1.67141L6.08781 1.65144L6.13441 1.61814C6.13952 1.61582 6.14432 1.61298 6.14881 1.6096C6.1533 1.60623 6.15738 1.60242 6.16104 1.59817L6.22097 1.56487C6.22277 1.5651 6.22458 1.56512 6.22639 1.56493C6.22821 1.56475 6.22998 1.56437 6.2317 1.5638C6.23343 1.56322 6.23507 1.56246 6.23662 1.56152C6.23818 1.56059 6.23962 1.55948 6.24094 1.55822C6.24694 1.55822 6.25426 1.55156 6.26092 1.55156L6.27356 1.54491C6.28088 1.54491 6.29421 1.53825 6.30086 1.53825L6.34081 1.52493C6.3544 1.52434 6.36772 1.52212 6.38077 1.51827L6.41406 1.51827C6.4248 1.51541 6.43568 1.5132 6.44668 1.51162L6.47997 1.51162C6.4823 1.51112 6.48465 1.5109 6.48703 1.51094C6.4894 1.51098 6.49175 1.5113 6.49406 1.51186C6.49636 1.51245 6.49857 1.51328 6.50069 1.51436C6.50281 1.51544 6.50479 1.51675 6.50661 1.51827L6.53323 1.51827C6.54447 1.5198 6.55556 1.52201 6.56652 1.52493C6.56885 1.52481 6.57117 1.52486 6.57348 1.52508C6.5758 1.5253 6.57809 1.52569 6.58035 1.52625C6.58261 1.52681 6.58481 1.52755 6.58696 1.52844C6.5891 1.52933 6.59116 1.53039 6.59315 1.53158L6.59981 1.53158L6.60648 1.52493L6.66639 1.55156C6.67306 1.55822 6.68637 1.55822 6.69303 1.56487C6.6943 1.56499 6.69555 1.56521 6.69678 1.56555C6.69801 1.56591 6.69919 1.56636 6.70033 1.56693C6.70148 1.5675 6.70255 1.56817 6.70356 1.56894C6.70457 1.56973 6.7055 1.57059 6.70635 1.57154L6.71301 1.57154C6.71479 1.57335 6.71671 1.57498 6.71876 1.57645C6.72081 1.57794 6.72297 1.57925 6.72523 1.58038C6.72749 1.58151 6.72983 1.58245 6.73225 1.5832C6.73467 1.58395 6.73713 1.5845 6.73964 1.58485L6.81288 1.6248L6.80622 1.6248L8.41884 2.51167L9.43222 0.291168C9.43444 0.286283 9.43675 0.281435 9.43913 0.276625C9.44151 0.271816 9.44396 0.267045 9.4465 0.262315C9.44904 0.257585 9.45166 0.252899 9.45434 0.248254C9.45702 0.24361 9.45979 0.239011 9.46264 0.234458C9.46548 0.229904 9.46839 0.225397 9.47138 0.220939C9.47437 0.216481 9.47742 0.212072 9.48055 0.207713C9.48368 0.203355 9.48689 0.199048 9.49016 0.194793C9.49343 0.19054 9.49677 0.186341 9.50018 0.182195C9.50359 0.178051 9.50707 0.173962 9.51061 0.169931C9.51416 0.1659 9.51777 0.161928 9.52144 0.158014C9.52511 0.154101 9.52884 0.150249 9.53264 0.146457C9.53645 0.142666 9.5403 0.138937 9.54423 0.135272C9.54815 0.131608 9.55213 0.128008 9.55617 0.124472C9.5602 0.120938 9.56429 0.117469 9.56845 0.114068C9.5726 0.110667 9.57681 0.107334 9.58107 0.10407C9.58532 0.100806 9.58964 0.0976129 9.59401 0.09449C9.59837 0.091367 9.60278 0.0883163 9.60725 0.0853377C9.61171 0.082359 9.61622 0.0794541 9.62078 0.0766229C9.62534 0.0737916 9.62995 0.0710357 9.6346 0.0683549C9.63925 0.0656741 9.64394 0.06307 9.64867 0.0605427C9.65341 0.0580153 9.65819 0.0555659 9.663 0.0531945C9.66782 0.050823 9.67267 0.048531 9.67756 0.0463182C9.68244 0.0441053 9.68738 0.0419729 9.69233 0.0399211C9.69729 0.0378692 9.70227 0.0358988 9.7073 0.03401C9.71232 0.0321211 9.71739 0.0303149 9.72246 0.0285913C9.72754 0.0268676 9.73265 0.0252274 9.73779 0.0236707C9.74293 0.022114 9.74809 0.0206417 9.75327 0.0192535C9.75846 0.0178654 9.76366 0.0165625 9.76889 0.0153445C9.77411 0.0141266 9.77936 0.0129943 9.78462 0.0119479C9.78988 0.0109013 9.79517 0.00994096 9.80047 0.00906695C9.80576 0.00819294 9.81107 0.00740566 9.81639 0.00670511C9.82171 0.00600455 9.82704 0.0053911 9.83237 0.00486477C9.99484 -0.0137782 10.1586 0.0215103 10.2991 0.104738C10.4476 0.184636 10.5694 0.304484 10.652 0.45163C10.6547 0.456699 10.6574 0.461805 10.6599 0.466947C10.6625 0.472088 10.665 0.477265 10.6674 0.482475C10.6698 0.487685 10.6722 0.492928 10.6745 0.498203C10.6767 0.503478 10.6789 0.508784 10.6811 0.514121C10.6832 0.519457 10.6853 0.52482 10.6873 0.530213C10.6892 0.535607 10.6912 0.541026 10.693 0.54647C10.6948 0.551917 10.6966 0.557387 10.6983 0.56288C10.7 0.568375 10.7016 0.573891 10.7031 0.579428C10.7046 0.584967 10.7061 0.590526 10.7075 0.596104C10.7089 0.601683 10.7102 0.60728 10.7114 0.612894C10.7126 0.618509 10.7138 0.624138 10.7148 0.629784C10.7159 0.635431 10.7169 0.641091 10.7178 0.646763C10.7187 0.652437 10.7196 0.658123 10.7203 0.663819C10.7211 0.669516 10.7218 0.675222 10.7224 0.680936C10.723 0.686652 10.7235 0.692374 10.724 0.698104C10.7244 0.703834 10.7248 0.709569 10.7251 0.715309C10.7253 0.721048 10.7256 0.726791 10.7257 0.732536C10.7258 0.738283 10.7259 0.744028 10.7258 0.749775C10.7258 0.755522 10.7257 0.761268 10.7255 0.767012C10.7253 0.772756 10.725 0.778495 10.7247 0.784232C10.7244 0.78997 10.7239 0.7957 10.7234 0.801424C10.7229 0.807149 10.7223 0.812865 10.7217 0.818574C10.721 0.824283 10.7203 0.829982 10.7194 0.83567C10.7186 0.841359 10.7177 0.847035 10.7168 0.852698C10.7158 0.858363 10.7147 0.864012 10.7136 0.869646C10.7125 0.875281 10.7113 0.880899 10.71 0.8865C10.7087 0.892101 10.7073 0.897683 10.7059 0.903247C10.7044 0.908812 10.7029 0.914355 10.7013 0.919876C10.6997 0.925399 10.6981 0.930898 10.6963 0.936374C10.6946 0.941851 10.6928 0.947302 10.6909 0.952727C10.689 0.958154 10.687 0.963552 10.685 0.968924C10.6829 0.974297 10.6808 0.97964 10.6786 0.984953L9.66592 3.20546L11.1653 4.03175C11.2679 4.09367 11.3531 4.1809 11.4117 4.28542C11.4809 4.39994 11.5182 4.53111 11.5189 4.66561C11.5142 5.08508 11.4736 5.50254 11.4164 5.91669ZM10.7279 8.44614C10.6952 8.52337 10.6617 8.60024 10.6273 8.67674C10.5929 8.75323 10.5577 8.82935 10.5216 8.90507C10.4856 8.98081 10.4487 9.05613 10.411 9.13105C10.3733 9.20598 10.3348 9.28048 10.2955 9.35456C10.2562 9.42864 10.2161 9.50229 10.1751 9.57549C10.1342 9.64871 10.0925 9.72145 10.05 9.79374C10.0074 9.86604 9.96414 9.93787 9.92005 10.0092C9.87596 10.0806 9.83111 10.1514 9.78547 10.2218C9.73984 10.2922 9.69345 10.362 9.64628 10.4314C9.59912 10.5007 9.5512 10.5696 9.50254 10.6379C9.45387 10.7062 9.40447 10.7739 9.35433 10.8412C9.30419 10.9084 9.25331 10.9751 9.20171 11.0412C9.15012 11.1073 9.0978 11.1729 9.04476 11.2378C8.99173 11.3028 8.93799 11.3672 8.88356 11.431C8.82912 11.4948 8.77398 11.558 8.71817 11.6206C8.66235 11.6832 8.60584 11.7451 8.54867 11.8065C8.54315 11.813 8.53749 11.8192 8.53169 11.8253C8.52589 11.8314 8.51996 11.8374 8.51389 11.8432C8.50782 11.8491 8.50162 11.8548 8.4953 11.8603C8.48897 11.8658 8.48252 11.8713 8.47595 11.8766C8.46938 11.8819 8.46268 11.8869 8.45588 11.892C8.44908 11.897 8.44217 11.9018 8.43515 11.9064C8.42813 11.9111 8.421 11.9155 8.41379 11.9199C8.40656 11.9242 8.39924 11.9284 8.39183 11.9324C8.38442 11.9365 8.37692 11.9404 8.36934 11.944C8.36176 11.9476 8.35409 11.9511 8.34635 11.9544C8.3386 11.9578 8.33079 11.961 8.3229 11.9639C8.31501 11.9668 8.30707 11.9697 8.29906 11.9724C8.29105 11.9749 8.28298 11.9774 8.27486 11.9796C8.26674 11.9818 8.25857 11.984 8.25035 11.9858C8.24214 11.9877 8.23389 11.9893 8.22561 11.9909C8.21732 11.9924 8.209 11.9938 8.20065 11.9949C8.19229 11.996 8.18393 11.997 8.17552 11.9977C8.16713 11.9985 8.15873 11.9991 8.15032 11.9994C8.14189 11.9998 8.13347 12 8.12504 12C8.11662 12 8.10819 11.9998 8.09978 11.9994C8.09135 11.9991 8.08295 11.9985 8.07456 11.9977C8.06616 11.997 8.05779 11.996 8.04945 11.9949C8.0411 11.9938 8.03278 11.9924 8.02448 11.9909C8.0162 11.9893 8.00795 11.9877 7.99973 11.9858C7.99152 11.984 7.98335 11.9818 7.97523 11.9796C7.96711 11.9774 7.95903 11.9749 7.95103 11.9724C7.94302 11.9697 7.93507 11.9668 7.92719 11.9639C7.9193 11.961 7.9115 11.9578 7.90375 11.9544C7.896 11.9511 7.88834 11.9476 7.88076 11.944C7.87318 11.9404 7.86568 11.9365 7.85826 11.9324C7.85084 11.9284 7.84353 11.9243 7.83631 11.92C7.82908 11.9156 7.82196 11.9111 7.81494 11.9064C7.79829 11.9029 7.78185 11.8985 7.76562 11.8934C7.74939 11.8883 7.73344 11.8824 7.7178 11.8757C7.70215 11.869 7.68686 11.8615 7.67195 11.8533C7.65703 11.8451 7.64256 11.8362 7.62851 11.8266L6.11909 10.8105L7.48402 9.24312C7.49094 9.23515 7.49765 9.22699 7.50418 9.21867C7.51069 9.21035 7.517 9.20188 7.5231 9.19325C7.52921 9.18463 7.53509 9.17586 7.54076 9.16695C7.54643 9.15803 7.55188 9.14898 7.55711 9.1398C7.56234 9.13062 7.56734 9.12132 7.57211 9.11188C7.57689 9.10246 7.58144 9.09294 7.58574 9.08328C7.59004 9.07364 7.59411 9.06389 7.59795 9.05403C7.60178 9.04419 7.60536 9.03426 7.6087 9.02423C7.61204 9.01421 7.61515 9.00411 7.618 8.99393C7.62084 8.98376 7.62344 8.97353 7.6258 8.96322C7.62814 8.95293 7.63024 8.94257 7.63208 8.93217C7.63392 8.92176 7.63551 8.91132 7.63685 8.90083C7.63817 8.89036 7.63925 8.87986 7.64007 8.86931C7.64088 8.85879 7.64144 8.84824 7.64175 8.83767C7.64205 8.82711 7.6421 8.81654 7.64188 8.80597C7.64167 8.79542 7.6412 8.78487 7.64046 8.77432C7.63972 8.76379 7.63874 8.75328 7.63749 8.74278C7.63624 8.73229 7.63474 8.72184 7.63298 8.71141C7.63123 8.70099 7.62921 8.69062 7.62695 8.6803C7.62469 8.66999 7.62218 8.65972 7.6194 8.64953C7.61664 8.63933 7.61363 8.62921 7.61037 8.61916C7.6071 8.6091 7.60359 8.59914 7.59984 8.58926C7.59609 8.57938 7.59211 8.5696 7.58788 8.55992C7.58365 8.55024 7.57919 8.54067 7.57449 8.5312C7.56979 8.52173 7.56487 8.51239 7.55971 8.50317C7.55457 8.49395 7.54919 8.48486 7.54359 8.47589C7.53799 8.46694 7.53217 8.45812 7.52614 8.44943C7.52012 8.44076 7.51388 8.43224 7.50742 8.42386C7.50098 8.4155 7.49434 8.4073 7.48748 8.39924C7.48064 8.39121 7.4736 8.38333 7.46635 8.37562C7.45912 8.36792 7.45171 8.3604 7.4441 8.35306C7.4365 8.34573 7.42873 8.33858 7.42077 8.33162C7.41279 8.32471 7.40466 8.31799 7.39635 8.31147C7.38804 8.30495 7.37958 8.29865 7.37097 8.29253C7.36236 8.28644 7.35359 8.28054 7.3447 8.27486C7.33579 8.26919 7.32676 8.26374 7.31758 8.2585C7.30841 8.25327 7.29911 8.24826 7.28971 8.24348C7.2803 8.2387 7.27077 8.23415 7.26113 8.22984C7.25148 8.22553 7.24174 8.22146 7.23191 8.21763C7.22208 8.21378 7.21216 8.2102 7.20214 8.20685C7.19212 8.2035 7.18203 8.20039 7.17187 8.19753C7.16171 8.19468 7.15148 8.19208 7.14118 8.18972C7.13089 8.18736 7.12054 8.18526 7.11015 8.18341C7.09976 8.18156 7.08933 8.17997 7.07885 8.17863C7.06838 8.17729 7.05788 8.1762 7.04735 8.17538C7.03683 8.17456 7.0263 8.17399 7.01574 8.17369C7.00518 8.17338 6.99462 8.17332 6.98407 8.17353C6.97351 8.17374 6.96297 8.1742 6.95244 8.17493C6.9419 8.17565 6.93139 8.17664 6.92091 8.17787C6.91042 8.17911 6.89998 8.18061 6.88956 8.18235C6.87914 8.1841 6.86878 8.18611 6.85847 8.18836C6.84815 8.19062 6.8379 8.19313 6.82771 8.19588C6.81752 8.19864 6.80739 8.20164 6.79735 8.2049C6.78731 8.20816 6.77736 8.21166 6.76748 8.21539C6.75761 8.21914 6.74783 8.22312 6.73815 8.22734C6.72847 8.23156 6.7189 8.23601 6.70944 8.2407C6.69999 8.24539 6.69065 8.25031 6.68143 8.25545C6.6722 8.2606 6.66312 8.26596 6.65416 8.27155C6.64519 8.27714 6.63638 8.28294 6.62771 8.28897C6.61904 8.29499 6.61052 8.30122 6.60215 8.30766C6.59379 8.3141 6.58559 8.32073 6.57754 8.32758C6.56948 8.33442 6.56162 8.34145 6.55392 8.34867C6.54622 8.3559 6.5387 8.36331 6.53137 8.3709C6.52403 8.37849 6.51688 8.38626 6.50993 8.39421L5.03913 10.0834L3.64424 9.14459L5.17829 7.93146C5.18655 7.9249 5.19465 7.91813 5.20258 7.91116C5.21052 7.9042 5.21826 7.89704 5.22585 7.88969C5.23343 7.88234 5.24083 7.87482 5.24804 7.86711C5.25526 7.8594 5.26228 7.85152 5.26911 7.84346C5.27594 7.83542 5.28256 7.82721 5.28899 7.81883C5.29543 7.81046 5.30164 7.80193 5.30765 7.79325C5.31366 7.78458 5.31945 7.77576 5.32504 7.76679C5.33062 7.75784 5.33597 7.74875 5.3411 7.73951C5.34624 7.73029 5.35115 7.72095 5.35582 7.71148C5.3605 7.70201 5.36495 7.69244 5.36916 7.68276C5.37336 7.67308 5.37734 7.66331 5.38106 7.65343C5.3848 7.64355 5.38828 7.63359 5.39153 7.62355C5.39477 7.61351 5.39777 7.60338 5.40052 7.59319C5.40328 7.58299 5.40577 7.57274 5.40802 7.56243C5.41027 7.55212 5.41227 7.54176 5.41401 7.53134C5.41576 7.52094 5.41725 7.51048 5.41848 7.5C5.41971 7.48952 5.42068 7.47901 5.42139 7.46846C5.42211 7.45794 5.42258 7.44739 5.42278 7.43684C5.42298 7.42629 5.42293 7.41573 5.42261 7.40518C5.4223 7.39463 5.42173 7.38409 5.4209 7.37356C5.42007 7.36304 5.41899 7.35255 5.41764 7.34207C5.4163 7.3316 5.4147 7.32117 5.41285 7.31078C5.411 7.30038 5.40889 7.29003 5.40654 7.27975C5.40418 7.26946 5.40157 7.25924 5.39872 7.24907C5.39586 7.23891 5.39276 7.22882 5.3894 7.21881C5.38605 7.20881 5.38246 7.19888 5.37862 7.18904C5.37479 7.17921 5.37071 7.16947 5.3664 7.15984C5.36209 7.1502 5.35754 7.14068 5.35277 7.13126C5.348 7.12185 5.343 7.11255 5.33776 7.10338C5.33253 7.09422 5.32708 7.08518 5.3214 7.07628C5.31573 7.06737 5.30985 7.05862 5.30375 7.04999C5.29764 7.04138 5.29134 7.03292 5.28482 7.02461C5.27825 7.01634 5.27149 7.00823 5.26451 7.00028C5.25754 6.99234 5.25038 6.98457 5.24304 6.97698C5.23569 6.9694 5.22815 6.96199 5.22044 6.95476C5.21273 6.94754 5.20485 6.94051 5.1968 6.93367C5.18875 6.92682 5.18052 6.92019 5.17214 6.91375C5.16376 6.90731 5.15523 6.90109 5.14655 6.89507C5.13787 6.88905 5.12903 6.88325 5.12007 6.87766C5.1111 6.87208 5.102 6.86671 5.09276 6.86157C5.08354 6.85643 5.07419 6.85151 5.06471 6.84683C5.05524 6.84214 5.04567 6.8377 5.03598 6.83348C5.02629 6.82926 5.01649 6.82529 5.00661 6.82155C4.99674 6.81781 4.98676 6.81432 4.97671 6.81106C4.96666 6.80783 4.95653 6.80483 4.94632 6.80206C4.93612 6.79932 4.92587 6.79681 4.91554 6.79455C4.90522 6.7923 4.89484 6.79031 4.88442 6.78856C4.874 6.78683 4.86354 6.78534 4.85305 6.7841C4.84255 6.78288 4.83203 6.78191 4.82149 6.78118C4.81095 6.78047 4.80039 6.78001 4.78983 6.7798C4.77926 6.7796 4.7687 6.77966 4.75815 6.77997C4.74758 6.78029 4.73703 6.78087 4.7265 6.7817C4.71596 6.78253 4.70546 6.78362 4.69497 6.78497C4.6845 6.78631 4.67406 6.78792 4.66365 6.78977C4.65325 6.79162 4.6429 6.79373 4.6326 6.7961C4.6223 6.79847 4.61207 6.80108 4.6019 6.80394C4.59173 6.80681 4.58163 6.80993 4.57161 6.81328C4.56159 6.81664 4.55166 6.82024 4.54182 6.82408C4.53198 6.82793 4.52224 6.83201 4.5126 6.83633C4.50295 6.84065 4.49341 6.84521 4.484 6.84999C4.47458 6.85478 4.46528 6.8598 4.4561 6.86504C4.44693 6.87029 4.43789 6.87575 4.42899 6.88142C4.42008 6.88711 4.41132 6.89301 4.40269 6.89912C4.39408 6.90524 4.38562 6.91156 4.37731 6.91808L2.51966 8.38755L1.15007 7.46605C1.13772 7.45642 1.12568 7.44641 1.11395 7.43603C1.10221 7.42565 1.09081 7.41492 1.07974 7.40384C1.06867 7.39275 1.05795 7.38134 1.04758 7.36959C1.03722 7.35785 1.02722 7.3458 1.0176 7.33344C1.00797 7.32108 0.998741 7.30843 0.989898 7.2955C0.981055 7.28257 0.972619 7.26938 0.964589 7.25592C0.95656 7.24247 0.948953 7.22878 0.941769 7.21486C0.934583 7.20094 0.927834 7.18682 0.921521 7.17248C0.915208 7.15815 0.909344 7.14363 0.903927 7.12892C0.898509 7.11423 0.89355 7.09937 0.889048 7.08437C0.884548 7.06937 0.880514 7.05423 0.876946 7.03898C0.873379 7.02373 0.870285 7.00838 0.867664 6.99293C0.865044 6.97748 0.862903 6.96198 0.861239 6.94641C0.859576 6.93083 0.858395 6.91521 0.857695 6.89956C0.856995 6.88391 0.856778 6.86826 0.857043 6.85259C0.85731 6.83694 0.858058 6.82129 0.859288 6.80567C0.86052 6.79005 0.862231 6.77449 0.864422 6.75898C0.866613 6.74346 0.869281 6.72804 0.872424 6.71269C0.875568 6.69734 0.879181 6.68211 0.883263 6.66698C0.887347 6.65186 0.891892 6.63688 0.896901 6.62203C0.901908 6.60719 0.907369 6.59251 0.913282 6.578C0.919195 6.5635 0.92555 6.54919 0.932346 6.53507C0.939143 6.52096 0.946367 6.50706 0.95402 6.4934C0.961673 6.47974 0.969741 6.46631 0.978223 6.45314C0.986704 6.43997 0.995583 6.42708 1.00486 6.41445C1.01414 6.40182 1.02379 6.3895 1.03383 6.37748C1.04387 6.36545 1.05427 6.35375 1.06503 6.34236C1.07579 6.33097 1.08689 6.31993 1.09833 6.30922C1.10977 6.29853 1.12153 6.2882 1.13361 6.27821C1.14569 6.26824 1.15806 6.25864 1.17073 6.24942C1.18341 6.24021 1.19635 6.2314 1.20956 6.22299C1.22278 6.21457 1.23624 6.20658 1.24995 6.199C1.31435 6.17245 1.37846 6.14519 1.44227 6.11722C1.50608 6.08926 1.56957 6.06061 1.63275 6.03124C1.69592 6.00188 1.75876 5.97183 1.82128 5.94109C1.88379 5.91034 1.94597 5.87891 2.00779 5.8468C2.06961 5.8147 2.13107 5.7819 2.19217 5.74843C2.25327 5.71497 2.31399 5.68083 2.37435 5.64603C2.4347 5.61123 2.49466 5.57577 2.55422 5.53964C2.6138 5.50353 2.67296 5.46674 2.73171 5.42932C2.79048 5.39189 2.84881 5.35383 2.90673 5.31511C2.96465 5.27641 3.02214 5.23707 3.0792 5.19709C3.13625 5.15712 3.19286 5.11652 3.24903 5.07529C3.30519 5.03407 3.36089 4.99224 3.41612 4.94979C3.47137 4.90735 3.52613 4.8643 3.58042 4.82064C3.63471 4.77699 3.68852 4.73274 3.74185 4.6879C3.79516 4.64306 3.84798 4.59765 3.9003 4.55164C3.95262 4.50565 4.00442 4.45908 4.05571 4.41193C4.35667 4.12962 4.63698 3.82667 4.89532 3.50574C4.89952 3.50328 4.90332 3.50029 4.90671 3.49678C4.91009 3.49329 4.91296 3.4894 4.9153 3.48511C4.93526 3.46048 4.95125 3.43251 4.97056 3.40721L11.202 7.00597C11.1414 7.25169 11.0716 7.49474 10.9925 7.73512C10.9133 7.9755 10.8252 8.21251 10.7279 8.44614Z"   fill="#000000" ></path></g></svg>