<svg xmlns="http://www.w3.org/2000/svg" xmlns:xlink="http://www.w3.org/1999/xlink" width="17.142822265625" height="20" viewBox="0 0 17.142822265625 20" fill="none"><g opacity="0.9"><path d="M5.71429 4.7619L11.4286 4.7619C11.4286 3.18395 10.1494 1.90476 8.57143 1.90476C6.99343 1.90476 5.71429 3.18395 5.71429 4.7619ZM3.80952 4.7619C3.80952 2.13198 5.9415 0 8.57143 0C11.2013 0 13.3333 2.13198 13.3333 4.7619L16.1905 4.7619C16.7165 4.7619 17.1429 5.1883 17.1429 5.71429L17.1429 19.0476C17.1429 19.5736 16.7165 20 16.1905 20L0.952381 20C0.4264 20 0 19.5736 0 19.0476L0 5.71429C0 5.1883 0.4264 4.7619 0.952381 4.7619L3.80952 4.7619ZM1.90476 6.66667L1.90476 18.0952L15.2381 18.0952L15.2381 6.66667L1.90476 6.66667ZM5.71429 8.57143C5.71429 10.1494 6.99343 11.4286 8.57143 11.4286C10.1494 11.4286 11.4286 10.1494 11.4286 8.57143L13.3333 8.57143C13.3333 11.2013 11.2013 13.3333 8.57143 13.3333C5.9415 13.3333 3.80952 11.2013 3.80952 8.57143L5.71429 8.57143Z"   fill="#000000" ></path></g></svg>