<svg xmlns="http://www.w3.org/2000/svg" xmlns:xlink="http://www.w3.org/1999/xlink" width="14" height="14" viewBox="0 0 14 14" fill="none"><path d="M7 1.4C5.07601 1.4 3.37756 2.37038 2.3691 3.85L4.2 3.85L4.2 5.25L0 5.25L0 1.05L1.4 1.05L1.4 2.79955C2.67667 1.10016 4.70935 0 7 0C10.866 0 14 3.13401 14 7L12.6 7C12.6 3.9072 10.0928 1.4 7 1.4ZM1.4 7C1.4 10.0928 3.9072 12.6 7 12.6C8.92402 12.6 10.6224 11.6296 11.6309 10.15L9.8 10.15L9.8 8.75L14 8.75L14 12.95L12.6 12.95L12.6 11.2004C11.3233 12.8998 9.29068 14 7 14C3.13401 14 0 10.866 0 7L1.4 7Z"   fill="#FFFFFF" ></path></svg>