<svg xmlns="http://www.w3.org/2000/svg" xmlns:xlink="http://www.w3.org/1999/xlink" width="14" height="14" viewBox="0 0 14 14" fill="none"><path d="M6.69462 0C8.38395 1.218 10.2128 2.06525 12.3895 2.03L12.3895 2.45362C12.4035 4.57773 12.4092 6.1898 12.4069 7.29009C12.4032 8.94028 11.9366 10.1673 10.9789 11.3325C10.1778 12.3207 9.2198 13.1151 8.0705 13.6624C7.16491 14.1037 6.25932 14.1213 5.3711 13.6624C3.40333 12.6562 1.90559 11.1912 1.19159 9.01987C1.06974 8.64913 1.01737 8.24339 1.01737 7.85502C1 6.00132 1 4.13051 1 2.25944L1 2.03C3.14199 2.06525 4.98818 1.23563 6.69462 0ZM6.09003 8.02457C5.57386 7.59124 5.0613 7.15371 4.55236 6.71195C4.31307 7.0018 4.09088 7.27454 3.85185 7.56413C4.65477 8.24598 5.42373 8.91072 6.2098 9.59257C7.40656 8.19066 8.60822 6.793 9.81479 5.39958C9.52442 5.14395 9.25091 4.90517 8.97739 4.66666C8.00361 5.79184 7.06406 6.89939 6.09003 8.02457Z"   fill="#5493E5" ></path></svg>