<svg xmlns="http://www.w3.org/2000/svg" xmlns:xlink="http://www.w3.org/1999/xlink" width="14" height="14" viewBox="0 0 14 14" fill="none"><path d="M13.6602 6.46667C13.961 6.13333 14.0947 5.66667 13.9276 5.23333C13.7939 4.8 13.4263 4.5 13.0252 4.46667L9.78345 3.96666C9.64977 3.93334 9.54952 3.86667 9.48267 3.73333L8.01217 0.666668C7.81165 0.266667 7.4106 0 6.97614 0C6.54168 0 6.14063 0.233333 5.94011 0.666668L4.50303 3.73333C4.43619 3.86667 4.33592 3.96666 4.20224 3.96666L0.960452 4.46667C0.525983 4.53334 0.191778 4.83334 0.0580966 5.23333C-0.075585 5.66667 0.0246755 6.13333 0.32546 6.46667L2.69832 8.86667C2.79857 8.96667 2.832 9.1 2.79857 9.26667L2.23043 12.6333C2.16359 13.1 2.3307 13.5333 2.73173 13.8C3.09936 14.0333 3.53383 14.0667 3.93487 13.8667L6.84246 12.2667C6.94271 12.2 7.07639 12.2 7.17666 12.2667L10.0842 13.8667C10.2513 13.9667 10.4519 14 10.619 14C10.8529 14 11.0869 13.9333 11.2874 13.8C11.655 13.5333 11.8555 13.1 11.7553 12.6333L11.1871 9.23333C11.1537 9.1 11.2205 8.93333 11.3208 8.83333L13.6602 6.46667Z"   fill="#5493E5" ></path></svg>