<svg xmlns="http://www.w3.org/2000/svg" xmlns:xlink="http://www.w3.org/1999/xlink" width="14" height="14" viewBox="0 0 14 14" fill="none"><path d="M14 11.5295C14 12.0697 13.6104 12.5054 12.9664 12.4943C12.6432 12.4931 12.6682 12.5007 12.3731 12.4943C11.8563 12.4832 11.8902 12.17 11.7221 11.5295C11.3086 9.95402 9.55925 7.89143 9.16022 7.65288C8.10852 7.02404 9.4437 7.44226 9.4437 5.41993C9.4437 4.90085 9.32532 4.24871 9.11357 3.81003C8.94791 3.46648 8.81141 3.14914 9.4437 3.16958C10.7013 3.20923 11.7215 4.1775 11.7215 5.41993C11.7215 6.19925 11.3208 6.8858 10.7118 7.29006C10.8308 7.31746 10.9515 7.34607 11.0857 7.38165C12.7581 7.86814 14 9.8601 14 11.5295ZM10.6664 12.6332C10.6617 13.1494 10.4389 13.6633 9.56334 13.6627C7.59061 13.6609 2.0585 13.6697 1.1036 13.6627C0.0338331 13.6551 5.9887e-08 13.1278 5.9887e-08 12.6332C5.9887e-08 10.2497 1.62568 8.11427 3.80839 7.50003C2.84774 6.98613 2.3665 6.03125 2.3665 4.92589C2.3665 3.31242 3.69642 2 5.33144 2C6.96646 2 8.29639 3.31242 8.29639 4.92589C8.29639 6.03183 7.76906 6.98613 6.8084 7.50003C8.99286 8.11429 10.6897 10.2713 10.6664 12.6332Z"   fill="#5493E5" ></path></svg>