<svg xmlns="http://www.w3.org/2000/svg" xmlns:xlink="http://www.w3.org/1999/xlink" width="12" height="12" viewBox="0 0 12 12" fill="none"><g opacity="0.1"><path d="M6 0C9.31399 0 12 2.68601 12 6C12 9.31399 9.31399 12 6 12C2.68599 12 0 9.31399 0 6C0 2.68601 2.68601 0 6 0ZM6.16666 4L5.5 4C5.49182 4.00002 5.48364 4.00022 5.47548 4.00062C5.46732 4.00104 5.45917 4.00164 5.45103 4.00245C5.44288 4.00327 5.43477 4.00427 5.42668 4.00548C5.41859 4.00668 5.41054 4.00808 5.40252 4.00969C5.3945 4.01129 5.38652 4.0131 5.3786 4.01509C5.37066 4.01708 5.36279 4.01927 5.35497 4.02165C5.34715 4.02402 5.33938 4.02659 5.33168 4.02935C5.32399 4.03212 5.31635 4.03507 5.3088 4.0382C5.30126 4.04134 5.29378 4.04465 5.28639 4.04816C5.279 4.05167 5.27169 4.05535 5.26449 4.0592C5.25728 4.06305 5.25017 4.06709 5.24316 4.0713C5.23616 4.07551 5.22925 4.0799 5.22245 4.08444C5.21565 4.08898 5.20897 4.09369 5.2024 4.09857C5.19584 4.10344 5.18939 4.10847 5.18308 4.11367C5.17676 4.11887 5.17057 4.12421 5.16452 4.1297C5.15846 4.13518 5.15254 4.14083 5.14675 4.14661C5.14098 4.1524 5.13534 4.15833 5.12985 4.16439C5.12437 4.17045 5.11904 4.17665 5.11384 4.18297C5.10866 4.18928 5.10363 4.19574 5.09877 4.20232C5.0939 4.20889 5.08919 4.21556 5.08465 4.22237C5.08011 4.22917 5.07574 4.23607 5.07153 4.24309C5.06733 4.25011 5.06331 4.25723 5.05946 4.26443C5.0556 4.27165 5.05192 4.27896 5.04843 4.28635C5.04495 4.29374 5.04164 4.30122 5.0385 4.30878C5.03537 4.31633 5.03243 4.32396 5.02968 4.33165C5.02693 4.33936 5.02436 4.34712 5.02199 4.35494C5.01962 4.36278 5.01745 4.37065 5.01546 4.37859C5.01347 4.38652 5.01167 4.3945 5.01009 4.40251C5.0085 4.41054 5.00709 4.41859 5.00589 4.42668C5.0047 4.43478 5.0037 4.44288 5.00289 4.45102C5.00209 4.45915 5.00149 4.4673 5.00109 4.47548C5.00069 4.48365 5.00049 4.49182 5.00049 4.5C5.00049 4.50818 5.00069 4.51635 5.00109 4.52452C5.00149 4.53269 5.00209 4.54084 5.00289 4.54897C5.0037 4.55712 5.0047 4.56523 5.00589 4.57332C5.00709 4.58141 5.0085 4.58946 5.01009 4.59748C5.01167 4.60551 5.01347 4.61348 5.01546 4.62142C5.01745 4.62935 5.01962 4.63723 5.02199 4.64505C5.02436 4.65289 5.02693 4.66065 5.02968 4.66834C5.03243 4.67605 5.03537 4.68368 5.0385 4.69123C5.04164 4.69878 5.04495 4.70625 5.04843 4.71366C5.05192 4.72105 5.0556 4.72835 5.05946 4.73556C5.06331 4.74278 5.06733 4.7499 5.07153 4.75691C5.07574 4.76392 5.08011 4.77083 5.08465 4.77764C5.08919 4.78444 5.0939 4.79112 5.09877 4.79769C5.10363 4.80427 5.10866 4.81071 5.11384 4.81703C5.11904 4.82336 5.12437 4.82954 5.12985 4.8356C5.13534 4.84166 5.14098 4.84759 5.14675 4.85338C5.15254 4.85916 5.15846 4.86481 5.16452 4.87031C5.17057 4.87579 5.17676 4.88114 5.18308 4.88633C5.18939 4.89152 5.19584 4.89655 5.2024 4.90143C5.20897 4.90632 5.21565 4.91103 5.22245 4.91557C5.22925 4.92011 5.23616 4.92449 5.24316 4.9287C5.25017 4.93291 5.25728 4.93695 5.26449 4.9408C5.27169 4.94466 5.279 4.94834 5.28639 4.95185C5.29378 4.95534 5.30126 4.95867 5.3088 4.9618C5.31635 4.96494 5.32399 4.96788 5.33168 4.97064C5.33938 4.9734 5.34715 4.97597 5.35497 4.97836C5.36279 4.98074 5.37066 4.98293 5.3786 4.98492C5.38652 4.98691 5.3945 4.9887 5.40252 4.9903C5.41054 4.99191 5.41859 4.99331 5.42668 4.99453C5.43477 4.99573 5.44288 4.99674 5.45103 4.99755C5.45917 4.99835 5.46732 4.99896 5.47548 4.99937C5.48364 4.99979 5.49182 4.99999 5.5 5L5.66666 5L5.66666 8.66667L5.16666 8.66667C5.15899 8.66667 5.15131 8.66684 5.14363 8.6672C5.13595 8.66756 5.12829 8.66809 5.12064 8.66879C5.113 8.66949 5.10538 8.67038 5.09777 8.67144C5.09016 8.6725 5.08257 8.67373 5.07503 8.67513C5.06748 8.67655 5.05996 8.67813 5.05248 8.67989C5.045 8.68164 5.03757 8.68356 5.03018 8.68566C5.02279 8.68777 5.01546 8.69003 5.00817 8.69246C5.00088 8.6949 4.99366 8.69751 4.9865 8.70027C4.97932 8.70303 4.97223 8.70597 4.9652 8.70906C4.95816 8.71216 4.95122 8.71541 4.94433 8.71883C4.93745 8.72226 4.93065 8.72582 4.92393 8.72955C4.91722 8.73328 4.9106 8.73717 4.90405 8.74119C4.89752 8.74523 4.89108 8.74941 4.88473 8.75374C4.87839 8.75808 4.87216 8.76255 4.86601 8.76717C4.85988 8.7718 4.85385 8.77655 4.84794 8.78144C4.84202 8.78634 4.83621 8.79136 4.83052 8.79653C4.82483 8.80171 4.81928 8.80699 4.81383 8.81242C4.80839 8.81785 4.80308 8.82339 4.79789 8.82905C4.79271 8.83471 4.78765 8.84049 4.78272 8.84639C4.77781 8.85229 4.77303 8.85831 4.76839 8.86443C4.76373 8.87054 4.75923 8.87677 4.75488 8.88309C4.75052 8.88942 4.74631 8.89585 4.74226 8.90237C4.73819 8.90888 4.73428 8.91549 4.73053 8.92219C4.72678 8.92889 4.72318 8.93568 4.71973 8.94254C4.71629 8.9494 4.71301 8.95635 4.70988 8.96337C4.70675 8.97039 4.70379 8.97748 4.701 8.98462C4.6982 8.99179 4.69558 8.999 4.6931 9.00628C4.69064 9.01356 4.68835 9.02089 4.68623 9.02826C4.6841 9.03564 4.68215 9.04308 4.68036 9.05054C4.67857 9.05801 4.67696 9.06552 4.67553 9.07307C4.67408 9.08062 4.67282 9.08819 4.67173 9.0958C4.67065 9.1034 4.66973 9.11102 4.669 9.11867L4.66666 9.16667C4.66666 9.17485 4.66686 9.18302 4.66727 9.1912C4.66767 9.19938 4.66827 9.20753 4.66907 9.21568C4.66987 9.22382 4.67088 9.23194 4.67208 9.24003C4.67328 9.24812 4.67469 9.25619 4.67628 9.26421C4.67787 9.27224 4.67966 9.28022 4.68165 9.28815C4.68364 9.29609 4.68581 9.30397 4.68819 9.3118C4.69057 9.31964 4.69313 9.3274 4.6959 9.3351C4.69865 9.34281 4.70158 9.35044 4.70472 9.35801C4.70786 9.36557 4.71117 9.37305 4.71467 9.38044C4.71817 9.38784 4.72185 9.39515 4.7257 9.40237C4.72956 9.40958 4.7336 9.4167 4.73781 9.42372C4.742 9.43074 4.74639 9.43764 4.75093 9.44445C4.75547 9.45125 4.76018 9.45794 4.76506 9.46451C4.76993 9.47109 4.77496 9.47753 4.78016 9.48386C4.78536 9.49018 4.7907 9.49638 4.79619 9.50244C4.80169 9.5085 4.80733 9.51443 4.81312 9.52021C4.8189 9.526 4.82483 9.53164 4.83089 9.53714C4.83695 9.54263 4.84315 9.54797 4.84947 9.55317C4.85578 9.55837 4.86224 9.5634 4.86882 9.56827C4.87539 9.57315 4.88208 9.57786 4.88888 9.5824C4.89569 9.58694 4.90259 9.59133 4.90961 9.59552C4.91663 9.59974 4.92375 9.60377 4.93097 9.60763C4.93818 9.61148 4.94549 9.61516 4.95289 9.61866C4.96028 9.62216 4.96776 9.62547 4.97532 9.62861C4.98289 9.63175 4.99052 9.63468 4.99823 9.63743C5.00592 9.6402 5.01369 9.64276 5.02153 9.64514C5.02936 9.6475 5.03724 9.64969 5.04518 9.65168C5.05311 9.65368 5.06109 9.65547 5.06912 9.65706C5.07715 9.65865 5.08521 9.66005 5.0933 9.66125C5.10139 9.66246 5.10951 9.66346 5.11765 9.66426C5.1258 9.66506 5.13395 9.66566 5.14213 9.66607C5.15031 9.66647 5.15848 9.66667 5.16666 9.66667L7.16667 9.66667C7.17485 9.66667 7.18303 9.66647 7.19119 9.66607C7.19937 9.66566 7.20752 9.66506 7.21567 9.66426C7.22382 9.66346 7.23194 9.66246 7.24003 9.66125C7.24813 9.66005 7.25618 9.65865 7.26421 9.65706C7.27223 9.65547 7.28021 9.65368 7.28816 9.65168C7.29609 9.64969 7.30397 9.64752 7.31181 9.64514C7.31964 9.64276 7.3274 9.6402 7.33511 9.63743C7.34282 9.63468 7.35045 9.63175 7.35801 9.62861C7.36556 9.62547 7.37304 9.62216 7.38044 9.61866C7.38785 9.61516 7.39515 9.61148 7.40237 9.60763C7.40957 9.60377 7.41669 9.59974 7.42371 9.59552C7.43073 9.59133 7.43765 9.58694 7.44445 9.5824C7.45125 9.57786 7.45794 9.57315 7.46452 9.56827C7.47109 9.5634 7.47754 9.55837 7.48387 9.55317C7.49018 9.54797 7.49639 9.54263 7.50244 9.53714C7.5085 9.53164 7.51443 9.526 7.52022 9.52021C7.52601 9.51443 7.53165 9.5085 7.53713 9.50244C7.54263 9.49638 7.54798 9.49018 7.55318 9.48386C7.55836 9.47755 7.56339 9.47109 7.56827 9.46451C7.57314 9.45794 7.57786 9.45125 7.5824 9.44445C7.58694 9.43764 7.59132 9.43074 7.59553 9.42372C7.59974 9.4167 7.60378 9.40958 7.60763 9.40237C7.61149 9.39515 7.61517 9.38784 7.61866 9.38044C7.62216 9.37305 7.62546 9.36557 7.6286 9.35801C7.63174 9.35044 7.63467 9.34281 7.63744 9.3351C7.6402 9.3274 7.64277 9.31964 7.64513 9.3118C7.64751 9.30397 7.64968 9.29609 7.65168 9.28815C7.65367 9.28022 7.65547 9.27224 7.65706 9.26421C7.65865 9.25619 7.66005 9.24812 7.66126 9.24003C7.66245 9.23194 7.66345 9.22382 7.66425 9.21568C7.66505 9.20753 7.66565 9.19938 7.66607 9.1912C7.66647 9.18302 7.66667 9.17485 7.66667 9.16667C7.66667 9.15849 7.66647 9.15031 7.66607 9.14213C7.66565 9.13395 7.66505 9.1258 7.66425 9.11765C7.66345 9.1095 7.66245 9.1014 7.66126 9.09331C7.66005 9.08521 7.65865 9.07715 7.65706 9.06911C7.65547 9.06109 7.65367 9.05312 7.65168 9.04518C7.64968 9.03723 7.64751 9.02935 7.64513 9.02152C7.64277 9.01368 7.6402 9.00592 7.63744 8.99822C7.63467 8.99051 7.63174 8.98288 7.6286 8.97533C7.62546 8.96776 7.62216 8.96029 7.61866 8.95288C7.61517 8.94549 7.61149 8.93819 7.60763 8.93097C7.60378 8.92375 7.59974 8.91663 7.59553 8.90961C7.59132 8.9026 7.58694 8.89568 7.5824 8.88888C7.57786 8.88207 7.57314 8.8754 7.56827 8.86882C7.56339 8.86225 7.55836 8.85579 7.55318 8.84947C7.54798 8.84314 7.54263 8.83694 7.53713 8.83088C7.53165 8.82482 7.52601 8.81889 7.52022 8.81311C7.51443 8.80732 7.5085 8.80168 7.50244 8.79619C7.49639 8.79069 7.49018 8.78535 7.48387 8.78016C7.47754 8.77496 7.47109 8.76994 7.46452 8.76507C7.45794 8.76018 7.45125 8.75547 7.44445 8.75093C7.43765 8.74639 7.43073 8.74201 7.42371 8.7378C7.41669 8.7336 7.40957 8.72956 7.40237 8.72571C7.39515 8.72186 7.38785 8.71817 7.38044 8.71466C7.37304 8.71117 7.36556 8.70786 7.35801 8.70473C7.35045 8.70159 7.34282 8.69865 7.33511 8.69589C7.3274 8.69314 7.31964 8.69057 7.31181 8.6882C7.30397 8.68582 7.29609 8.68364 7.28816 8.68165C7.28021 8.67966 7.27223 8.67787 7.26421 8.67628C7.25618 8.67467 7.24813 8.67327 7.24003 8.67208C7.23194 8.67088 7.22382 8.66988 7.21567 8.66908C7.20752 8.66827 7.19937 8.66767 7.19119 8.66727C7.18303 8.66687 7.17485 8.66667 7.16667 8.66667L6.66666 8.66667L6.66666 4.5C6.66666 4.49231 6.66649 4.48463 6.66613 4.47697C6.66577 4.46929 6.66524 4.46163 6.66454 4.45398C6.66384 4.44633 6.66295 4.4387 6.66189 4.4311C6.66083 4.42349 6.6596 4.4159 6.65819 4.40835C6.65678 4.4008 6.6552 4.3933 6.65344 4.38581C6.65169 4.37833 6.64977 4.3709 6.64767 4.36351C6.64556 4.35611 6.6433 4.34878 6.64086 4.34149C6.63843 4.33422 6.63582 4.327 6.63306 4.31982C6.63029 4.31266 6.62736 4.30556 6.62426 4.29852C6.62117 4.29149 6.61792 4.28454 6.6145 4.27767C6.61109 4.27078 6.60752 4.26399 6.60378 4.25727C6.60004 4.25056 6.59616 4.24392 6.59214 4.23739C6.5881 4.23085 6.58392 4.22442 6.57959 4.21807C6.57525 4.21173 6.57078 4.2055 6.56616 4.19935C6.56153 4.19321 6.55677 4.18718 6.55189 4.18126C6.54699 4.17535 6.54196 4.16954 6.53679 4.16386C6.53162 4.15817 6.52634 4.15262 6.52091 4.14717C6.5155 4.14173 6.50995 4.13642 6.50428 4.13122C6.49862 4.12603 6.49284 4.12098 6.48694 4.11606C6.48103 4.11115 6.47502 4.10637 6.4689 4.10171C6.46279 4.09707 6.45657 4.09257 6.45024 4.08822C6.44391 4.08385 6.43749 4.07964 6.43098 4.07559C6.42446 4.07153 6.41784 4.06762 6.41114 4.06387C6.40444 4.0601 6.39765 4.05651 6.39079 4.05307C6.38392 4.04962 6.37698 4.04634 6.36996 4.04322C6.36294 4.04009 6.35585 4.03713 6.3487 4.03434C6.34154 4.03154 6.33432 4.02891 6.32706 4.02644C6.31979 4.02398 6.31245 4.02169 6.30508 4.01956C6.2977 4.01744 6.29027 4.01549 6.28279 4.0137C6.27533 4.01191 6.26781 4.0103 6.26026 4.00886C6.25271 4.00742 6.24515 4.00616 6.23755 4.00507C6.22994 4.00399 6.22231 4.00307 6.21467 4.00234L6.16666 4ZM6 2.33333C5.98909 2.33333 5.97819 2.3336 5.96729 2.33413C5.95639 2.33466 5.94551 2.33547 5.93466 2.33654C5.9238 2.33761 5.91297 2.33895 5.90217 2.34055C5.89139 2.34214 5.88063 2.344 5.86993 2.34614C5.85923 2.34827 5.84859 2.35066 5.83801 2.35331C5.82742 2.35596 5.81692 2.35887 5.80648 2.36204C5.79604 2.3652 5.78567 2.36862 5.7754 2.3723C5.76513 2.37599 5.75495 2.37991 5.74488 2.38408C5.7348 2.38825 5.72483 2.39267 5.71496 2.39734C5.70509 2.402 5.69535 2.40691 5.68574 2.41205C5.67612 2.41719 5.66662 2.42258 5.65727 2.42818C5.64791 2.43378 5.63869 2.43962 5.62962 2.44568C5.62056 2.45174 5.61163 2.45803 5.60287 2.46453C5.5941 2.47102 5.58551 2.47774 5.57707 2.48465C5.56864 2.49157 5.56039 2.4987 5.55229 2.50602C5.5442 2.51336 5.53631 2.52088 5.52859 2.5286C5.52087 2.53632 5.51335 2.54421 5.50603 2.55229C5.49871 2.56038 5.49158 2.56863 5.48466 2.57707C5.47774 2.5855 5.47103 2.59411 5.46452 2.60286C5.45803 2.61163 5.45175 2.62055 5.44569 2.62962C5.43963 2.63868 5.43379 2.64791 5.42819 2.65726C5.42257 2.66661 5.4172 2.67611 5.41206 2.68573C5.40692 2.69536 5.402 2.7051 5.39733 2.71497C5.39268 2.72483 5.38825 2.7348 5.38409 2.74487C5.3799 2.75496 5.37598 2.76514 5.3723 2.77541C5.36862 2.78568 5.36521 2.79603 5.36204 2.80648C5.35888 2.81692 5.35596 2.82743 5.35331 2.83801C5.35066 2.8486 5.34828 2.85924 5.34614 2.86994C5.34401 2.88064 5.34215 2.8914 5.34054 2.90218C5.33895 2.91297 5.33762 2.92379 5.33655 2.93465C5.33547 2.94551 5.33467 2.95639 5.33414 2.96729C5.33361 2.97819 5.33334 2.98909 5.33334 2.99999C5.33334 3.01091 5.33361 3.02181 5.33414 3.03271C5.33467 3.04361 5.33547 3.05449 5.33655 3.06535C5.33762 3.0762 5.33895 3.08703 5.34054 3.09782C5.34215 3.1086 5.34401 3.11936 5.34614 3.13006C5.34828 3.14076 5.35066 3.1514 5.35331 3.16198C5.35596 3.17257 5.35888 3.18308 5.36204 3.19352C5.36521 3.20397 5.36862 3.21432 5.3723 3.22459C5.37598 3.23486 5.3799 3.24504 5.38409 3.25513C5.38825 3.2652 5.39268 3.27516 5.39733 3.28503C5.402 3.2949 5.40692 3.30464 5.41206 3.31427C5.4172 3.32389 5.42257 3.33339 5.42819 3.34274C5.43379 3.35209 5.43963 3.36132 5.44569 3.37038C5.45175 3.37945 5.45803 3.38837 5.46452 3.39714C5.47103 3.40589 5.47774 3.4145 5.48466 3.42293C5.49158 3.43137 5.49871 3.43962 5.50603 3.4477C5.51335 3.45579 5.52087 3.46368 5.52859 3.4714C5.53631 3.47912 5.5442 3.48664 5.55229 3.49396C5.56039 3.50129 5.56864 3.50843 5.57707 3.51535C5.58551 3.52226 5.5941 3.52897 5.60287 3.53547C5.61163 3.54197 5.62056 3.54826 5.62962 3.55432C5.63869 3.56038 5.64791 3.56621 5.65727 3.57182C5.66662 3.57742 5.67612 3.58281 5.68574 3.58795C5.69535 3.59309 5.70509 3.59799 5.71496 3.60266C5.72483 3.60733 5.7348 3.61175 5.74488 3.61592C5.75495 3.62009 5.76513 3.62401 5.7754 3.62769C5.78567 3.63138 5.79604 3.6348 5.80648 3.63796C5.81692 3.64113 5.82742 3.64404 5.83801 3.64669C5.84859 3.64934 5.85923 3.65173 5.86993 3.65386C5.88063 3.65598 5.89139 3.65784 5.90217 3.65945C5.91297 3.66105 5.9238 3.66238 5.93466 3.66346C5.94551 3.66453 5.95639 3.66533 5.96729 3.66586C5.97819 3.66639 5.98909 3.66667 6 3.66667C6.01091 3.66667 6.02181 3.66639 6.03271 3.66586C6.04361 3.66533 6.05448 3.66453 6.06534 3.66346C6.0762 3.66238 6.08703 3.66105 6.09783 3.65945C6.10861 3.65784 6.11937 3.65598 6.13007 3.65386C6.14076 3.65173 6.15141 3.64934 6.16199 3.64669C6.17258 3.64404 6.18307 3.64113 6.19352 3.63796C6.20396 3.6348 6.21433 3.63138 6.2246 3.62769C6.23487 3.62401 6.24504 3.62009 6.25512 3.61592C6.2652 3.61175 6.27517 3.60733 6.28504 3.60266C6.29491 3.59799 6.30465 3.59309 6.31426 3.58795C6.32388 3.58281 6.33338 3.57742 6.34273 3.57182C6.35209 3.56621 6.36131 3.56038 6.37038 3.55432C6.37944 3.54826 6.38837 3.54197 6.39713 3.53547C6.4059 3.52897 6.41449 3.52226 6.42293 3.51535C6.43136 3.50843 6.43961 3.50129 6.44771 3.49396C6.4558 3.48664 6.46369 3.47912 6.47141 3.4714C6.47913 3.46368 6.48665 3.45579 6.49397 3.4477C6.50129 3.43962 6.50842 3.43137 6.51534 3.42293C6.52226 3.4145 6.52897 3.40589 6.53548 3.39714C6.54196 3.38837 6.54825 3.37945 6.55431 3.37038C6.56037 3.36132 6.56621 3.35209 6.57181 3.34274C6.57743 3.33339 6.5828 3.32389 6.58794 3.31427C6.59308 3.30464 6.598 3.2949 6.60266 3.28503C6.60732 3.27516 6.61175 3.2652 6.61591 3.25513C6.6201 3.24504 6.62402 3.23486 6.6277 3.22459C6.63138 3.21432 6.63479 3.20397 6.63796 3.19352C6.64112 3.18308 6.64404 3.17257 6.64669 3.16198C6.64934 3.1514 6.65172 3.14076 6.65385 3.13006C6.65599 3.11936 6.65785 3.1086 6.65946 3.09782C6.66105 3.08703 6.66238 3.0762 6.66345 3.06535C6.66453 3.05449 6.66533 3.04361 6.66586 3.03271C6.6664 3.02181 6.66667 3.01091 6.66666 2.99999C6.66667 2.98909 6.6664 2.97819 6.66586 2.96729C6.66533 2.95639 6.66453 2.94551 6.66345 2.93465C6.66238 2.92379 6.66105 2.91297 6.65946 2.90218C6.65785 2.8914 6.65599 2.88064 6.65385 2.86994C6.65172 2.85924 6.64934 2.8486 6.64669 2.83801C6.64404 2.82743 6.64112 2.81692 6.63796 2.80648C6.63479 2.79603 6.63137 2.78568 6.6277 2.77541C6.62402 2.76514 6.6201 2.75496 6.61591 2.74487C6.61175 2.7348 6.60732 2.72483 6.60266 2.71497C6.598 2.7051 6.59308 2.69536 6.58794 2.68573C6.5828 2.67611 6.57743 2.66661 6.57181 2.65726C6.56621 2.64791 6.56037 2.63868 6.55431 2.62962C6.54825 2.62055 6.54196 2.61163 6.53548 2.60286C6.52897 2.59411 6.52226 2.5855 6.51534 2.57707C6.50842 2.56863 6.50129 2.56038 6.49397 2.55229C6.48665 2.54421 6.47913 2.53632 6.47141 2.5286C6.46369 2.52088 6.4558 2.51336 6.44771 2.50604C6.43961 2.4987 6.43136 2.49157 6.42293 2.48465C6.41449 2.47774 6.4059 2.47102 6.39713 2.46453C6.38837 2.45803 6.37944 2.45174 6.37038 2.44568C6.36131 2.43962 6.35209 2.43378 6.34273 2.42818C6.33338 2.42258 6.32388 2.41719 6.31426 2.41205C6.30465 2.40691 6.29491 2.402 6.28504 2.39734C6.27517 2.39267 6.2652 2.38825 6.25512 2.38408C6.24504 2.37991 6.23487 2.37599 6.2246 2.3723C6.21433 2.36862 6.20396 2.3652 6.19352 2.36204C6.18307 2.35887 6.17258 2.35596 6.16199 2.35331C6.15141 2.35066 6.14076 2.34827 6.13007 2.34614C6.11937 2.344 6.10861 2.34214 6.09783 2.34055C6.08703 2.33895 6.0762 2.33761 6.06534 2.33654C6.05448 2.33547 6.04361 2.33466 6.03271 2.33413C6.02181 2.3336 6.01091 2.33333 6 2.33333Z"   fill="#000000" ></path></g></svg>