<svg xmlns="http://www.w3.org/2000/svg" xmlns:xlink="http://www.w3.org/1999/xlink" width="14" height="14" viewBox="0 0 14 14" fill="none"><g opacity="0.3"><path d="M12.7847 3.15857L1.21527 3.15857C1.02774 3.15857 0.875 3.00583 0.875 2.8183C0.875 2.63077 1.02774 2.47803 1.21527 2.47803L12.7847 2.47803C12.9723 2.47803 13.125 2.63077 13.125 2.8183C13.125 3.00583 12.9723 3.15857 12.7847 3.15857Z"   fill="#000000" ></path><path d="M10.8557 13.1249L3.1427 13.1249C2.75554 13.1249 2.43945 12.8089 2.43945 12.4217L2.43945 3.18127C2.43945 2.7941 2.75554 2.47803 3.1427 2.47803L10.8557 2.47803C11.2428 2.47803 11.5589 2.7941 11.5589 3.18127L11.5589 12.4217C11.5589 12.8089 11.2428 13.1249 10.8557 13.1249ZM3.1427 3.15857C3.1306 3.15857 3.12001 3.16916 3.12001 3.18127L3.12001 12.4217C3.12001 12.4338 3.1306 12.4444 3.1427 12.4444L10.8557 12.4444C10.8678 12.4444 10.8783 12.4338 10.8783 12.4217L10.8783 3.18127C10.8783 3.16916 10.8678 3.15857 10.8557 3.15857L3.1427 3.15857Z"   fill="#000000" ></path><path d="M9.05705 3.15864L4.94348 3.15864C4.55631 3.15864 4.24023 2.84256 4.24023 2.45539L4.24023 1.57824C4.24023 1.19108 4.55631 0.875 4.94348 0.875L9.05705 0.875C9.44422 0.875 9.76029 1.19108 9.76029 1.57824L9.76029 2.45539C9.76029 2.84256 9.44422 3.15864 9.05705 3.15864ZM4.94348 1.55556C4.93137 1.55556 4.9208 1.56614 4.9208 1.57824L4.9208 2.45539C4.9208 2.4675 4.93137 2.47809 4.94348 2.47809L9.05705 2.47809C9.06916 2.47809 9.07973 2.4675 9.07973 2.45539L9.07973 1.57824C9.07973 1.56614 9.06916 1.55556 9.05705 1.55556L4.94348 1.55556ZM4.88298 10.8187C4.69545 10.8187 4.5427 10.6659 4.5427 10.4784L4.5427 5.33642C4.5427 5.14889 4.69545 4.99614 4.88298 4.99614C5.07051 4.99614 5.22326 5.14889 5.22326 5.33642L5.22326 10.4784C5.22326 10.6659 5.07051 10.8187 4.88298 10.8187ZM7.00026 10.8187C6.81273 10.8187 6.65999 10.6659 6.65999 10.4784L6.65999 5.33642C6.65999 5.14889 6.81273 4.99614 7.00026 4.99614C7.18779 4.99614 7.34054 5.14889 7.34054 5.33642L7.34054 10.4784C7.34054 10.6659 7.18779 10.8187 7.00026 10.8187ZM9.11755 10.8187C8.93002 10.8187 8.77726 10.6659 8.77726 10.4784L8.77726 5.33642C8.77726 5.14889 8.93002 4.99614 9.11755 4.99614C9.30508 4.99614 9.45782 5.14889 9.45782 5.33642L9.45782 10.4784C9.45782 10.6659 9.30508 10.8187 9.11755 10.8187Z"   fill="#000000" ></path></g></svg>