<svg xmlns="http://www.w3.org/2000/svg" width="12" height="12" fill="none"><path fill="#000" d="M6 0a6 6 0 0 0-4.817 2.423A6 6 0 0 0 .008 5.7a6 6 0 0 0 2.178 4.932 6 6 0 0 0 1.24.787 6 6 0 0 0 5.127.01 6 6 0 0 0 1.01-.601 6 6 0 0 0 1.065-1.01 6 6 0 0 0 1.304-2.92 5.97 5.97 0 0 0-.505-3.45A6.02 6.02 0 0 0 8.3.46 6 6 0 0 0 6 0m0 10.91a5 5 0 0 1-1.426-.213 5 5 0 0 1-1.303-.616 4.92 4.92 0 0 1-2.087-3.129 4.91 4.91 0 0 1 4.587-5.856 4.9 4.9 0 0 1 2.34.472 4.9 4.9 0 0 1 1.694 1.33 4.92 4.92 0 0 1 1.097 3.36 4.9 4.9 0 0 1-.967 2.674A4.91 4.91 0 0 1 6 10.91m2.57-5.343H6.546V3.43a.53.53 0 0 0-.091-.303.54.54 0 0 0-.4-.24.54.54 0 0 0-.458.177.6.6 0 0 0-.118.208.5.5 0 0 0-.023.158v2.684a.56.56 0 0 0 .14.366.6.6 0 0 0 .172.127.5.5 0 0 0 .233.052h2.57a.56.56 0 0 0 .367-.141.6.6 0 0 0 .138-.196.54.54 0 0 0 .01-.392.53.53 0 0 0-.168-.238.5.5 0 0 0-.214-.107.6.6 0 0 0-.132-.017" opacity=".7"/></svg>