<svg xmlns="http://www.w3.org/2000/svg" width="36" height="36" fill="none"><path fill="#FFF" d="M18 0C8.059 0 0 8.059 0 18s8.059 18 18 18 18-8.059 18-18S27.941 0 18 0m7.538 19.195-10.227 6.75a1 1 0 0 1-.168.095 1 1 0 0 1-.179.072 1.44 1.44 0 0 1-.945-.022 1.3 1.3 0 0 1-.258-.128 1.3 1.3 0 0 1-.262-.211 1.6 1.6 0 0 1-.18-.226 2 2 0 0 1-.113-.212 1.3 1.3 0 0 1-.095-.323 1.5 1.5 0 0 1-.02-.24V11.251a1.6 1.6 0 0 1 .029-.287 1.3 1.3 0 0 1 .068-.23 2 2 0 0 1 .082-.175 1.3 1.3 0 0 1 .164-.237 2 2 0 0 1 .135-.138 1.4 1.4 0 0 1 .318-.216 1.5 1.5 0 0 1 .27-.101 1.6 1.6 0 0 1 .285-.045 1.6 1.6 0 0 1 .289.013 2 2 0 0 1 .234.055 1.6 1.6 0 0 1 .264.116l.082.05 10.228 6.75a1.4 1.4 0 0 1 .427.44 1.46 1.46 0 0 1 .213.667 1.44 1.44 0 0 1-.261.917 1.4 1.4 0 0 1-.38.366"/></svg>