<svg xmlns="http://www.w3.org/2000/svg" xmlns:xlink="http://www.w3.org/1999/xlink" width="14" height="13.1806640625" viewBox="0 0 14 13.1806640625" fill="none"><path d="M12.6042 4.5729L9.49161 4.5729C9.26105 4.53446 9.1842 4.3039 9.14576 4.18861L9.14576 1.38339C9.14576 0.614843 8.53092 0 7.76237 0C7.07067 0 6.49426 0.53799 6.37898 1.19127C5.95627 3.84277 4.34232 4.7266 3.30478 4.9956C3.34319 5.11087 3.34319 5.18772 3.34319 5.26459L3.34319 12.7195C3.34319 12.8733 3.30478 13.027 3.22792 13.1807L10.7597 13.1807C11.4898 13.027 11.9894 12.758 12.3353 12.0278L13.9108 6.49426C14.2182 5.49515 13.7186 4.53446 12.6042 4.5729ZM2.68993 12.758L2.68993 5.26459C2.68993 5.03402 2.3825 4.84188 2.03665 4.84188L0.999112 4.84188C0.461138 4.84188 0 5.30301 0 5.841L0 12.1431C0 12.7195 0.422703 13.1807 0.999112 13.1807L2.03665 13.1807C2.3825 13.1807 2.68993 12.9885 2.68993 12.758Z"   fill="#5493E5" ></path></svg>