<svg xmlns="http://www.w3.org/2000/svg" xmlns:xlink="http://www.w3.org/1999/xlink" width="14.001953125" height="14" viewBox="0 0 14.001953125 14" fill="none"><path d="M9.40338 4.6774C9.56275 4.6774 9.72041 4.68995 9.87681 4.70867C9.4514 2.58087 7.33367 1 4.9163 1C2.2138 1 0 2.97874 0 5.49137C0 6.9417 0.736505 8.13272 1.96728 9.05647L1.47556 10.6451L3.19422 9.71931C3.80918 9.85007 4.30259 9.98453 4.91629 9.98453C5.07056 9.98453 5.22358 9.97632 5.37528 9.96351C5.27923 9.61042 5.22356 9.24062 5.22356 8.85697C5.22358 6.54978 7.06803 4.6774 9.40338 4.6774ZM6.75995 3.24555C7.1301 3.24555 7.37531 3.50714 7.37531 3.90454C7.37531 4.30032 7.1301 4.56555 6.75995 4.56555C6.39145 4.56555 6.02171 4.30035 6.02171 3.90454C6.02171 3.50716 6.39145 3.24555 6.75993 3.24555L6.75995 3.24555ZM3.31918 4.56557C2.95071 4.56557 2.57884 4.30037 2.57884 3.90456C2.57884 3.50716 2.95069 3.24557 3.31918 3.24557C3.68765 3.24557 3.93286 3.50716 3.93286 3.90456C3.93286 4.30035 3.68763 4.56557 3.31918 4.56557Z"   fill="#5493E5" ></path><path d="M14.002 9.0648C14.002 6.95344 12.0351 5.23242 9.82601 5.23242C7.48684 5.23242 5.64453 6.95346 5.64453 9.0648C5.64453 11.1798 7.48684 12.8972 9.82601 12.8972C10.3156 12.8972 10.8094 12.7646 11.3012 12.6322L12.6496 13.4254L12.2799 12.1056C13.2667 11.3104 14.002 10.2558 14.002 9.0648ZM8.47026 8.40401C8.22547 8.40401 7.97857 8.14243 7.97857 7.87558C7.97857 7.61243 8.22547 7.34741 8.47026 7.34741C8.84218 7.34741 9.08569 7.61243 9.08569 7.87558C9.08569 8.14243 8.84218 8.40401 8.47026 8.40401ZM11.1745 8.40401C10.9314 8.40401 10.6862 8.14243 10.6862 7.87558C10.6862 7.61243 10.9314 7.34741 11.1745 7.34741C11.543 7.34741 11.7899 7.61243 11.7899 7.87558C11.7899 8.14243 11.543 8.40401 11.1745 8.40401Z"   fill="#5493E5" ></path></svg>