<svg xmlns="http://www.w3.org/2000/svg" xmlns:xlink="http://www.w3.org/1999/xlink" width="14" height="14" viewBox="0 0 14 14" fill="none"><path d="M6.85258 8.29169L6.85258 13.3943L1.75 13.3943C1.75 10.5762 4.0345 8.29169 6.85258 8.29169ZM6.85258 7.65386C4.7382 7.65386 3.02564 5.94131 3.02564 3.82693C3.02564 1.71255 4.7382 0 6.85258 0C8.96696 0 10.6795 1.71255 10.6795 3.82693C10.6795 5.94131 8.96696 7.65386 6.85258 7.65386ZM12.8776 12.139L13.8365 13.098L12.9345 14L11.9756 13.041C11.5957 13.2655 11.1526 13.3943 10.6795 13.3943C9.27049 13.3943 8.12822 12.252 8.12822 10.843C8.12822 9.43396 9.27049 8.29169 10.6795 8.29169C12.0885 8.29169 13.2308 9.43396 13.2308 10.843C13.2308 11.3161 13.102 11.7592 12.8776 12.139ZM10.6795 12.1186C11.384 12.1186 11.9552 11.5475 11.9552 10.843C11.9552 10.1384 11.384 9.56733 10.6795 9.56733C9.97497 9.56733 9.40386 10.1384 9.40386 10.843C9.40386 11.5475 9.97497 12.1186 10.6795 12.1186Z"   fill="#5493E5" ></path></svg>