<svg xmlns="http://www.w3.org/2000/svg" xmlns:xlink="http://www.w3.org/1999/xlink" width="14" height="14" viewBox="0 0 14 14" fill="none"><g opacity="0.3"><path d="M7 1C3.6782 1 1 3.67975 1 7.00346C1 10.3272 3.7128 13 7 13C10.3218 13 13 10.3203 13 6.99654C13 3.67282 10.2941 1 7 1ZM10.91 8.81766C10.8201 9.00462 10.6609 9.09463 10.481 9.09463C10.4187 9.09463 10.3564 9.09463 10.2941 9.06694L6.75779 7.46047C6.60554 7.39815 6.48097 7.21119 6.48097 7.03116L6.48097 3.70744C6.48097 3.45816 6.6955 3.24351 6.94464 3.24351C7.19377 3.24351 7.4083 3.45816 7.4083 3.70744L7.4083 6.75418L10.6678 8.22908C10.91 8.3191 11 8.56838 10.91 8.81766Z"   fill="#000000" ></path></g></svg>