<svg xmlns="http://www.w3.org/2000/svg" xmlns:xlink="http://www.w3.org/1999/xlink" width="14" height="14" viewBox="0 0 14 14" fill="none"><g opacity="0.3"><path d="M13.3477 7.50586L13.3477 1.46289C13.3477 0.957031 13.0879 0.861328 13.0879 0.861328C12.8008 0.642578 12.4316 0.847656 12.4316 0.847656C11.4746 1.38086 10.3945 1.3125 10.3945 1.3125C9.23242 1.42188 8.20703 0.751953 8.20703 0.751953C6.99023 0.0136719 5.47266 0 5.47266 0C4.51562 0 3.25781 0.423828 3.25781 0.423828C3.16211 0.177734 2.92969 0 2.65625 0C2.28711 0 2 0.300781 2 0.65625L2 13.3438C2 13.6992 2.30078 14 2.65625 14C3.01172 14 3.3125 13.6992 3.3125 13.3438L3.3125 7.98438C4.16016 7.41016 5.44531 7.45117 5.44531 7.45117C6.75781 7.36914 7.64648 8.01172 7.64648 8.01172C9.21875 8.80469 10.3809 8.73633 10.3809 8.73633C11.8848 8.73633 13.0469 8.09375 13.0469 8.09375C13.3887 7.92969 13.3477 7.50586 13.3477 7.50586Z"   fill="#000000" ></path></g></svg>