<svg xmlns="http://www.w3.org/2000/svg" xmlns:xlink="http://www.w3.org/1999/xlink" width="14" height="14" viewBox="0 0 14 14" fill="none"><path d="M9.15765 5.77854C9.19525 5.83023 9.20935 5.89446 9.19838 5.95712C9.18741 6.01978 9.15138 6.07461 9.09812 6.11064L9.10282 6.11064L7.06791 7.55027C7.02718 7.5816 6.97548 7.59726 6.92536 7.5957C6.87053 7.6004 6.81413 7.58473 6.7687 7.55497L4.89985 6.27669C4.79333 6.20306 4.76513 6.05738 4.83562 5.94929C4.91395 5.83963 5.0659 5.813 5.17712 5.88976L6.92066 7.06152L8.81772 5.72371C8.92737 5.64695 9.07776 5.67045 9.15765 5.77854Z"   fill="#5493E5" ></path><path d="M7.00079 0C3.13461 0 0 3.13461 0 6.99922C0 10.8654 3.13461 14 7.00079 14C10.867 14 14 10.8654 14 6.99922C14 3.13461 10.867 0 7.00079 0ZM10.5897 9.64665C10.3578 9.88319 10.0351 10.0101 9.70304 9.99441L4.16695 9.99441C3.85835 9.97405 3.5701 9.8315 3.36489 9.59965C3.16124 9.36624 3.05785 9.06233 3.07822 8.75373L3.07822 5.23845C3.05629 4.90792 3.17691 4.58208 3.41032 4.34553C3.64216 4.10899 3.96487 3.9821 4.29697 3.9962L9.83306 3.9962C10.1417 4.01656 10.4299 4.15912 10.6351 4.39096C10.8388 4.62437 10.9422 4.92828 10.9218 5.23688L10.9218 8.75216C10.9422 9.08583 10.8215 9.4101 10.5897 9.64665Z"   fill="#5493E5" ></path></svg>