<svg xmlns="http://www.w3.org/2000/svg" xmlns:xlink="http://www.w3.org/1999/xlink" width="20" height="20" viewBox="0 0 20 20" fill="none"><path d="M4.55 0L15.575 0C15.6103 0 15.6523 0.0125 15.6875 0.0125C15.7227 0.0125 15.7525 0.025 15.7875 0.025C15.8225 0.025 15.8653 0.0375 15.9 0.0375C15.9347 0.0375 15.9657 0.0625 16 0.0625C16.0343 0.0625 16.0661 0.0875 16.1 0.0875C16.1338 0.0875 16.1667 0.125 16.2 0.125C16.2333 0.125 16.2673 0.148965 16.3 0.1625C16.3327 0.176035 16.368 0.197361 16.4 0.2125C16.432 0.227618 16.4563 0.233319 16.4875 0.25C16.5187 0.266681 16.5571 0.294299 16.5875 0.3125C16.6178 0.330702 16.6456 0.342841 16.675 0.3625C16.7044 0.382159 16.7341 0.403928 16.7625 0.425C16.7909 0.446072 16.8226 0.465054 16.85 0.4875C16.8773 0.509965 16.8988 0.538746 16.925 0.5625C16.9512 0.586254 16.975 0.612479 17 0.6375C17.025 0.662543 17.0512 0.686297 17.075 0.7125C17.0987 0.738725 17.1275 0.760157 17.15 0.7875C17.1724 0.814865 17.1914 0.84658 17.2125 0.875C17.2336 0.90342 17.2553 0.933086 17.275 0.9625C17.2947 0.991933 17.3068 1.01966 17.325 1.05C17.3432 1.08036 17.3583 1.10629 17.375 1.1375C17.3917 1.16871 17.4098 1.20551 17.425 1.2375C17.4401 1.26949 17.4614 1.30481 17.475 1.3375C17.4885 1.37019 17.5125 1.40418 17.5125 1.4375C17.5125 1.47082 17.5375 1.50363 17.5375 1.5375C17.5375 1.57135 17.575 1.60317 17.575 1.6375C17.575 1.67181 17.5875 1.70279 17.5875 1.7375C17.5875 1.77221 17.6125 1.81501 17.6125 1.85C17.6125 1.88501 17.625 1.91478 17.625 1.95C17.625 1.98522 17.6375 2.01465 17.6375 2.05L17.6375 17.95C17.6375 17.9853 17.625 18.0148 17.625 18.05C17.625 18.0852 17.6125 18.115 17.6125 18.15C17.6125 18.185 17.5875 18.2278 17.5875 18.2625C17.5875 18.2972 17.575 18.3282 17.575 18.3625C17.575 18.3968 17.5375 18.4286 17.5375 18.4625C17.5375 18.4964 17.5125 18.5292 17.5125 18.5625C17.5125 18.5958 17.4885 18.6298 17.475 18.6625C17.4615 18.6952 17.4401 18.7305 17.425 18.7625C17.4098 18.7945 17.3917 18.8313 17.375 18.8625C17.3583 18.8937 17.3432 18.9196 17.325 18.95C17.3068 18.9803 17.2947 19.0081 17.275 19.0375C17.2553 19.0669 17.2336 19.0966 17.2125 19.125C17.1914 19.1534 17.1724 19.1851 17.15 19.2125C17.1275 19.2398 17.0987 19.2613 17.075 19.2875C17.0512 19.3137 17.025 19.3374 17 19.3625C16.975 19.3875 16.9512 19.4137 16.925 19.4375C16.8988 19.4613 16.8774 19.49 16.85 19.5125C16.8227 19.535 16.7909 19.5539 16.7625 19.575C16.7341 19.5961 16.7044 19.6178 16.675 19.6375C16.6456 19.6572 16.6178 19.6693 16.5875 19.6875C16.5571 19.7057 16.5187 19.7333 16.4875 19.75C16.4563 19.7667 16.432 19.7724 16.4 19.7875C16.368 19.8026 16.3327 19.8239 16.3 19.8375C16.2673 19.851 16.2333 19.875 16.2 19.875C16.1667 19.875 16.1338 19.9125 16.1 19.9125C16.0661 19.9125 16.0343 19.9375 16 19.9375C15.9657 19.9375 15.9347 19.9625 15.9 19.9625C15.8653 19.9625 15.8225 19.975 15.7875 19.975C15.7525 19.975 15.7227 19.9875 15.6875 19.9875C15.6523 19.9875 15.6103 20 15.575 20L4.55 20C4.51465 20 4.48522 19.9875 4.45 19.9875C4.41478 19.9875 4.38501 19.975 4.35 19.975C4.31501 19.975 4.27221 19.9625 4.2375 19.9625C4.20279 19.9625 4.17181 19.9375 4.1375 19.9375C4.10317 19.9375 4.07135 19.9125 4.0375 19.9125C4.00363 19.9125 3.97082 19.875 3.9375 19.875C3.90418 19.875 3.87018 19.851 3.8375 19.8375C3.80479 19.8239 3.76947 19.8026 3.7375 19.7875C3.70551 19.7724 3.66871 19.7667 3.6375 19.75C3.60629 19.7333 3.58036 19.7057 3.55 19.6875C3.51966 19.6693 3.49193 19.6572 3.4625 19.6375C3.43309 19.6178 3.40342 19.5961 3.375 19.575C3.34658 19.5539 3.31486 19.535 3.2875 19.5125C3.26016 19.49 3.23872 19.4613 3.2125 19.4375C3.1863 19.4137 3.16254 19.3875 3.1375 19.3625C3.11248 19.3375 3.08625 19.3137 3.0625 19.2875C3.03875 19.2613 3.00996 19.2398 2.9875 19.2125C2.96505 19.1851 2.94607 19.1534 2.925 19.125C2.90393 19.0966 2.88216 19.0669 2.8625 19.0375C2.84284 19.0081 2.8307 18.9803 2.8125 18.95C2.7943 18.9196 2.76666 18.8937 2.75 18.8625C2.73332 18.8313 2.72764 18.7945 2.7125 18.7625C2.69736 18.7305 2.67603 18.6952 2.6625 18.6625C2.64897 18.6298 2.625 18.5958 2.625 18.5625C2.625 18.5292 2.5875 18.4964 2.5875 18.4625C2.5875 18.4286 2.5625 18.3968 2.5625 18.3625C2.5625 18.3282 2.5375 18.2972 2.5375 18.2625C2.5375 18.2278 2.525 18.185 2.525 18.15C2.525 18.115 2.5125 18.0852 2.5125 18.05C2.5125 18.0148 2.5 17.9853 2.5 17.95L2.5 2.05C2.5 2.01465 2.5125 1.98522 2.5125 1.95C2.5125 1.91478 2.525 1.88501 2.525 1.85C2.525 1.81501 2.5375 1.77221 2.5375 1.7375C2.5375 1.70279 2.5625 1.67181 2.5625 1.6375C2.5625 1.60317 2.5875 1.57135 2.5875 1.5375C2.5875 1.50363 2.625 1.47082 2.625 1.4375C2.625 1.40418 2.64897 1.37019 2.6625 1.3375C2.67606 1.30481 2.69738 1.26949 2.7125 1.2375C2.72764 1.20551 2.73332 1.16871 2.75 1.1375C2.76668 1.10629 2.79432 1.08036 2.8125 1.05C2.8307 1.01966 2.84284 0.991933 2.8625 0.9625C2.88216 0.933086 2.90393 0.90342 2.925 0.875C2.94607 0.84658 2.96505 0.814865 2.9875 0.7875C3.00996 0.760157 3.03875 0.738725 3.0625 0.7125C3.08628 0.686297 3.11248 0.662521 3.1375 0.6375C3.16252 0.612479 3.1863 0.586276 3.2125 0.5625C3.23872 0.538746 3.26016 0.509965 3.2875 0.4875C3.31486 0.465054 3.34658 0.446072 3.375 0.425C3.40342 0.403928 3.43309 0.382159 3.4625 0.3625C3.49193 0.342841 3.51966 0.330702 3.55 0.3125C3.58036 0.294299 3.60629 0.26666 3.6375 0.25C3.66871 0.233319 3.70551 0.227639 3.7375 0.2125C3.76949 0.197361 3.80481 0.176035 3.8375 0.1625C3.87018 0.148965 3.90418 0.125 3.9375 0.125C3.97082 0.125 4.00363 0.0875 4.0375 0.0875C4.07135 0.0875 4.10317 0.0625 4.1375 0.0625C4.17183 0.0625 4.20281 0.0375 4.2375 0.0375C4.27221 0.0375 4.31499 0.025 4.35 0.025C4.38499 0.025 4.41478 0.0125 4.45 0.0125C4.48522 0.0125 4.51465 0 4.55 0ZM4.6625 1.075C4.6448 1.075 4.63015 1.0875 4.6125 1.0875L4.5 1.0875C4.4825 1.0875 4.46735 1.1 4.45 1.1C4.43264 1.1 4.41714 1.1125 4.4 1.1125C4.38283 1.1125 4.36693 1.125 4.35 1.125C4.33306 1.125 4.31666 1.15 4.3 1.15C4.28334 1.15 4.26634 1.1625 4.25 1.1625C4.23366 1.1625 4.21598 1.1875 4.2 1.1875C4.18399 1.1875 4.1656 1.2125 4.15 1.2125C4.13439 1.2125 4.12768 1.2375 4.1125 1.2375C4.09734 1.2375 4.07722 1.2625 4.0625 1.2625C4.04778 1.2625 4.02671 1.3 4.0125 1.3C3.99829 1.3 3.98868 1.325 3.975 1.325C3.96134 1.325 3.95061 1.3625 3.9375 1.3625C3.92439 1.3625 3.91252 1.3875 3.9 1.4C3.9 1.41252 3.8625 1.42439 3.8625 1.4375C3.8625 1.45061 3.825 1.46134 3.825 1.475C3.825 1.48868 3.8 1.49829 3.8 1.5125C3.8 1.52671 3.7625 1.54778 3.7625 1.5625C3.7625 1.57722 3.7375 1.59734 3.7375 1.6125C3.7375 1.62768 3.7125 1.6344 3.7125 1.65C3.7125 1.6656 3.6875 1.68401 3.6875 1.7C3.6875 1.716 3.6625 1.73366 3.6625 1.75C3.6625 1.76634 3.65 1.78334 3.65 1.8C3.65 1.81666 3.625 1.83306 3.625 1.85C3.625 1.86694 3.6125 1.88283 3.6125 1.9C3.6125 1.91714 3.6 1.93264 3.6 1.95C3.6 1.96736 3.5875 1.98249 3.5875 2L3.5875 2.1125C3.5875 2.13017 3.575 2.1448 3.575 2.1625L3.575 17.8375C3.575 17.8552 3.5875 17.8699 3.5875 17.8875L3.5875 18C3.5875 18.0175 3.6 18.0326 3.6 18.05C3.6 18.0674 3.6125 18.0829 3.6125 18.1C3.6125 18.1172 3.625 18.1331 3.625 18.15C3.625 18.1669 3.65 18.1833 3.65 18.2C3.65 18.2167 3.6625 18.2337 3.6625 18.25C3.6625 18.2663 3.6875 18.284 3.6875 18.3C3.6875 18.316 3.7125 18.3344 3.7125 18.35C3.7125 18.3656 3.7375 18.3723 3.7375 18.3875C3.7375 18.4027 3.7625 18.4228 3.7625 18.4375C3.7625 18.4522 3.8 18.4733 3.8 18.4875C3.8 18.5017 3.825 18.5113 3.825 18.525C3.825 18.5387 3.8625 18.5494 3.8625 18.5625C3.8625 18.5756 3.9 18.5875 3.9 18.6C3.91252 18.6125 3.92439 18.6375 3.9375 18.6375C3.95061 18.6375 3.96134 18.675 3.975 18.675C3.98868 18.675 3.99829 18.7 4.0125 18.7C4.02671 18.7 4.04778 18.7375 4.0625 18.7375C4.07722 18.7375 4.09734 18.7625 4.1125 18.7625C4.12768 18.7625 4.13439 18.7875 4.15 18.7875C4.1656 18.7875 4.18399 18.8125 4.2 18.8125C4.21598 18.8125 4.23366 18.8375 4.25 18.8375C4.26634 18.8375 4.28334 18.85 4.3 18.85C4.31666 18.85 4.33306 18.875 4.35 18.875C4.36693 18.875 4.38283 18.8875 4.4 18.8875C4.41714 18.8875 4.43264 18.9 4.45 18.9C4.46735 18.9 4.4825 18.9125 4.5 18.9125L4.6125 18.9125C4.63015 18.9125 4.6448 18.925 4.6625 18.925L15.475 18.925C15.4927 18.925 15.5073 18.9125 15.525 18.9125L15.6375 18.9125C15.655 18.9125 15.6701 18.9 15.6875 18.9C15.7048 18.9 15.7204 18.8875 15.7375 18.8875C15.7547 18.8875 15.7705 18.875 15.7875 18.875C15.8044 18.875 15.8208 18.85 15.8375 18.85C15.8541 18.85 15.8711 18.8375 15.8875 18.8375C15.9038 18.8375 15.9215 18.8125 15.9375 18.8125C15.9535 18.8125 15.9719 18.7875 15.9875 18.7875C16.0031 18.7875 16.0098 18.7625 16.025 18.7625C16.0402 18.7625 16.0603 18.7375 16.075 18.7375C16.0897 18.7375 16.0983 18.7 16.1125 18.7C16.1267 18.7 16.1488 18.675 16.1625 18.675C16.1761 18.675 16.1869 18.6375 16.2 18.6375C16.2131 18.6375 16.225 18.6125 16.2375 18.6C16.25 18.5875 16.275 18.5756 16.275 18.5625C16.275 18.5494 16.3125 18.5387 16.3125 18.525C16.3125 18.5113 16.3375 18.5017 16.3375 18.4875C16.3375 18.4733 16.375 18.4522 16.375 18.4375C16.375 18.4228 16.4 18.4027 16.4 18.3875C16.4 18.3723 16.425 18.3656 16.425 18.35C16.425 18.3344 16.45 18.316 16.45 18.3C16.45 18.284 16.475 18.2663 16.475 18.25C16.475 18.2337 16.4875 18.2167 16.4875 18.2C16.4875 18.1833 16.5125 18.1669 16.5125 18.15C16.5125 18.1331 16.525 18.1172 16.525 18.1C16.525 18.0829 16.5375 18.0674 16.5375 18.05L16.5375 18C16.5375 17.9825 16.55 17.9676 16.55 17.95L16.55 2.05C16.55 2.03239 16.5375 2.01751 16.5375 2L16.5375 1.95C16.5375 1.93264 16.525 1.91714 16.525 1.9C16.525 1.88283 16.5125 1.86694 16.5125 1.85C16.5125 1.83306 16.4875 1.81666 16.4875 1.8C16.4875 1.78334 16.475 1.76634 16.475 1.75C16.475 1.73366 16.45 1.716 16.45 1.7C16.45 1.68401 16.425 1.6656 16.425 1.65C16.425 1.6344 16.4 1.62768 16.4 1.6125C16.4 1.59734 16.375 1.57722 16.375 1.5625C16.375 1.54778 16.3375 1.52671 16.3375 1.5125C16.3375 1.49829 16.3125 1.48868 16.3125 1.475C16.3125 1.46134 16.275 1.45061 16.275 1.4375C16.275 1.42439 16.25 1.41252 16.2375 1.4C16.225 1.3875 16.2131 1.3625 16.2 1.3625C16.1869 1.3625 16.1761 1.325 16.1625 1.325C16.1488 1.325 16.1267 1.3 16.1125 1.3C16.0983 1.3 16.0897 1.2625 16.075 1.2625C16.0603 1.2625 16.0402 1.2375 16.025 1.2375C16.0098 1.2375 16.0031 1.2125 15.9875 1.2125C15.9719 1.2125 15.9535 1.1875 15.9375 1.1875C15.9215 1.1875 15.9038 1.1625 15.8875 1.1625C15.8711 1.1625 15.8541 1.15 15.8375 1.15C15.8208 1.15 15.8044 1.125 15.7875 1.125C15.7705 1.125 15.7547 1.1125 15.7375 1.1125C15.7204 1.1125 15.7048 1.1 15.6875 1.1C15.6701 1.1 15.655 1.0875 15.6375 1.0875L15.525 1.0875C15.5073 1.0875 15.4927 1.075 15.475 1.075L4.6625 1.075ZM7.63551 2.1621L12.5004 2.1621C13.0409 2.1621 13.3112 2.37043 13.3112 2.7871C13.3112 3.20377 13.0409 3.4121 12.5004 3.4121L7.63551 3.4121C7.09497 3.4121 6.8247 3.20377 6.8247 2.7871Q6.8247 2.1621 7.63551 2.1621ZM10.9375 16.3379C10.9375 15.7129 10.625 15.4004 10 15.4004C9.375 15.4004 9.0625 15.7129 9.0625 16.3379C9.0625 16.9629 9.375 17.2754 10 17.2754C10.625 17.2754 10.9375 16.9629 10.9375 16.3379Z" fill-rule="evenodd"  fill="#0065FB" ></path></svg>