<svg xmlns="http://www.w3.org/2000/svg" xmlns:xlink="http://www.w3.org/1999/xlink" width="26" height="26" viewBox="0 0 26 26" fill="none"><path d="M7.87935 19.8095C7.51151 18.2339 5.85272 16.9442 5.17156 16.0942C3.81275 14.3987 3 12.2466 3 9.90476C3 4.43451 7.43451 0 12.9048 0C18.375 0 22.8095 4.43451 22.8095 9.90476C22.8095 12.2479 21.9958 14.4009 20.6358 16.097C19.955 16.9458 18.2977 18.2342 17.9302 19.8095L7.87935 19.8095ZM17.8571 22.2857L17.8571 23.5238C17.8571 24.8914 16.7486 26 15.381 26L10.4286 26C9.06101 26 7.95238 24.8914 7.95238 23.5238L7.95238 22.2857L17.8571 22.2857ZM14.1429 9.9107L14.1429 4.95238L8.57143 12.3869L11.6667 12.3869L11.6667 17.3393L17.2381 9.9107L14.1429 9.9107Z"   fill="#0065FB" ></path></svg>