<svg xmlns="http://www.w3.org/2000/svg" xmlns:xlink="http://www.w3.org/1999/xlink" width="12" height="12" viewBox="0 0 12 12" fill="none"><g opacity="0.7"><path d="M5.99998 0C5.90185 0 5.80378 0.00240335 5.70576 0.00721018C5.60775 0.0120269 5.50993 0.0192419 5.41226 0.0288555C5.3146 0.0384692 5.21723 0.0504711 5.12016 0.0648617C5.02309 0.0792522 4.92644 0.0960113 4.83019 0.115139C4.73394 0.134277 4.63821 0.155759 4.54302 0.179584C4.44783 0.203408 4.35327 0.229559 4.25936 0.258031C4.16545 0.286495 4.0723 0.317247 3.97989 0.350289C3.8875 0.38333 3.79596 0.418617 3.70528 0.456147C3.61462 0.493677 3.52492 0.533407 3.4362 0.575338C3.34747 0.617269 3.25983 0.661349 3.17328 0.707579C3.08673 0.753819 3.00135 0.802145 2.91715 0.852557C2.83297 0.902979 2.75007 0.955436 2.66845 1.00993C2.58684 1.06441 2.50662 1.12087 2.42777 1.17929C2.34894 1.23772 2.27156 1.29804 2.19568 1.36026C2.11979 1.42248 2.04548 1.48653 1.97274 1.55239C1.9 1.61826 1.82891 1.68588 1.75949 1.75523C1.69007 1.82457 1.62239 1.89559 1.55644 1.96827C1.49051 2.04095 1.42638 2.1152 1.3641 2.19101C1.3018 2.26684 1.24139 2.34414 1.18289 2.42293C1.12438 2.50172 1.06785 2.58188 1.01329 2.66344C0.958713 2.745 0.906171 2.82786 0.855659 2.91198C0.805158 2.99612 0.756748 3.08145 0.710428 3.16796C0.664109 3.25446 0.619939 3.34206 0.577919 3.43074C0.535899 3.51942 0.496079 3.60909 0.45846 3.69972C0.42084 3.79035 0.385464 3.88185 0.352333 3.97421C0.319202 4.06659 0.288355 4.15971 0.259793 4.25359C0.23123 4.34747 0.204986 4.442 0.181062 4.53717C0.157127 4.63235 0.135546 4.72805 0.116319 4.82427C0.0970921 4.9205 0.0802336 5.01714 0.0657438 5.11419C0.0512639 5.21125 0.0391673 5.30862 0.0294544 5.40627C0.0197416 5.50392 0.0124322 5.60174 0.00752603 5.69975C0.0026101 5.79776 0.000102403 5.89583 3.0687e-06 5.99395C-9.62662e-05 6.09208 0.00221276 6.19016 0.00693014 6.28818C0.0116376 6.38619 0.0187485 6.48404 0.0282628 6.58172C0.037777 6.67938 0.0496797 6.77676 0.0639709 6.87385C0.0782622 6.97093 0.0949271 7.0676 0.113966 7.16386C0.133004 7.26014 0.154386 7.35588 0.178112 7.45109C0.201848 7.54631 0.227902 7.64089 0.256277 7.73483C0.284651 7.82878 0.315309 7.92196 0.348251 8.01439C0.381203 8.10683 0.416401 8.1984 0.453841 8.28911C0.491273 8.37982 0.530908 8.46956 0.57275 8.55833C0.6146 8.64708 0.658597 8.73477 0.704737 8.82138C0.750878 8.90798 0.799121 8.99339 0.849462 9.07764C0.899795 9.16188 0.952163 9.24483 1.00657 9.32651C1.06097 9.40817 1.11735 9.48845 1.17569 9.56736C1.23404 9.64626 1.29428 9.72368 1.35642 9.79964C1.41857 9.87558 1.48254 9.94996 1.54832 10.0228C1.61412 10.0956 1.68167 10.1667 1.75094 10.2362C1.82024 10.3057 1.89118 10.3735 1.96379 10.4395C2.0364 10.5055 2.11058 10.5697 2.18634 10.6321C2.2621 10.6944 2.33934 10.7549 2.41806 10.8135C2.49679 10.8721 2.57691 10.9287 2.65841 10.9833C2.73992 11.038 2.82271 11.0906 2.90679 11.1412C2.99088 11.1918 3.07615 11.2403 3.16261 11.2867C3.24909 11.3331 3.33664 11.3774 3.42528 11.4195C3.51392 11.4616 3.60352 11.5015 3.69412 11.5392C3.78473 11.5769 3.87618 11.6124 3.96851 11.6456C4.06084 11.6789 4.15395 11.7098 4.2478 11.7384C4.34165 11.7671 4.43616 11.7934 4.53129 11.8175C4.62646 11.8415 4.72213 11.8632 4.81833 11.8825C4.91455 11.9018 5.01117 11.9188 5.10821 11.9334C5.20525 11.9479 5.30259 11.9601 5.40022 11.97C5.49787 11.9798 5.5957 11.9872 5.6937 11.9922C5.7917 11.9972 5.88977 11.9998 5.9879 12C6.08604 12.0002 6.18411 11.998 6.28213 11.9934C6.38015 11.9888 6.47801 11.9817 6.57568 11.9723C6.67337 11.9629 6.77075 11.9511 6.86785 11.9369C6.96495 11.9227 7.06165 11.9061 7.15793 11.8872C7.25422 11.8683 7.34998 11.847 7.44522 11.8234C7.54047 11.7997 7.63506 11.7738 7.72903 11.7455C7.823 11.7172 7.91623 11.6866 8.0087 11.6538C8.10118 11.6209 8.19278 11.5858 8.28352 11.5485C8.37427 11.5111 8.46404 11.4716 8.55284 11.4298C8.64166 11.3881 8.72939 11.3442 8.81603 11.2981C8.9027 11.2521 8.98816 11.2039 9.07245 11.1537C9.15674 11.1034 9.23974 11.0511 9.32147 10.9968C9.40319 10.9425 9.48353 10.8862 9.56249 10.8279C9.64146 10.7697 9.71895 10.7095 9.79496 10.6474C9.87096 10.5854 9.9454 10.5215 10.0183 10.4557C10.0912 10.39 10.1624 10.3226 10.2319 10.2533C10.3015 10.1841 10.3693 10.1132 10.4354 10.0407C10.5015 9.96817 10.5658 9.89404 10.6282 9.81835C10.6907 9.74266 10.7512 9.66547 10.8099 9.5868C10.8686 9.50813 10.9253 9.42808 10.98 9.34663C11.0347 9.26519 11.0874 9.18245 11.1381 9.09842C11.1888 9.01439 11.2374 8.92916 11.2839 8.84274C11.3303 8.75632 11.3747 8.6688 11.4169 8.58021C11.4591 8.49162 11.4991 8.40204 11.5369 8.31148C11.5747 8.22092 11.6103 8.1295 11.6436 8.0372C11.6769 7.9449 11.7079 7.85184 11.7367 7.75801C11.7654 7.66418 11.7919 7.56972 11.816 7.4746C11.8401 7.37948 11.8619 7.28381 11.8813 7.18762C11.9007 7.09143 11.9178 6.99482 11.9325 6.8978C11.9472 6.80078 11.9595 6.70344 11.9694 6.60582C11.9793 6.50818 11.9868 6.41037 11.9919 6.31238C11.997 6.21437 11.9997 6.1163 12 6.01818C12.0002 5.91983 11.9979 5.82154 11.9933 5.72329C11.9886 5.62504 11.9816 5.52698 11.9721 5.42909C11.9627 5.3312 11.9508 5.23359 11.9365 5.13627C11.9223 5.03896 11.9056 4.94206 11.8866 4.84556C11.8676 4.74907 11.8462 4.6531 11.8225 4.55766C11.7987 4.46221 11.7727 4.36741 11.7443 4.27324C11.7159 4.17908 11.6852 4.08566 11.6522 3.993C11.6193 3.90034 11.584 3.80854 11.5466 3.71763C11.5091 3.6267 11.4694 3.53675 11.4275 3.44777C11.3856 3.35879 11.3415 3.27088 11.2953 3.18408C11.2491 3.09727 11.2007 3.01164 11.1503 2.92719C11.0999 2.84276 11.0474 2.7596 10.9929 2.67774C10.9384 2.59588 10.8819 2.51541 10.8234 2.43632C10.765 2.35723 10.7046 2.27962 10.6423 2.20349C10.58 2.12737 10.5159 2.05283 10.45 1.97984C10.3841 1.90686 10.3164 1.83555 10.2469 1.76591C10.1775 1.69626 10.1064 1.62835 10.0336 1.56219C9.96083 1.49603 9.88648 1.43171 9.81054 1.3692C9.73461 1.30669 9.65719 1.24609 9.57828 1.1874C9.49937 1.12869 9.41906 1.07196 9.33736 1.0172C9.25567 0.962437 9.17268 0.909717 9.08839 0.859037C9.0041 0.808357 8.91862 0.759774 8.83194 0.713285C8.74527 0.666806 8.65751 0.622477 8.56866 0.580299C8.47982 0.53813 8.38997 0.498161 8.29916 0.460393C8.20835 0.422633 8.11667 0.387125 8.0241 0.353864C7.93154 0.320614 7.83823 0.289647 7.74414 0.260966C7.65008 0.232294 7.55535 0.205947 7.45996 0.181922C7.36459 0.157908 7.2687 0.136243 7.17226 0.116927C7.07581 0.0976202 6.97897 0.0806874 6.88169 0.0661279C6.78443 0.0515784 6.68687 0.0394225 6.58899 0.02966C6.49113 0.0198975 6.39308 0.0125433 6.29485 0.00759751C6.19662 0.00265169 6.09833 0.000119224 5.99998 0ZM5.99998 10.9091C5.91958 10.9091 5.83922 10.9071 5.75891 10.9032C5.67862 10.8992 5.59846 10.8933 5.51843 10.8854C5.43842 10.8775 5.35865 10.8677 5.27911 10.8559C5.19958 10.8441 5.12038 10.8303 5.04152 10.8146C4.96267 10.7989 4.88425 10.7813 4.80625 10.7617C4.72826 10.7422 4.6508 10.7207 4.57385 10.6974C4.49693 10.674 4.42062 10.6488 4.34492 10.6217C4.26923 10.5946 4.19423 10.5656 4.11996 10.5348C4.04568 10.504 3.97221 10.4714 3.89954 10.437C3.82687 10.4026 3.75508 10.3665 3.68419 10.3285C3.61329 10.2906 3.54337 10.251 3.47442 10.2096C3.40548 10.1682 3.33758 10.1252 3.27075 10.0805C3.20392 10.0358 3.13823 9.98946 3.07366 9.94153C3.00911 9.89361 2.94577 9.84412 2.88365 9.79308C2.82153 9.74203 2.76069 9.6895 2.70115 9.63547C2.6416 9.58144 2.58342 9.52598 2.5266 9.46909C2.46978 9.4122 2.41439 9.35395 2.36044 9.29433C2.30648 9.23473 2.25403 9.17383 2.20305 9.11163C2.15209 9.04944 2.10267 8.98604 2.05482 8.92143C2.00699 8.85682 1.96076 8.79106 1.91613 8.72418C1.87152 8.65729 1.82857 8.58934 1.78729 8.52034C1.74601 8.45135 1.70644 8.38138 1.6686 8.31043C1.63076 8.23949 1.5947 8.16765 1.56038 8.09494C1.52607 8.02223 1.49356 7.94871 1.46285 7.8744C1.43215 7.80008 1.40329 7.72506 1.37628 7.64934C1.34927 7.5736 1.32413 7.49726 1.30087 7.4203C1.2776 7.34333 1.25625 7.26585 1.2368 7.18783C1.21734 7.10982 1.19982 7.03137 1.18421 6.95249C1.16861 6.87361 1.15496 6.7944 1.14325 6.71485C1.13154 6.63531 1.12179 6.55553 1.114 6.4755C1.10622 6.39547 1.1004 6.3153 1.09654 6.23499C1.0927 6.15468 1.09083 6.07431 1.09093 5.99391C1.09103 5.91351 1.0931 5.83315 1.09714 5.75286C1.10119 5.67255 1.10721 5.5924 1.1152 5.51239C1.12318 5.43238 1.13313 5.35262 1.14503 5.2731C1.15694 5.1936 1.17079 5.11442 1.18658 5.03557C1.20238 4.95673 1.22011 4.87833 1.23975 4.80037C1.25939 4.7224 1.28094 4.64497 1.3044 4.56805C1.32786 4.49114 1.35319 4.41487 1.38038 4.33921C1.40758 4.26354 1.43662 4.18858 1.46751 4.11435C1.4984 4.04012 1.53109 3.96668 1.56558 3.89405C1.60008 3.82143 1.63632 3.74969 1.67434 3.67884C1.71236 3.60799 1.7521 3.53812 1.79354 3.46922C1.835 3.40032 1.87812 3.33249 1.9229 3.26571C1.96768 3.19893 2.01408 3.13329 2.06208 3.0688C2.11009 3.0043 2.15965 2.94102 2.21078 2.87895C2.26191 2.81689 2.31451 2.75613 2.36862 2.69665C2.42272 2.63716 2.47824 2.57905 2.53521 2.52231C2.59218 2.46556 2.65048 2.41025 2.71016 2.35637C2.76984 2.30248 2.83081 2.25009 2.89305 2.1992C2.95531 2.14832 3.01877 2.09899 3.08345 2.05122C3.14813 2.00344 3.21393 1.95729 3.28087 1.91276C3.34781 1.86824 3.41582 1.82536 3.48487 1.78417C3.55391 1.74298 3.62393 1.7035 3.69491 1.66574C3.76591 1.62799 3.83778 1.592 3.91053 1.55778C3.98329 1.52356 4.05685 1.49115 4.1312 1.46053C4.20555 1.42993 4.28061 1.40116 4.35637 1.37424C4.43214 1.34732 4.50852 1.32228 4.5855 1.29911C4.66251 1.27594 4.74003 1.25468 4.81806 1.23532C4.89609 1.21596 4.97457 1.19852 5.05346 1.18302C5.13236 1.16751 5.2116 1.15396 5.29115 1.14235C5.37071 1.13074 5.45052 1.12109 5.53054 1.1134C5.61058 1.10572 5.69076 1.1 5.77107 1.09624C5.8514 1.0925 5.93175 1.09073 6.01215 1.09092C6.09256 1.09112 6.1729 1.09329 6.2532 1.09743C6.33349 1.10159 6.41364 1.1077 6.49364 1.11579C6.57363 1.12387 6.65339 1.13392 6.73288 1.14592C6.8124 1.15792 6.89157 1.17186 6.97037 1.18775C7.04919 1.20365 7.12757 1.22148 7.20551 1.24122C7.28345 1.26096 7.36087 1.28261 7.43774 1.30616C7.51462 1.3297 7.59088 1.35512 7.6665 1.38241C7.74214 1.40972 7.81706 1.43885 7.89125 1.46983C7.96545 1.5008 8.03885 1.53359 8.11143 1.56817C8.18402 1.60274 8.25572 1.63909 8.32651 1.6772C8.39732 1.71529 8.46714 1.75511 8.53598 1.79666C8.60483 1.83819 8.67261 1.88139 8.73932 1.92626C8.80606 1.97112 8.87164 2.01759 8.93607 2.06568C9.00051 2.11377 9.06374 2.16341 9.12572 2.21461C9.18772 2.26581 9.24843 2.31848 9.30784 2.37266C9.36725 2.42685 9.4253 2.48244 9.48197 2.53948C9.53865 2.59651 9.59391 2.65489 9.64771 2.71464C9.70152 2.77438 9.75384 2.83541 9.80464 2.89773C9.85545 2.96004 9.9047 3.02358 9.95239 3.0883C10.0001 3.15303 10.0462 3.2189 10.0906 3.2859C10.1351 3.35289 10.1778 3.42094 10.2189 3.49005C10.2601 3.55915 10.2994 3.62921 10.3371 3.70024C10.3748 3.77129 10.4107 3.84319 10.4448 3.916C10.479 3.9888 10.5113 4.06239 10.5418 4.13679C10.5723 4.21117 10.601 4.28626 10.6278 4.36206C10.6546 4.43785 10.6796 4.51426 10.7026 4.59128C10.7257 4.66831 10.7469 4.74585 10.7662 4.82391C10.7854 4.90197 10.8028 4.98046 10.8182 5.05937C10.8336 5.13828 10.847 5.21754 10.8585 5.29711C10.87 5.37668 10.8796 5.4565 10.8872 5.53654C10.8948 5.61658 10.9004 5.69677 10.9041 5.7771C10.9077 5.85741 10.9094 5.93778 10.9091 6.01818C10.9087 6.09831 10.9064 6.17839 10.9021 6.25842C10.8979 6.33843 10.8916 6.41831 10.8835 6.49802C10.8753 6.57774 10.8651 6.65721 10.8531 6.73644C10.841 6.81564 10.827 6.89452 10.8111 6.97306C10.7951 7.0516 10.7773 7.1297 10.7575 7.20736C10.7378 7.28502 10.7161 7.36216 10.6926 7.43877C10.6691 7.51537 10.6437 7.59135 10.6165 7.66671C10.5892 7.74207 10.5601 7.81672 10.5292 7.89066C10.4983 7.96459 10.4657 8.03774 10.4312 8.11008C10.3967 8.18242 10.3605 8.25388 10.3225 8.32444C10.2845 8.39501 10.2448 8.4646 10.2034 8.53323C10.1621 8.60186 10.119 8.66943 10.0744 8.73594C10.0297 8.80246 9.98337 8.86784 9.93548 8.93209C9.8876 8.99634 9.83817 9.05939 9.7872 9.12123C9.73622 9.18306 9.68376 9.24362 9.62984 9.30288C9.57591 9.36216 9.52055 9.42006 9.46378 9.47662C9.40701 9.53319 9.34889 9.58832 9.28942 9.64204C9.22996 9.69576 9.16921 9.74799 9.10717 9.79873C9.04516 9.84947 8.98194 9.89866 8.91751 9.94631C8.85308 9.99397 8.78751 10.04 8.72082 10.0845C8.65414 10.1289 8.58642 10.1717 8.51764 10.2128C8.44886 10.2539 8.37911 10.2933 8.30841 10.3311C8.23771 10.3688 8.16611 10.4047 8.09364 10.4389C8.02118 10.4731 7.94793 10.5056 7.87386 10.5362C7.79982 10.5668 7.72506 10.5956 7.64959 10.6226C7.57413 10.6495 7.49806 10.6746 7.42137 10.6979C7.34468 10.7211 7.26746 10.7425 7.18972 10.762C7.11198 10.7814 7.03382 10.799 6.95522 10.8146C6.87663 10.8303 6.7977 10.844 6.71843 10.8557C6.63918 10.8675 6.55968 10.8774 6.47992 10.8852C6.40017 10.8931 6.32028 10.8991 6.24024 10.903C6.16021 10.907 6.08012 10.909 5.99998 10.9091ZM8.5709 5.56727L6.54543 5.56727L6.54543 3.42909C6.54543 3.42016 6.54523 3.41124 6.54478 3.40232C6.54435 3.39341 6.54369 3.38452 6.54281 3.37562C6.54195 3.36674 6.54085 3.35788 6.53953 3.34905C6.53822 3.34021 6.5367 3.33142 6.53496 3.32268C6.53322 3.31392 6.53127 3.3052 6.52909 3.29655C6.52693 3.28789 6.52455 3.27928 6.52196 3.27075C6.51936 3.26221 6.51656 3.25373 6.51355 3.24533C6.51055 3.23692 6.50734 3.22859 6.50392 3.22035C6.5005 3.21211 6.49688 3.20395 6.49307 3.19587C6.48926 3.1878 6.48525 3.17983 6.48103 3.17196C6.47683 3.16408 6.47242 3.15632 6.46784 3.14867C6.46325 3.14101 6.45848 3.13347 6.45352 3.12605C6.44856 3.11862 6.44342 3.11132 6.4381 3.10415C6.43278 3.09699 6.42729 3.08996 6.42162 3.08306C6.41596 3.07616 6.41014 3.0694 6.40414 3.06278C6.39815 3.05617 6.39199 3.0497 6.38568 3.04339C6.37936 3.03709 6.3729 3.03093 6.36628 3.02493C6.35967 3.01893 6.35292 3.0131 6.34602 3.00744C6.33912 3.00178 6.33209 2.99628 6.32491 2.99097C6.31775 2.98565 6.31045 2.98052 6.30301 2.97556C6.2956 2.9706 6.28806 2.96582 6.2804 2.96123C6.27274 2.95664 6.26498 2.95225 6.2571 2.94803C6.24924 2.94383 6.24127 2.93982 6.23319 2.936C6.22513 2.93218 6.21697 2.92856 6.20872 2.92515C6.20048 2.92174 6.19215 2.91852 6.18373 2.91551C6.17533 2.91252 6.16687 2.90972 6.15832 2.90713C6.14978 2.90453 6.14119 2.90215 6.13252 2.89997C6.12386 2.89781 6.11515 2.89586 6.10639 2.89412C6.09764 2.89238 6.08885 2.89084 6.08002 2.88953C6.0712 2.88822 6.06234 2.88713 6.05344 2.88625C6.04457 2.88538 6.03567 2.88472 6.02675 2.88429C6.01784 2.88386 6.00892 2.88363 5.99998 2.88363C5.99106 2.88363 5.98213 2.88386 5.97322 2.88429C5.96431 2.88472 5.95541 2.88538 5.94651 2.88625C5.93763 2.88713 5.92879 2.88822 5.91995 2.88953C5.91113 2.89084 5.90233 2.89236 5.89357 2.89411C5.88481 2.89585 5.87611 2.89781 5.86745 2.89997C5.8588 2.90215 5.85019 2.90453 5.84164 2.90713C5.8331 2.90972 5.82463 2.91252 5.81622 2.91551C5.80782 2.91852 5.79949 2.92174 5.79124 2.92515C5.783 2.92856 5.77484 2.93218 5.76677 2.936C5.75871 2.93982 5.75074 2.94383 5.74286 2.94803C5.73499 2.95225 5.72721 2.95664 5.71956 2.96123C5.7119 2.96582 5.70436 2.9706 5.69694 2.97556C5.68952 2.98052 5.68224 2.98565 5.67506 2.99097C5.66789 2.99628 5.66086 3.00178 5.65395 3.00744C5.64705 3.0131 5.64029 3.01893 5.63368 3.02493C5.62706 3.03093 5.62061 3.03709 5.61429 3.04339C5.60798 3.0497 5.60183 3.05617 5.59582 3.06278C5.58983 3.0694 5.58401 3.07616 5.57833 3.08306C5.57267 3.08996 5.56719 3.09699 5.56187 3.10415C5.55655 3.11132 5.55141 3.11862 5.54645 3.12605C5.54151 3.13347 5.53673 3.14101 5.53212 3.14867C5.52753 3.15632 5.52314 3.16408 5.51894 3.17196C5.51474 3.17983 5.51072 3.1878 5.5069 3.19587C5.50309 3.20395 5.49947 3.21211 5.49604 3.22035C5.49263 3.22859 5.48943 3.23692 5.48642 3.24533C5.48341 3.25373 5.48061 3.26221 5.47802 3.27075C5.47542 3.27928 5.47306 3.28789 5.47088 3.29655C5.46871 3.3052 5.46675 3.31392 5.46501 3.32268C5.46327 3.33142 5.46175 3.34021 5.46044 3.34905C5.45913 3.35788 5.45804 3.36674 5.45716 3.37562C5.45628 3.38452 5.45563 3.39341 5.45518 3.40232C5.45475 3.41124 5.45452 3.42016 5.45452 3.42909L5.45452 6.11273C5.45452 6.12165 5.45475 6.13057 5.45518 6.13948C5.45563 6.14841 5.45628 6.1573 5.45716 6.16619C5.45804 6.17507 5.45913 6.18392 5.46044 6.19275C5.46175 6.20159 5.46327 6.21039 5.46501 6.21914C5.46675 6.2279 5.46871 6.23661 5.47087 6.24527C5.47304 6.25392 5.47542 6.26253 5.47802 6.27107C5.48061 6.2796 5.48341 6.28808 5.48642 6.29648C5.48943 6.30488 5.49263 6.31321 5.49604 6.32146C5.49947 6.3297 5.50309 6.33787 5.5069 6.34594C5.51072 6.354 5.51474 6.36197 5.51894 6.36985C5.52314 6.37773 5.52753 6.38549 5.53212 6.39315C5.53673 6.40081 5.54151 6.40834 5.54645 6.41576C5.55141 6.42318 5.55655 6.43048 5.56187 6.43765C5.56719 6.44481 5.57267 6.45186 5.57833 6.45876C5.58401 6.46565 5.58983 6.47242 5.59582 6.47903C5.60183 6.48564 5.60798 6.49211 5.61428 6.49843C5.6206 6.50473 5.62706 6.51088 5.63368 6.51688C5.64029 6.52287 5.64705 6.5287 5.65395 6.53437C5.66086 6.54003 5.66789 6.54552 5.67506 6.55083C5.68224 6.55615 5.68952 6.56129 5.69694 6.56625C5.70436 6.57121 5.7119 6.57598 5.71956 6.58057C5.72721 6.58517 5.73499 6.58957 5.74286 6.59377C5.75074 6.59798 5.75871 6.60199 5.76677 6.6058C5.77484 6.60963 5.783 6.61325 5.79124 6.61666C5.79949 6.62008 5.80782 6.62329 5.81622 6.62629C5.82463 6.6293 5.8331 6.6321 5.84164 6.63469C5.85019 6.63728 5.8588 6.63966 5.86744 6.64182C5.87611 6.644 5.88481 6.64595 5.89357 6.64769C5.90233 6.64944 5.91113 6.65097 5.91995 6.65228C5.92879 6.65358 5.93763 6.65468 5.94651 6.65556C5.95541 6.65644 5.96431 6.65709 5.97322 6.65753C5.98213 6.65796 5.99106 6.65818 5.99998 6.65818L8.5709 6.65818C8.57983 6.65818 8.58876 6.65796 8.59767 6.65753C8.60657 6.65709 8.61548 6.65644 8.62436 6.65556C8.63324 6.65468 8.6421 6.65358 8.65094 6.65227C8.65977 6.65097 8.66856 6.64944 8.67731 6.64769C8.68606 6.64595 8.69478 6.644 8.70343 6.64182C8.7121 6.63966 8.7207 6.63728 8.72924 6.63469C8.73779 6.6321 8.74625 6.6293 8.75465 6.62629C8.76305 6.62329 8.77138 6.62008 8.77963 6.61666C8.78789 6.61325 8.79603 6.60963 8.80411 6.6058C8.81218 6.60199 8.82015 6.59798 8.82802 6.59377C8.8359 6.58957 8.84366 6.58517 8.85132 6.58057C8.85897 6.57598 8.86651 6.57121 8.87393 6.56625C8.88136 6.56129 8.88866 6.55615 8.89583 6.55083C8.90301 6.54552 8.91004 6.54003 8.91692 6.53437C8.92384 6.5287 8.93058 6.52287 8.9372 6.51688C8.94381 6.51088 8.95028 6.50473 8.9566 6.49843C8.96291 6.49211 8.96906 6.48564 8.97505 6.47903C8.98104 6.47242 8.98688 6.46565 8.99254 6.45876C8.9982 6.45186 9.0037 6.44481 9.009 6.43765C9.01434 6.43048 9.01948 6.42318 9.02442 6.41576C9.0294 6.40834 9.03416 6.40081 9.03875 6.39315C9.04334 6.38549 9.04774 6.37773 9.05194 6.36985C9.05615 6.36197 9.06016 6.354 9.06397 6.34594C9.0678 6.33787 9.07142 6.3297 9.07483 6.32146C9.07826 6.31321 9.08146 6.30488 9.08447 6.29648C9.08748 6.28808 9.09027 6.2796 9.09286 6.27107C9.09545 6.26252 9.09783 6.25392 9.10001 6.24527C9.10218 6.23661 9.10414 6.2279 9.10586 6.21914C9.10762 6.21039 9.10914 6.20159 9.11045 6.19275C9.11176 6.18392 9.11287 6.17507 9.11373 6.16619C9.11461 6.1573 9.11526 6.14841 9.1157 6.13948C9.11614 6.13057 9.11635 6.12165 9.11635 6.11273C9.11635 6.1038 9.11614 6.09488 9.1157 6.08596C9.11526 6.07703 9.11461 6.06814 9.11373 6.05926C9.11287 6.05037 9.11176 6.04152 9.11045 6.03269C9.10914 6.02385 9.10762 6.01506 9.10586 6.00632C9.10414 5.99756 9.10218 5.98884 9.10001 5.98019C9.09783 5.97153 9.09545 5.96292 9.09286 5.95439C9.09027 5.94585 9.08748 5.93737 9.08447 5.92897C9.08146 5.92056 9.07826 5.91223 9.07483 5.90399C9.07142 5.89574 9.0678 5.88757 9.06397 5.87951C9.06016 5.87144 9.05615 5.86347 9.05194 5.8556C9.04774 5.84772 9.04334 5.83996 9.03875 5.83231C9.03416 5.82465 9.0294 5.81711 9.02442 5.80969C9.01948 5.80226 9.01434 5.79496 9.009 5.78779C9.0037 5.78063 8.9982 5.7736 8.99254 5.7667C8.98688 5.7598 8.98104 5.75304 8.97505 5.74642C8.96906 5.73981 8.96291 5.73334 8.9566 5.72703C8.95028 5.72071 8.94381 5.71456 8.9372 5.70857C8.93058 5.70257 8.92384 5.69674 8.91692 5.69108C8.91003 5.68542 8.903 5.67992 8.89581 5.67461C8.88866 5.66929 8.88136 5.66416 8.87393 5.6592C8.86651 5.65424 8.85897 5.64946 8.85132 5.64487C8.84366 5.64028 8.8359 5.63589 8.82802 5.63167C8.82015 5.62747 8.81218 5.62346 8.80411 5.61964C8.79603 5.61582 8.78789 5.6122 8.77963 5.60879C8.77138 5.60538 8.76305 5.60216 8.75465 5.59915C8.74625 5.59614 8.73779 5.59334 8.72924 5.59075C8.7207 5.58817 8.7121 5.58579 8.70343 5.58361C8.69478 5.58145 8.68606 5.57949 8.67731 5.57774C8.66856 5.576 8.65977 5.57448 8.65094 5.57317C8.6421 5.57186 8.63324 5.57077 8.62436 5.56989C8.61548 5.56902 8.60657 5.56836 8.59767 5.56793C8.58876 5.5675 8.57983 5.56727 8.5709 5.56727Z"   fill="#000000" ></path></g></svg>