<svg xmlns="http://www.w3.org/2000/svg" xmlns:xlink="http://www.w3.org/1999/xlink" width="26" height="26" viewBox="0 0 26 26" fill="none"><path d="M6.57124 8.42543L6.27979 9.09407C6.06649 9.58357 5.38944 9.58357 5.17615 9.09407L4.88472 8.42543C4.36523 7.23322 3.42954 6.284 2.26199 5.76471L1.36411 5.36536C0.87863 5.14942 0.87863 4.44292 1.36411 4.22698L2.21179 3.84994C3.40937 3.3173 4.36181 2.33295 4.87238 1.10024L5.17166 0.377689C5.38024 -0.125896 6.07571 -0.125896 6.28429 0.377689L6.58356 1.10024C7.09412 2.33295 8.04659 3.3173 9.24422 3.84994L10.0918 4.22698C10.5774 4.44292 10.5774 5.14942 10.0918 5.36536L9.19396 5.76471C8.02642 6.284 7.09071 7.23322 6.57124 8.42543ZM4.62119 25.5468C5.83266 18.2288 8.45967 2.35996 25.822 2.35996C24.054 5.90596 22.867 7.67896 21.685 8.86096L20.503 10.043L22.276 11.225C21.094 14.771 17.548 18.908 12.82 19.499C9.66579 19.8932 7.6951 22.0603 6.90792 26L4.546 26C4.57052 25.853 4.59553 25.7018 4.62119 25.5468Z"   fill="#0065FB" ></path></svg>