<svg xmlns="http://www.w3.org/2000/svg" xmlns:xlink="http://www.w3.org/1999/xlink" width="16" height="16" viewBox="0 0 16 16" fill="none"><g opacity="0.7"><path d="M5.01575 4.55182C4.54339 4.55182 4.15692 4.16534 4.15692 3.69298L4.15692 0.858838C4.15692 0.386474 4.54339 0 5.01575 0C5.4881 0 5.87457 0.386474 5.87457 0.858838L5.87457 3.69298C5.87457 4.16534 5.4881 4.55182 5.01575 4.55182ZM10.6067 4.55182C10.1344 4.55182 9.74791 4.16534 9.74791 3.69298L9.74791 0.858838C9.74791 0.386474 10.1344 0 10.6067 0C11.0791 0 11.4656 0.386474 11.4656 0.858838L11.4656 3.69298C11.4656 4.16534 11.0791 4.55182 10.6067 4.55182ZM10.7785 11.8776L4.8354 11.8776C4.36304 11.8776 3.97656 11.4912 3.97656 11.0188C3.97656 10.5465 4.36304 10.16 4.8354 10.16L10.7785 10.16C11.2509 10.16 11.6373 10.5465 11.6373 11.0188C11.6373 11.4912 11.2509 11.8776 10.7785 11.8776Z"   fill="#000000" ></path><path d="M13.0457 15.9999L2.57649 15.9999C1.15942 15.9999 0 14.8405 0 13.4235L0 3.99349C0 2.57641 1.15942 1.41699 2.57649 1.41699L13.0457 1.41699C14.4627 1.41699 15.6221 2.57641 15.6221 3.99349L15.6221 13.4235C15.6221 14.8405 14.4627 15.9999 13.0457 15.9999ZM2.57649 3.13467C2.10415 3.13467 1.71768 3.52114 1.71768 3.99349L1.71768 13.4235C1.71768 13.8958 2.10415 14.2823 2.57649 14.2823L13.0457 14.2823C13.518 14.2823 13.9045 13.8958 13.9045 13.4235L13.9045 3.99349C13.9045 3.52114 13.518 3.13467 13.0457 3.13467L2.57649 3.13467Z"   fill="#000000" ></path></g></svg>