<svg xmlns="http://www.w3.org/2000/svg" xmlns:xlink="http://www.w3.org/1999/xlink" width="14" height="14.00048828125" viewBox="0 0 14 14.00048828125" fill="none"><g opacity="0.7"><g opacity="0"><rect x="0.07080078125" y="0.07080078125" width="13.8583984375" height="13.85888671875"  style="mix-blend-mode:normal" fill="#000000" ></rect></g><path fill-rule="evenodd"  fill="rgba(0, 0, 0, 1)" style="mix-blend-mode:normal" d="M11.9002 6.3008C13.06 5.14103 13.06 3.26067 11.9002 2.10091C10.7405 0.941149 8.86011 0.941157 7.70034 2.10093L2.10055 7.70072C0.940782 8.86049 0.940773 10.7408 2.10054 11.9006C3.2603 13.0604 5.14065 13.0604 6.30042 11.9006L11.9002 6.3008ZM8.40743 2.80802C9.17669 2.03877 10.4239 2.03876 11.1931 2.80801C11.9624 3.57725 11.9624 4.82445 11.1931 5.5937L5.59333 11.1935C4.82408 11.9627 3.57688 11.9627 2.80763 11.1935C2.03839 10.4243 2.03839 9.17706 2.80764 8.40781L8.40743 2.80802Z"></path><path fill-rule="evenodd"  fill="rgba(0, 0, 0, 1)" style="mix-blend-mode:normal" d="M7.69964 11.8997C8.85944 13.0595 10.7398 13.0595 11.8996 11.8997C13.0593 10.74 13.0593 8.8596 11.8995 7.6998L6.29982 2.10012C5.14002 0.940315 3.25965 0.940284 2.09988 2.10005C0.940123 3.25981 0.940153 5.14018 2.09995 6.29998L7.69964 11.8997ZM11.1924 8.40689C11.9617 9.17616 11.9617 10.4234 11.1925 11.1926C10.4232 11.9619 9.176 11.9618 8.40673 11.1926L2.80705 5.59289C2.03778 4.82362 2.03775 3.57641 2.807 2.80716C3.57624 2.03792 4.82346 2.03794 5.59273 2.80721L11.1924 8.40689Z"></path><path fill-rule="evenodd"  fill="rgba(0, 0, 0, 1)" style="mix-blend-mode:normal" d="M6.99788 11.2004L11.1978 7.00049L6.99789 2.80062L2.79802 7.00049L6.99788 11.2004ZM6.99797 4.21489L9.78349 7.00041L6.9978 9.78609L4.21228 7.00057L6.99797 4.21489Z"></path><ellipse transform="matrix(-6.399790919431325e-8, 0.9999275207519531, -1.0001740455627441, -6.401368324304713e-8, 7.98876953125, 6.009765625)" cx="0.989990234375" cy="0.98974609375" rx="0.989990234375" ry="0.98974609375"  style="mix-blend-mode:normal" fill="#000000" ></ellipse></g></svg>