<svg xmlns="http://www.w3.org/2000/svg" width="12" height="12" fill="none" viewBox="0 0 12 12"><path fill="#000" fill-rule="evenodd" d="M2.73 0h6.615c.021 0 .046.008.067.008s.04.007.06.007c.021 0 .047.008.068.008.02 0 .04.014.06.014s.04.016.06.016.04.022.06.022.04.014.06.023l.06.03c.02.009.034.012.052.022.02.01.042.027.06.038q.027.013.053.03.027.017.052.037l.053.037q.023.022.045.046l.045.044.045.045c.014.016.032.03.045.045l.038.053.037.052.03.053a1 1 0 0 1 .06.113l.03.06c.008.02.023.04.023.06s.015.04.015.06.022.039.022.06.008.039.008.06.014.046.014.067.008.039.008.06.008.039.008.06v9.54c0 .021-.008.039-.008.06s-.007.039-.007.06-.015.047-.015.067-.008.04-.008.06c0 .021-.022.04-.022.06s-.015.04-.015.06-.015.04-.023.06l-.03.06a2 2 0 0 1-.06.113q-.014.027-.03.053l-.037.052q-.018.027-.038.053-.021.023-.045.044l-.045.046-.045.044q-.022.024-.045.045-.025.02-.053.038l-.052.038-.053.03c-.018.01-.04.027-.06.037-.018.01-.033.013-.052.023l-.06.03c-.02.008-.04.022-.06.022s-.04.022-.06.022-.04.016-.06.016-.04.014-.06.014-.047.008-.068.008c-.02 0-.038.008-.06.008-.02 0-.046.007-.067.007H2.73c-.021 0-.039-.008-.06-.008s-.039-.007-.06-.007-.047-.008-.067-.008-.04-.014-.06-.014c-.021 0-.04-.015-.06-.015s-.04-.023-.06-.023-.04-.014-.06-.023l-.06-.03c-.02-.009-.042-.012-.06-.022-.02-.01-.035-.027-.053-.037l-.052-.03-.053-.038-.052-.037q-.024-.022-.046-.046l-.044-.045-.046-.045q-.023-.021-.044-.044-.02-.026-.038-.053l-.037-.053q-.016-.025-.03-.052c-.011-.018-.028-.034-.038-.052-.01-.02-.013-.041-.022-.06q-.017-.03-.03-.06c-.009-.02-.023-.04-.023-.06s-.022-.04-.022-.06-.015-.04-.015-.06c0-.021-.016-.04-.016-.06 0-.021-.007-.047-.007-.068s-.007-.039-.007-.06-.008-.039-.008-.06V1.23c0-.021.008-.039.008-.06s.007-.039.007-.06.008-.047.008-.068c0-.02.015-.039.015-.06s.014-.04.014-.06.023-.04.023-.06.014-.04.022-.06l.03-.06c.01-.019.013-.04.023-.06.01-.018.027-.034.038-.052q.014-.027.03-.052.017-.027.037-.053l.038-.053q.021-.023.044-.044l.046-.045.044-.045.045-.046.053-.037.053-.038.052-.03c.018-.01.034-.027.053-.037s.04-.013.06-.022l.06-.03c.02-.009.04-.023.06-.023s.04-.022.06-.022.039-.015.06-.015.039-.015.06-.015.046-.008.067-.008.039-.007.06-.007S2.709 0 2.73 0m.067.645c-.01 0-.019.007-.03.007H2.7c-.01 0-.02.008-.03.008s-.02.007-.03.007-.02.008-.03.008-.02.015-.03.015-.02.008-.03.008-.02.015-.03.015-.02.015-.03.015-.013.015-.023.015c-.009 0-.02.014-.03.014-.008 0-.021.023-.03.023s-.014.015-.022.015-.015.022-.022.022c-.008 0-.015.015-.023.023 0 .008-.022.015-.022.023 0 .007-.023.014-.023.022S2.28.899 2.28.907c0 .009-.022.022-.022.03 0 .01-.015.021-.015.03 0 .01-.015.014-.015.023 0 .01-.016.02-.016.03s-.015.02-.015.03-.007.02-.007.03-.015.02-.015.03-.007.02-.007.03-.008.02-.008.03-.008.02-.008.03v.068c0 .01-.007.019-.007.03v9.405c0 .01.007.019.007.03v.067c0 .01.008.02.008.03s.007.02.007.03.008.02.008.03.015.02.015.03.007.02.007.03.015.02.015.03.015.02.015.03.016.013.016.023c0 .009.014.02.014.03 0 .008.023.021.023.03s.015.014.015.022.022.015.022.022c0 .008.023.015.023.023.008.008.015.022.022.022.008 0 .015.023.023.023s.014.015.023.015.02.022.03.022c.008 0 .02.015.03.015s.013.016.022.016c.01 0 .02.014.03.014s.02.015.03.015.02.008.03.008.02.015.03.015.02.008.03.008.02.007.03.007.02.008.03.008h.067c.011 0 .02.007.03.007h6.488c.01 0 .02-.008.03-.008h.067c.011 0 .02-.007.03-.007s.02-.008.03-.008.02-.007.03-.007.02-.015.03-.015.02-.008.03-.008.02-.014.03-.014.021-.015.03-.015c.01 0 .014-.015.023-.015.01 0 .021-.015.03-.015s.014-.023.022-.023c.009 0 .022-.015.03-.015s.015-.023.023-.023.015-.014.022-.022c.008-.008.023-.015.023-.023 0-.007.022-.014.022-.022s.015-.014.015-.023.023-.02.023-.03c0-.008.015-.02.015-.03s.015-.013.015-.022c0-.01.015-.02.015-.03s.015-.02.015-.03.007-.02.007-.03.015-.02.015-.03.008-.02.008-.03.007-.02.007-.03v-.03c0-.01.008-.02.008-.03V1.23c0-.01-.008-.02-.008-.03v-.03c0-.01-.007-.02-.007-.03s-.008-.02-.008-.03-.015-.02-.015-.03-.007-.02-.007-.03-.015-.02-.015-.03S9.855 1 9.855.99 9.84.977 9.84.968c0-.01-.015-.022-.015-.03 0-.01-.023-.022-.023-.03S9.787.893 9.787.885 9.765.87 9.765.863c0-.008-.015-.015-.023-.023C9.735.832 9.728.818 9.72.818S9.706.795 9.697.795 9.676.78 9.667.78 9.654.757 9.645.757s-.02-.014-.03-.014-.013-.015-.023-.015c-.009 0-.02-.015-.03-.015s-.02-.015-.03-.015-.02-.008-.03-.008-.02-.015-.03-.015-.02-.008-.03-.008-.02-.007-.03-.007-.019-.008-.03-.008h-.067c-.01 0-.02-.007-.03-.007zm1.784.652h2.92q.485 0 .486.375 0 .375-.487.375H4.581q-.305 0-.419-.147-.067-.088-.067-.228 0-.375.486-.375m1.981 8.506q0-.563-.562-.563t-.562.563q0 .281.14.422t.422.14q.563 0 .563-.562" /></svg>