<svg xmlns="http://www.w3.org/2000/svg" xmlns:xlink="http://www.w3.org/1999/xlink" width="26" height="26.000259399414062" viewBox="0 0 26 26.000259399414062" fill="none"><path d="M13.0001 0C3.51145 0 0 8.30248 0 12.9572C0 17.6125 3.37471 26.0002 12.7245 26.0002C12.7245 26.0002 15.0489 26.0412 15.0489 23.9449C15.0489 21.8484 14.0037 22.5175 14.0037 21.0095C14.0037 19.4988 15.0491 18.8293 15.5507 18.8293C16.0536 18.8293 19.3548 19.0794 21.1954 18.3665C23.0311 17.6555 26.0002 15.3919 26.0002 11.535C26.0002 8.13714 22.4887 0 13.0001 0ZM5.07524 13.0014C3.82723 13.0014 2.81712 11.9889 2.81712 10.7368C2.81712 9.48458 3.82723 8.47216 5.07524 8.47216C6.32256 8.47216 7.33335 9.48468 7.33335 10.7368C7.33335 10.8108 7.33019 10.8841 7.32296 10.9578C7.31572 11.0315 7.30493 11.1049 7.29045 11.1775C7.27964 11.2319 7.26623 11.2865 7.25145 11.34C7.23668 11.3935 7.22072 11.4463 7.20205 11.4986C7.18339 11.5509 7.1621 11.6025 7.13965 11.6533C7.11721 11.704 7.09295 11.7538 7.06685 11.8028C7.01462 11.9009 6.95622 11.9942 6.89005 12.0836C6.84595 12.143 6.79921 12.2002 6.74965 12.2552C6.69996 12.3101 6.64707 12.3626 6.59235 12.4125C6.53758 12.4624 6.48024 12.5088 6.42075 12.5529C6.36877 12.5916 6.31592 12.628 6.26085 12.6621C6.20577 12.6962 6.14964 12.7278 6.09185 12.757C6.03403 12.7862 5.97384 12.8134 5.91374 12.8376C5.85367 12.8618 5.79367 12.8836 5.73174 12.9026C5.69653 12.9133 5.66094 12.9234 5.62514 12.9325C5.58924 12.9415 5.5522 12.9499 5.51594 12.9572C5.44335 12.972 5.37125 12.9824 5.29754 12.9897C5.26082 12.9934 5.22271 12.9969 5.18574 12.9988C5.1488 13.0008 5.11223 13.0014 5.07524 13.0014ZM9.33147 7.39706C8.08415 7.39706 7.07465 6.38395 7.07465 5.13244C7.07465 3.88024 8.08415 2.86782 9.33147 2.86782C10.5768 2.86782 11.5896 3.88034 11.5896 5.13244C11.5896 6.38464 10.5795 7.39706 9.33147 7.39706ZM16.5725 7.39706C15.3273 7.39706 14.3144 6.38395 14.3144 5.13244C14.3144 3.88024 15.3245 2.86782 16.5725 2.86782C17.8178 2.86782 18.8306 3.88034 18.8306 5.13244C18.8306 6.38464 17.8198 7.39706 16.5725 7.39706ZM20.8691 13.0014C19.6244 13.0014 18.6122 11.9889 18.6122 10.7368C18.6122 9.48458 19.6223 8.47216 20.8704 8.47216C22.1177 8.47216 23.1272 9.48468 23.1272 10.7368C23.1272 10.8109 23.1252 10.884 23.1181 10.9578C23.1111 11.0315 23.1 11.1048 23.0856 11.1775C23.0715 11.2503 23.0538 11.3223 23.0323 11.3933C23.0057 11.4821 22.9734 11.5698 22.9361 11.6546C22.8987 11.7394 22.8562 11.8208 22.8087 11.9003C22.7515 11.9957 22.6878 12.0871 22.6176 12.1733C22.5707 12.2307 22.5218 12.2848 22.4694 12.3371C22.3911 12.4162 22.3067 12.4894 22.2172 12.5555C22.1578 12.5998 22.0961 12.6408 22.0326 12.679C21.969 12.7172 21.9046 12.7526 21.8376 12.7843C21.7707 12.8161 21.7019 12.8439 21.6322 12.8688C21.5711 12.8906 21.5089 12.9095 21.4463 12.926C21.3836 12.9425 21.3203 12.9565 21.2565 12.9676C21.1926 12.9787 21.1286 12.9867 21.0641 12.9923C20.9995 12.9979 20.9352 13.0014 20.8704 13.0014L20.8691 13.0014Z"   fill="#0065FB" ></path></svg>