<svg xmlns="http://www.w3.org/2000/svg" xmlns:xlink="http://www.w3.org/1999/xlink" width="26" height="26" viewBox="0 0 26 26" fill="none"><g opacity="0.3"><path d="M2.80623 17.5723C2.80623 17.5723 12.026 5.79405 20.0437 4.43932C10.6899 8.23098 0 23.665 0 23.665L10.4229 23.665C10.4195 23.6546 10.416 23.6443 10.4122 23.6341C10.4084 23.6239 10.4044 23.6136 10.4002 23.6034C10.396 23.5935 10.3917 23.5835 10.3871 23.5736C10.3825 23.5636 10.3777 23.5539 10.3726 23.5441C10.3677 23.5344 10.3625 23.5249 10.357 23.5154C10.3516 23.5058 10.3461 23.4965 10.3403 23.4872C10.3345 23.4779 10.3285 23.4688 10.3223 23.4599C10.3162 23.451 10.3098 23.4421 10.3033 23.4332C10.2968 23.4245 10.2901 23.4159 10.2832 23.4074C10.2763 23.3991 10.2693 23.3909 10.262 23.3826C10.2548 23.3746 10.2474 23.3666 10.2399 23.3587C10.2323 23.3509 10.2246 23.3433 10.2168 23.3356C10.2089 23.3282 10.2009 23.3208 10.1927 23.3136C10.1845 23.3064 10.1762 23.2995 10.1678 23.2927C10.1593 23.2859 10.1507 23.2793 10.142 23.2728C10.1333 23.2664 10.1244 23.2601 10.1154 23.2539C10.1064 23.248 10.0973 23.2421 10.0881 23.2364C10.0789 23.2307 10.0695 23.2252 10.0601 23.2199C10.0506 23.2146 10.041 23.2095 10.0314 23.2044C10.0217 23.1998 10.0119 23.1951 10.0021 23.1904C9.99222 23.186 9.98227 23.1818 9.97222 23.1775C9.9622 23.1737 9.95208 23.1699 9.94189 23.1662C9.93169 23.1625 9.92144 23.1591 9.9111 23.1559C9.90075 23.1527 9.89037 23.1497 9.8799 23.147C9.86946 23.1442 9.85895 23.1417 9.84838 23.1393C9.83783 23.137 9.82722 23.1349 9.81656 23.1331C9.80593 23.1312 9.79525 23.1296 9.78454 23.1282C9.77382 23.1268 9.76306 23.1255 9.7523 23.1246C9.74154 23.1236 9.73076 23.1229 9.71996 23.1224C9.70916 23.1219 9.69836 23.1216 9.68756 23.1215C9.67676 23.1215 9.66596 23.1217 9.65516 23.1221C9.64435 23.1225 9.63358 23.1231 9.6228 23.124L1.33611 23.124C1.79885 22.5792 2.2754 22.0472 2.76578 21.5279C3.25616 21.0086 3.75969 20.5027 4.27635 20.0102C9.62181 19.7397 14.2982 19.1996 17.5055 14.5943C18.0395 13.5111 17.1054 13.6469 16.8374 13.6469C19.3766 12.5637 24.855 8.50253 24.053 6.47092C23.6529 6.06562 23.3849 6.33514 23.3849 6.33514C23.3849 6.33514 27.5272 3.62771 25.385 2.40874C23.2429 1.18978 17.9015 3.08561 17.9015 3.08561C17.9015 3.08561 18.3015 2.27499 17.1014 2.27499C17.0111 2.28614 16.9208 2.29813 16.8307 2.31095C16.7406 2.32378 16.6506 2.33745 16.5607 2.35195C16.4708 2.36645 16.3811 2.38179 16.2915 2.39796C16.2018 2.41414 16.1124 2.43114 16.0231 2.44898C15.9338 2.46682 15.8447 2.48548 15.7557 2.50498C15.6667 2.52448 15.578 2.5448 15.4894 2.56595C15.4008 2.5871 15.3124 2.60908 15.2242 2.63187C15.136 2.65466 15.048 2.67828 14.9603 2.70271C14.8725 2.72715 14.785 2.75239 14.6977 2.77845C14.6103 2.80452 14.5233 2.83139 14.4365 2.85907C14.3496 2.88675 14.2631 2.91524 14.1768 2.94454C14.0905 2.97383 14.0045 3.00393 13.9187 3.03482C13.8329 3.06572 13.7475 3.09741 13.6623 3.12989C13.5771 3.16238 13.4922 3.19566 13.4077 3.22972C13.3231 3.26379 13.2388 3.29864 13.1549 3.33428C13.0709 3.36991 12.9873 3.40632 12.904 3.44351C12.8207 3.48071 12.7378 3.51867 12.6552 3.5574C12.5726 3.59614 12.4903 3.63564 12.4085 3.67591C12.3266 3.71617 12.2451 3.7572 12.1639 3.79898C12.0828 3.84077 12.002 3.8833 11.9217 3.92659C11.8413 3.96987 11.7613 4.0139 11.6818 4.05868C11.6022 4.10346 11.523 4.14897 11.4443 4.1952C11.3656 4.24147 11.2872 4.28844 11.2093 4.33613C11.1315 4.38384 11.054 4.43227 10.977 4.48142C10.9 4.53057 10.8234 4.58044 10.7473 4.631C10.6712 4.68159 10.5956 4.73286 10.5204 4.78482C10.4452 4.83681 10.3705 4.88949 10.2963 4.94285C10.222 4.99624 10.1483 5.0503 10.0751 5.10503C10.0018 5.15979 9.92908 5.21521 9.85684 5.2713C9.7846 5.32741 9.71288 5.38418 9.64168 5.44161C9.57046 5.49905 9.49979 5.55713 9.42963 5.61587C9.35946 5.67463 9.28985 5.73402 9.22076 5.79405C9.22076 5.79405 9.22076 4.71089 8.55272 5.1172C-0.668054 10.9384 2.80623 17.5723 2.80623 17.5723Z"   fill="#000000" ></path></g></svg>