<svg xmlns="http://www.w3.org/2000/svg" width="14" height="14" fill="none" viewBox="0 0 14 14"><g fill="#000" opacity=".5"><path d="M12.634 2.725 8.405.283A2.1 2.1 0 0 0 7.76.041a2.12 2.12 0 0 0-1.472.242l-4.23 2.442a2.1 2.1 0 0 0-.62.545A2.13 2.13 0 0 0 1 4.558v4.89a2.13 2.13 0 0 0 .441 1.28 2 2 0 0 0 .335.345 2 2 0 0 0 .224.16l.059.035 4.229 2.45a2 2 0 0 0 .378.17 2 2 0 0 0 .336.084 2 2 0 0 0 .206.024 2 2 0 0 0 .346-.006 2 2 0 0 0 .34-.062 2.2 2.2 0 0 0 .511-.21l4.23-2.45a2 2 0 0 0 .282-.195 2 2 0 0 0 .2-.188 2 2 0 0 0 .288-.386 2 2 0 0 0 .213-.506 2 2 0 0 0 .063-.338 2 2 0 0 0 .012-.206v-4.89a2 2 0 0 0-.041-.414 2 2 0 0 0-.095-.332 2 2 0 0 0-.115-.253 2.3 2.3 0 0 0-.23-.344 2 2 0 0 0-.24-.25 2 2 0 0 0-.278-.205zm0 6.717a1 1 0 0 1-.014.172 1 1 0 0 1-.041.167 1 1 0 0 1-.102.218 1.04 1.04 0 0 1-.336.341l-.03.018L7.876 12.8a1 1 0 0 1-.157.074 1 1 0 0 1-.234.059 1 1 0 0 1-.311-.005 1 1 0 0 1-.168-.042 1 1 0 0 1-.189-.085l-4.229-2.443a1 1 0 0 1-.141-.097 1 1 0 0 1-.188-.2 1.07 1.07 0 0 1-.2-.612v-4.89a1 1 0 0 1 .068-.374 1.07 1.07 0 0 1 .461-.544L6.817 1.2a1.1 1.1 0 0 1 .495-.14 1.1 1.1 0 0 1 .564.14l4.234 2.44a1 1 0 0 1 .142.1 1 1 0 0 1 .147.146 1 1 0 0 1 .184.331 1 1 0 0 1 .051.236 1 1 0 0 1 .006.104z"/><path d="M7.33 3.94a3.05 3.05 0 0 0-2.865 2.017 3.03 3.03 0 0 0-.046 1.908 3.03 3.03 0 0 0 1.477 1.8 3.045 3.045 0 0 0 3.689-.64 3.03 3.03 0 0 0 .773-1.745 3 3 0 0 0-.044-.891 3 3 0 0 0-.541-1.219A3.05 3.05 0 0 0 7.33 3.94m0 5.024a1.98 1.98 0 0 1-1.404-.581 2 2 0 0 1-.56-1.113 2 2 0 0 1 .213-1.227 1.97 1.97 0 0 1 .902-.859 2 2 0 0 1 .947-.188 1.96 1.96 0 0 1 .923.28 1.98 1.98 0 0 1 .926 1.315 2 2 0 0 1-.152 1.237 2 2 0 0 1-.535.685 2 2 0 0 1-1.26.451"/></g></svg>