<svg xmlns="http://www.w3.org/2000/svg" width="14" height="14.004" fill="none" viewBox="0 0 14 14.004"><g fill="#000" opacity=".5"><path d="M11.815 6.391 9.55 10.314l.026 1.554 1.358-.755L13.2 7.19zm.8-1.385-.533.924 1.385.799.533-.924zM7.507 9.988H3.006a.5.5 0 1 0 0 1h4.5a.5.5 0 1 0 0-1m-4.5-3.001a.5.5 0 1 0 0 1h6.001a.5.5 0 1 0 0-1zm0-3.001a.5.5 0 1 0 0 1h6.001a.5.5 0 1 0 0-1zM3.5 0h1v2.5h-1zM5 1h2.001v1h-2zm2.501-1h1v2.5h-1z"/><path d="M11.003 12.504a.5.5 0 0 1-.5.5H1.5a.5.5 0 0 1-.5-.5V2.5a.5.5 0 0 1 .5-.5H3V1H1.5a1.5 1.5 0 0 0-1.205.607A1.5 1.5 0 0 0 0 2.5v10.004a1.5 1.5 0 0 0 1.5 1.5h9.003a1.5 1.5 0 0 0 1.5-1.5V9.733l-1 1.739zm1-10.004a1.5 1.5 0 0 0-1.5-1.5h-1.5v1h1.5a.5.5 0 0 1 .5.5v4.861l1-1.74z"/></g></svg>