<svg xmlns="http://www.w3.org/2000/svg" xmlns:xlink="http://www.w3.org/1999/xlink" width="16.000244140625" height="16.00048828125" viewBox="0 0 16.000244140625 16.00048828125" fill="none"><g opacity="0.7"><path d="M15.3732 4.8862C14.9695 3.93397 14.3942 3.07822 13.6581 2.34395C12.9239 1.60968 12.0681 1.03262 11.1159 0.628864C10.1297 0.210812 9.081 0 8.00193 0C6.92286 0 5.87416 0.210812 4.8862 0.628864C3.93397 1.03262 3.07822 1.60789 2.34395 2.34395C1.60968 3.07822 1.03262 3.93397 0.628864 4.8862C0.210812 5.87237 0 6.92107 0 8.00014C0 9.07922 0.210812 10.1279 0.628864 11.1141C1.03262 12.0663 1.60789 12.9221 2.34395 13.6563C3.07822 14.3906 3.93397 14.9677 4.8862 15.3714C5.87237 15.7895 6.92107 16.0003 8.00014 16.0003C9.07922 16.0003 10.1279 15.7895 11.1141 15.3714C12.0663 14.9677 12.9221 14.3924 13.6563 13.6563C14.3906 12.9221 14.9677 12.0663 15.3714 11.1141C15.7895 10.1279 16.0003 9.07922 16.0003 8.00014C16.0021 6.92107 15.7895 5.87237 15.3732 4.8862ZM8.00193 14.555C4.38775 14.555 1.4471 11.6143 1.4471 8.00014C1.4471 4.38597 4.38775 1.44531 8.00193 1.44531C11.6161 1.44531 14.5568 4.38597 14.5568 8.00014C14.5568 11.6143 11.6161 14.555 8.00193 14.555Z"   fill="#000000" ></path><path d="M11.0818 7.06304L8.59849 7.06304L8.59849 4.57974C8.59849 4.15811 8.25368 3.81152 7.83027 3.81152C7.40865 3.81152 7.06206 4.15633 7.06206 4.57974L7.06206 7.06304L4.57876 7.06304C4.15714 7.06304 3.81055 7.40784 3.81055 7.83125C3.81055 8.25466 4.15535 8.59946 4.57876 8.59946L7.06206 8.59946L7.06206 11.0828C7.06206 11.5062 7.40686 11.851 7.83027 11.851C8.2519 11.851 8.59849 11.5062 8.59849 11.0828L8.59849 8.59946L11.0818 8.59946C11.5034 8.59946 11.85 8.25466 11.85 7.83125C11.85 7.40784 11.5034 7.06304 11.0818 7.06304Z"   fill="#000000" ></path></g></svg>