<svg xmlns="http://www.w3.org/2000/svg" width="20" height="20" fill="none"><path fill="#000" fill-rule="evenodd" d="M4.55 0h11.025c.035 0 .077.013.113.013.035 0 .064.012.1.012.034 0 .077.012.112.012s.066.026.1.026.066.024.1.024.067.038.1.038.067.024.1.038.068.034.1.05c.032.015.056.02.088.037.03.017.07.044.1.063.03.018.058.03.087.05q.046.03.087.062.045.03.088.063c.027.022.049.05.075.075q.038.036.075.075.038.036.075.075c.024.026.053.047.075.075s.041.059.063.087l.062.088c.02.029.032.057.05.087a2 2 0 0 1 .1.188c.015.031.036.067.05.1.013.032.037.066.037.1 0 .033.026.066.026.1 0 .033.037.065.037.1 0 .034.012.065.012.1 0 .034.026.077.026.112s.012.065.012.1.012.065.012.1v15.9c0 .035-.012.065-.012.1s-.012.065-.012.1-.026.078-.026.113c0 .034-.012.065-.012.1 0 .034-.037.066-.037.1 0 .033-.026.066-.026.1 0 .033-.024.067-.037.1-.014.032-.035.067-.05.1a3 3 0 0 1-.1.187c-.018.03-.03.058-.05.088l-.062.087c-.022.028-.04.06-.063.087-.022.028-.051.05-.075.076l-.075.075-.075.075c-.026.023-.048.052-.075.075-.027.022-.06.04-.088.062l-.087.063c-.03.02-.057.031-.088.05-.03.018-.068.045-.1.062-.03.017-.055.022-.087.038-.032.015-.067.036-.1.05-.033.013-.067.037-.1.037s-.066.038-.1.038-.066.024-.1.024-.065.025-.1.025-.078.013-.113.013-.064.012-.1.012c-.035 0-.077.013-.112.013H4.55c-.035 0-.065-.012-.1-.012s-.065-.013-.1-.013-.078-.013-.112-.013c-.035 0-.066-.024-.1-.024-.035 0-.067-.025-.1-.025-.034 0-.067-.038-.1-.038-.034 0-.068-.024-.1-.038-.033-.013-.069-.034-.1-.05-.032-.015-.07-.02-.1-.037-.032-.017-.058-.044-.088-.062s-.058-.03-.087-.05q-.046-.03-.088-.063c-.028-.021-.06-.04-.087-.062-.028-.023-.05-.052-.075-.076q-.039-.036-.075-.075-.04-.035-.075-.074c-.024-.027-.053-.048-.076-.076-.022-.027-.04-.059-.062-.087l-.062-.087c-.02-.03-.032-.058-.05-.088s-.046-.056-.063-.087c-.017-.032-.022-.069-.038-.1-.015-.033-.036-.068-.05-.1-.013-.033-.037-.067-.037-.1 0-.034-.038-.067-.038-.1 0-.034-.025-.066-.025-.1 0-.035-.024-.066-.024-.1 0-.035-.013-.078-.013-.113s-.012-.065-.012-.1-.013-.065-.013-.1V2.05c0-.035.013-.065.013-.1s.012-.065.012-.1.013-.078.013-.113c0-.034.025-.065.025-.1 0-.034.024-.066.024-.1 0-.033.038-.066.038-.1 0-.033.024-.067.038-.1.013-.032.034-.068.05-.1.015-.031.02-.068.037-.1.017-.03.044-.057.063-.087.018-.03.03-.058.05-.088q.03-.044.062-.087c.021-.028.04-.06.063-.088.022-.027.05-.048.075-.075q.036-.038.075-.075.036-.038.075-.075C3.238.54 3.26.51 3.288.488s.059-.04.087-.062q.043-.033.087-.062c.03-.02.058-.032.088-.05s.056-.046.088-.063c.03-.017.068-.022.1-.038.031-.015.067-.036.1-.05.032-.013.066-.037.1-.037.033 0 .066-.038.1-.038.033 0 .065-.024.1-.024.034 0 .065-.026.1-.026.034 0 .077-.012.112-.012s.065-.012.1-.012S4.515 0 4.55 0m.112 1.075c-.017 0-.032.012-.05.012H4.5c-.018 0-.033.013-.05.013s-.033.012-.05.012-.033.013-.05.013-.033.025-.05.025-.034.013-.05.013-.034.024-.05.024-.034.025-.05.025-.022.026-.038.026c-.015 0-.035.024-.05.024s-.035.038-.05.038-.023.025-.037.025-.024.038-.038.038-.024.024-.037.037c0 .013-.038.024-.038.038s-.037.023-.037.037-.025.023-.025.037c0 .015-.037.036-.037.05s-.026.035-.026.05c0 .016-.025.022-.025.038s-.025.034-.025.05-.024.034-.024.05-.013.033-.013.05-.025.033-.025.05-.013.033-.013.05-.012.033-.012.05-.013.032-.013.05v.112c0 .018-.012.033-.012.05v15.676c0 .017.012.032.012.05V18c0 .017.013.033.013.05s.012.033.012.05.013.033.013.05.025.033.025.05.013.034.013.05.025.034.025.05.024.034.024.05.025.022.025.037c0 .016.026.036.026.05s.037.036.037.05.025.024.025.038.037.024.037.038.038.024.038.037c.013.012.024.037.038.037s.023.038.037.038.023.025.038.025.035.038.05.038.034.024.05.024c.015 0 .021.026.037.026s.034.024.05.024.034.025.05.025.033.013.05.013.033.025.05.025.033.012.05.012.033.013.05.013.032.013.05.013h.112c.018 0 .033.012.05.012h10.813c.018 0 .032-.012.05-.012h.112c.018 0 .033-.013.05-.013s.033-.012.05-.012.034-.013.05-.013c.017 0 .034-.025.05-.025.017 0 .034-.013.05-.013.017 0 .034-.024.05-.024.017 0 .035-.025.05-.025.016 0 .023-.026.038-.026s.035-.024.05-.024.023-.038.038-.038.036-.025.05-.025c.013 0 .024-.038.037-.038s.025-.024.038-.037.037-.024.037-.038.038-.023.038-.037.024-.023.024-.037c0-.015.038-.036.038-.05s.025-.035.025-.05c0-.016.025-.022.025-.038s.025-.034.025-.05.025-.034.025-.05.012-.033.012-.05.026-.033.026-.05.012-.033.012-.05.013-.033.013-.05V18c0-.017.012-.032.012-.05V2.05c0-.018-.012-.032-.012-.05v-.05c0-.017-.013-.033-.013-.05s-.012-.033-.012-.05-.026-.033-.026-.05-.012-.034-.012-.05-.025-.034-.025-.05-.025-.034-.025-.05-.025-.022-.025-.037c0-.016-.025-.036-.025-.05s-.038-.036-.038-.05-.024-.024-.024-.038-.038-.024-.038-.038-.025-.024-.037-.037c-.013-.012-.025-.037-.038-.037s-.024-.038-.037-.038c-.014 0-.036-.025-.05-.025s-.023-.038-.038-.038-.035-.024-.05-.024-.022-.026-.037-.026c-.016 0-.034-.024-.05-.024-.017 0-.034-.025-.05-.025-.017 0-.034-.013-.05-.013-.017 0-.034-.025-.05-.025-.018 0-.033-.012-.05-.012s-.033-.013-.05-.013-.033-.013-.05-.013h-.113c-.018 0-.032-.012-.05-.012zm2.974 1.087H12.5q.81 0 .811.625 0 .625-.81.625H7.635q-.811 0-.811-.625t.81-.625m3.302 14.176q0-.938-.938-.938t-.937.938.937.937.938-.937" opacity=".3"/></svg>