<svg xmlns="http://www.w3.org/2000/svg" xmlns:xlink="http://www.w3.org/1999/xlink" width="20" height="20" viewBox="0 0 20 20" fill="none"><g opacity="0.9"><path d="M12.2714 4.28574L14.6259 1.93131C14.9786 1.57856 15.5505 1.57856 15.9033 1.93131L19.7355 5.7635C20.0882 6.11624 20.0882 6.68815 19.7355 7.04089L16.3228 10.4535L16.3228 18.7378C16.3228 19.2367 15.9184 19.6411 15.4196 19.6411L4.58046 19.6411C4.08161 19.6411 3.67721 19.2367 3.67721 18.7378L3.67721 10.4535L0.264559 7.04089C-0.0881864 6.68815 -0.0881864 6.11624 0.264559 5.7635L4.09675 1.93131C4.44948 1.57856 5.0214 1.57856 5.37414 1.93131L7.72857 4.28574L12.2714 4.28574ZM13.0197 6.09225L6.98028 6.09225L4.73544 3.8474L2.18066 6.4022L5.48372 9.70528L5.48372 17.8346L14.5163 17.8346L14.5163 9.70528L17.8194 6.4022L15.2646 3.8474L13.0197 6.09225Z"   fill="#000000" ></path></g></svg>