<svg xmlns="http://www.w3.org/2000/svg" xmlns:xlink="http://www.w3.org/1999/xlink" width="20" height="20" viewBox="0 0 20 20" fill="none"><g opacity="0.9"><path d="M16.788 7.82761L17.0122 7.31335C17.4117 6.39641 18.1314 5.66635 19.0294 5.26696L19.7199 4.95982C20.0934 4.79373 20.0934 4.25035 19.7199 4.08427L19.068 3.79429C18.1469 3.38462 17.4144 2.62755 17.0216 1.67946L16.7915 1.12373C16.6311 0.736425 16.0962 0.736425 15.9357 1.12373L15.7055 1.67946C15.3129 2.62755 14.5804 3.38462 13.6593 3.79429L13.0073 4.08427C12.6339 4.25035 12.6339 4.79373 13.0073 4.95982L13.6979 5.26696C14.5959 5.66635 15.3155 6.39641 15.7151 7.31335L15.9392 7.82761C16.1033 8.20409 16.624 8.20409 16.788 7.82761ZM9.09091 3.56052C5.07429 3.56052 1.81818 6.81663 1.81818 10.8333C1.81818 13.0729 2.83053 15.0761 4.42258 16.4102L11.175 9.6578C11.53 9.30271 12.1056 9.30271 12.4606 9.6578L15.9783 13.1754C15.9794 13.1723 15.9805 13.169 15.9815 13.1658C16.2293 12.4336 16.3636 11.6492 16.3636 10.8333C16.3636 10.5392 16.3463 10.2495 16.3125 9.96525L18.118 9.75089C18.1602 10.1062 18.1818 10.4673 18.1818 10.8333C18.1818 15.854 14.1116 19.9242 9.09091 19.9242C4.07014 19.9242 0 15.854 0 10.8333C0 5.81248 4.07014 1.74234 9.09091 1.74234C9.874 1.74234 10.6352 1.84156 11.3621 2.02859L10.9091 3.78942C10.3289 3.64016 9.71991 3.56052 9.09091 3.56052ZM8.01182 18.0264C8.36364 18.0788 8.72382 18.1058 9.09055 18.1058C11.6012 18.1058 13.8175 16.8335 15.1254 14.8938L11.8178 11.5863L5.99025 17.4138L5.99395 17.4155C6.62251 17.7118 7.30036 17.9206 8.01182 18.0264ZM8.18182 9.01507C8.18182 10.0193 7.36782 10.8333 6.36364 10.8333C5.35948 10.8333 4.54545 10.0193 4.54545 9.01507C4.54545 8.01091 5.35948 7.19689 6.36364 7.19689C7.36782 7.19689 8.18182 8.01091 8.18182 9.01507Z"   fill="#000000" ></path></g></svg>