<svg xmlns="http://www.w3.org/2000/svg" xmlns:xlink="http://www.w3.org/1999/xlink" width="22.00048828125" height="22.00048828125" viewBox="0 0 22.00048828125 22.00048828125" fill="none"><path d="M21.1382 6.71852C20.583 5.40921 19.792 4.23255 18.7799 3.22293C17.7703 2.2133 16.5936 1.41986 15.2843 0.864687C13.9283 0.289867 12.4864 0 11.0027 0C9.51893 0 8.07697 0.289867 6.71852 0.864687C5.40921 1.41986 4.23255 2.21085 3.22293 3.22293C2.2133 4.23255 1.41986 5.40921 0.864687 6.71852C0.289867 8.07451 0 9.51647 0 11.0002C0 12.4839 0.289867 13.9259 0.864687 15.2819C1.41986 16.5912 2.21085 17.7679 3.22293 18.7775C4.23255 19.7871 5.40921 20.5805 6.71852 21.1357C8.07451 21.7105 9.51647 22.0004 11.0002 22.0004C12.4839 22.0004 13.9259 21.7105 15.2819 21.1357C16.5912 20.5805 17.7679 19.7895 18.7775 18.7775C19.7871 17.7679 20.5805 16.5912 21.1357 15.2819C21.7105 13.9259 22.0004 12.4839 22.0004 11.0002C22.0029 9.51647 21.7105 8.07451 21.1382 6.71852ZM11.0027 20.0131C6.03316 20.0131 1.98976 15.9697 1.98976 11.0002C1.98976 6.0307 6.03316 1.98731 11.0027 1.98731C15.9722 1.98731 20.0155 6.0307 20.0155 11.0002C20.0155 15.9697 15.9722 20.0131 11.0027 20.0131Z"   fill="#9398A3" ></path><path d="M15.2382 9.71155L11.8237 9.71155L11.8237 6.29702C11.8237 5.71728 11.3495 5.24072 10.7674 5.24072C10.1876 5.24072 9.71106 5.71483 9.71106 6.29702L9.71106 9.71155L6.29653 9.71155C5.71679 9.71155 5.24023 10.1857 5.24023 10.7678C5.24023 11.35 5.71434 11.8241 6.29653 11.8241L9.71106 11.8241L9.71106 15.2387C9.71106 15.8209 10.1852 16.295 10.7674 16.295C11.3471 16.295 11.8237 15.8209 11.8237 15.2387L11.8237 11.8241L15.2382 11.8241C15.8179 11.8241 16.2945 11.35 16.2945 10.7678C16.2945 10.1857 15.8179 9.71155 15.2382 9.71155Z"   fill="#9398A3" ></path></svg>