<svg xmlns="http://www.w3.org/2000/svg" xmlns:xlink="http://www.w3.org/1999/xlink" width="18" height="18.00000762939453" viewBox="0 0 18 18.00000762939453" fill="none"><g opacity="0.7"><path d="M9 18C4.02954 18 0 13.9705 0 9C0 4.02954 4.02954 0 9 0C13.9705 0 18 4.02954 18 9C18 13.9705 13.9705 18 9 18ZM9 16.65C13.2251 16.65 16.65 13.2251 16.65 9C16.65 4.77495 13.2251 1.34999 9 1.34999C4.77495 1.34999 1.34999 4.77495 1.34999 9C1.34999 13.2251 4.77495 16.65 9 16.65ZM9.675 8.325L12.375 8.325C12.386 8.325 12.3971 8.3253 12.4081 8.32585C12.4191 8.3264 12.4301 8.32722 12.4411 8.32831C12.4521 8.32941 12.463 8.33076 12.474 8.33241C12.4849 8.33401 12.4958 8.33591 12.5066 8.33808C12.5174 8.34023 12.5282 8.34266 12.5389 8.34536C12.5496 8.34806 12.5602 8.35101 12.5708 8.35422C12.5813 8.35742 12.5918 8.3609 12.6022 8.36464C12.6126 8.36835 12.6229 8.37234 12.6331 8.37658C12.6433 8.3808 12.6534 8.38529 12.6634 8.39001C12.6733 8.39474 12.6832 8.3997 12.6929 8.40493C12.7027 8.41012 12.7123 8.41556 12.7217 8.42125C12.7312 8.42693 12.7405 8.43283 12.7497 8.43899C12.7589 8.44511 12.7679 8.45148 12.7768 8.45806C12.7856 8.46464 12.7943 8.47144 12.8028 8.47846C12.8114 8.48546 12.8197 8.49268 12.8279 8.5001C12.8361 8.50751 12.8441 8.51512 12.8519 8.52295C12.8597 8.53075 12.8673 8.53875 12.8747 8.54693C12.8821 8.55511 12.8893 8.56347 12.8963 8.57201C12.9033 8.58053 12.9101 8.58924 12.9167 8.59813C12.9232 8.60698 12.9296 8.61601 12.9357 8.62521C12.9418 8.63436 12.9477 8.64369 12.9534 8.65318C12.9591 8.66263 12.9645 8.67225 12.9697 8.68199C12.9749 8.69172 12.9799 8.70157 12.9846 8.71157C12.9893 8.72154 12.9938 8.73163 12.998 8.74184C13.0022 8.75205 13.0062 8.76234 13.0099 8.77274C13.0137 8.78312 13.0171 8.7936 13.0203 8.80419C13.0235 8.81474 13.0264 8.82537 13.0291 8.83608C13.0318 8.8468 13.0342 8.85756 13.0364 8.8684C13.0385 8.87922 13.0404 8.89011 13.042 8.90103C13.0437 8.91194 13.045 8.92288 13.0461 8.93387C13.0472 8.94486 13.048 8.95588 13.0485 8.96691C13.0491 8.97792 13.0493 8.98895 13.0493 9C13.0493 9.01103 13.0491 9.02207 13.0485 9.0331C13.048 9.04411 13.0472 9.05512 13.0461 9.06613C13.045 9.0771 13.0437 9.08807 13.042 9.099C13.0404 9.1099 13.0385 9.12076 13.0364 9.13161C13.0342 9.14243 13.0318 9.15321 13.0291 9.16392C13.0264 9.17462 13.0235 9.18525 13.0203 9.19584C13.0171 9.20638 13.0137 9.21687 13.0099 9.22727C13.0062 9.23765 13.0022 9.24796 12.998 9.25817C12.9938 9.26836 12.9893 9.27844 12.9846 9.28844C12.9799 9.29842 12.9749 9.30827 12.9697 9.31801C12.9645 9.32776 12.9591 9.33736 12.9534 9.34683C12.9477 9.3563 12.9418 9.36562 12.9357 9.37482C12.9296 9.38399 12.9232 9.39302 12.9167 9.40188C12.9101 9.41074 12.9033 9.41945 12.8963 9.42799C12.8893 9.43652 12.8821 9.44489 12.8747 9.45308C12.8673 9.46126 12.8597 9.46925 12.8519 9.47706C12.8441 9.48486 12.8361 9.49248 12.8279 9.4999C12.8197 9.50733 12.8114 9.51454 12.8028 9.52155C12.7943 9.52855 12.7856 9.53536 12.7768 9.54194C12.7679 9.54852 12.7589 9.55487 12.7497 9.56101C12.7405 9.56715 12.7312 9.57306 12.7217 9.57875C12.7123 9.58443 12.7027 9.58987 12.6929 9.59508C12.6832 9.60029 12.6733 9.60527 12.6634 9.60999C12.6534 9.61472 12.6433 9.61919 12.6331 9.62343C12.6229 9.62765 12.6126 9.63163 12.6022 9.63537C12.5918 9.63908 12.5813 9.64256 12.5708 9.64579C12.5602 9.64899 12.5496 9.65195 12.5389 9.65465C12.5282 9.65733 12.5174 9.65975 12.5066 9.66192C12.4958 9.66408 12.4849 9.66597 12.474 9.66762C12.463 9.66922 12.4521 9.67059 12.4411 9.67169C12.4301 9.67279 12.4191 9.67361 12.4081 9.67416C12.3971 9.67471 12.386 9.67498 12.375 9.675L9.675 9.675L9.675 12.375C9.675 12.3861 9.67473 12.3971 9.67418 12.4081C9.67363 12.4192 9.67283 12.4302 9.67175 12.4412C9.67066 12.4521 9.66931 12.4631 9.6677 12.474C9.66606 12.485 9.66418 12.4958 9.66203 12.5067C9.65988 12.5175 9.65745 12.5283 9.65477 12.539C9.65207 12.5497 9.64914 12.5604 9.64594 12.5709C9.64273 12.5815 9.63925 12.592 9.63554 12.6024C9.63182 12.6128 9.62784 12.6231 9.62362 12.6333C9.61938 12.6435 9.61491 12.6536 9.6102 12.6636C9.60548 12.6736 9.6005 12.6835 9.59529 12.6932C9.59008 12.7029 9.58464 12.7125 9.57896 12.722C9.57327 12.7315 9.56736 12.7408 9.56124 12.75C9.55511 12.7592 9.54876 12.7682 9.54218 12.7771C9.53559 12.7859 9.52878 12.7947 9.52178 12.8032C9.51478 12.8117 9.50756 12.8201 9.50014 12.8283C9.49271 12.8365 9.4851 12.8445 9.47729 12.8523C9.46949 12.8601 9.46149 12.8677 9.45331 12.8751C9.44512 12.8826 9.43675 12.8898 9.42823 12.8968C9.41966 12.9038 9.41095 12.9106 9.40209 12.9172C9.39321 12.9238 9.38418 12.9301 9.37501 12.9362C9.36581 12.9424 9.35649 12.9483 9.34702 12.954C9.33752 12.9596 9.32793 12.9651 9.3182 12.9703C9.30846 12.9755 9.29858 12.9805 9.28861 12.9852C9.27861 12.9899 9.26853 12.9944 9.25832 12.9986C9.24811 13.0028 9.23779 13.0068 9.22739 13.0105C9.21699 13.0142 9.20651 13.0177 9.19594 13.0209C9.18535 13.0241 9.17472 13.0271 9.16401 13.0298C9.15329 13.0325 9.14251 13.0349 9.13169 13.037C9.12085 13.0392 9.10996 13.0411 9.09904 13.0427C9.08811 13.0443 9.07714 13.0457 9.06617 13.0468C9.05516 13.0478 9.04415 13.0486 9.03312 13.0492C9.02209 13.0497 9.01106 13.05 9 13.05C8.98895 13.05 8.9779 13.0497 8.96689 13.0492C8.95583 13.0486 8.94482 13.0478 8.93383 13.0468C8.92284 13.0457 8.91189 13.0443 8.90097 13.0427C8.89004 13.0411 8.87916 13.0392 8.86831 13.037C8.85747 13.0349 8.84671 13.0325 8.836 13.0298C8.82528 13.0271 8.81463 13.0241 8.80406 13.0209C8.79347 13.0177 8.78299 13.0142 8.77259 13.0105C8.76219 13.0068 8.7519 13.0028 8.74169 12.9986C8.73148 12.9944 8.72138 12.9899 8.7114 12.9852C8.7014 12.9805 8.69155 12.9755 8.6818 12.9703C8.67206 12.9651 8.66244 12.9596 8.65299 12.954C8.6435 12.9483 8.63417 12.9424 8.625 12.9362C8.6158 12.9301 8.60677 12.9238 8.59791 12.9172C8.58903 12.9106 8.58032 12.9038 8.57178 12.8968C8.56324 12.8898 8.55488 12.8826 8.5467 12.8751C8.53851 12.8677 8.53052 12.8601 8.52271 12.8523C8.51489 12.8445 8.50727 12.8365 8.49987 12.8283C8.49245 12.8201 8.48523 12.8117 8.47823 12.8032C8.4712 12.7947 8.46441 12.7859 8.45783 12.7771C8.45125 12.7682 8.44488 12.7592 8.43876 12.75C8.4326 12.7408 8.4267 12.7315 8.42104 12.722C8.41535 12.7125 8.40991 12.7029 8.40472 12.6932C8.39949 12.6835 8.39453 12.6736 8.3898 12.6636C8.38508 12.6536 8.38061 12.6435 8.37639 12.6333C8.37215 12.6231 8.36818 12.6128 8.36447 12.6024C8.36074 12.592 8.35728 12.5815 8.35407 12.5709C8.35086 12.5604 8.34791 12.5497 8.34523 12.539C8.34253 12.5283 8.34013 12.5175 8.33798 12.5067C8.33582 12.4958 8.33393 12.485 8.3323 12.474C8.33068 12.4631 8.32933 12.4521 8.32825 12.4412C8.32716 12.4302 8.32635 12.4192 8.32583 12.4081C8.32528 12.3971 8.325 12.3861 8.325 12.375L8.325 9.675L5.625 9.675C5.61395 9.675 5.6029 9.67473 5.59189 9.67418C5.58083 9.67363 5.56982 9.67283 5.55883 9.67175C5.54784 9.67066 5.5369 9.66931 5.52597 9.6677C5.51504 9.66606 5.50416 9.66418 5.49332 9.66203C5.48247 9.65988 5.47172 9.65745 5.461 9.65477C5.45028 9.65207 5.43963 9.64914 5.42906 9.64594C5.41848 9.64273 5.40799 9.63925 5.39759 9.63554C5.38719 9.63182 5.3769 9.62784 5.36669 9.62362C5.35648 9.61938 5.34638 9.61491 5.3364 9.6102C5.3264 9.60548 5.31655 9.6005 5.30681 9.59529C5.29706 9.59008 5.28744 9.58464 5.27799 9.57896C5.2685 9.57327 5.25918 9.56736 5.25 9.56124C5.2408 9.55511 5.23178 9.54876 5.22292 9.54218C5.21404 9.53559 5.20532 9.52878 5.19678 9.52178C5.18824 9.51478 5.17988 9.50756 5.1717 9.50014C5.16352 9.49271 5.15552 9.4851 5.14772 9.47729C5.13989 9.46949 5.13228 9.46149 5.12487 9.45331C5.11745 9.44512 5.11023 9.43675 5.10323 9.42823C5.09621 9.41966 5.08941 9.41095 5.08283 9.40209C5.07625 9.39321 5.06988 9.38418 5.06376 9.37501C5.05763 9.36581 5.05172 9.35649 5.04604 9.34702C5.04035 9.33752 5.03491 9.32793 5.02972 9.3182C5.02449 9.30846 5.01953 9.29858 5.0148 9.28861C5.01008 9.27861 5.00561 9.26853 5.00139 9.25832C4.99715 9.24811 4.99318 9.23779 4.98947 9.22739C4.98574 9.21699 4.98228 9.20651 4.97907 9.19594C4.97587 9.18535 4.97291 9.17472 4.97023 9.16401C4.96753 9.15329 4.96513 9.14251 4.96298 9.13169C4.96083 9.12085 4.95893 9.10996 4.9573 9.09904C4.95568 9.08811 4.95433 9.07714 4.95325 9.06617C4.95216 9.05516 4.95135 9.04415 4.95083 9.03312C4.95028 9.02209 4.95001 9.01106 4.95001 9C4.95001 8.98895 4.95028 8.9779 4.95083 8.96689C4.95135 8.95583 4.95216 8.94482 4.95325 8.93383C4.95433 8.92284 4.95568 8.91189 4.9573 8.90097C4.95893 8.89004 4.96083 8.87916 4.96298 8.86831C4.96513 8.85747 4.96753 8.84671 4.97023 8.836C4.97291 8.82528 4.97587 8.81463 4.97907 8.80406C4.98228 8.79347 4.98574 8.78299 4.98947 8.77259C4.99318 8.76219 4.99715 8.7519 5.00139 8.74169C5.00561 8.73148 5.01008 8.72138 5.0148 8.7114C5.01953 8.7014 5.02449 8.69155 5.02972 8.6818C5.03491 8.67206 5.04035 8.66244 5.04604 8.65299C5.05172 8.6435 5.05763 8.63417 5.06376 8.625C5.06988 8.6158 5.07625 8.60677 5.08283 8.59791C5.08941 8.58903 5.09621 8.58032 5.10323 8.57178C5.11023 8.56324 5.11745 8.55488 5.12487 8.5467C5.13228 8.53851 5.13989 8.53052 5.14772 8.52271C5.15552 8.51489 5.16352 8.50727 5.1717 8.49987C5.17988 8.49245 5.18824 8.48523 5.19678 8.47823C5.20532 8.4712 5.21404 8.46441 5.22292 8.45783C5.23178 8.45125 5.2408 8.44488 5.25 8.43876C5.25918 8.43262 5.2685 8.42672 5.27799 8.42104C5.28744 8.41535 5.29706 8.40991 5.30681 8.40472C5.31655 8.39949 5.3264 8.39453 5.3364 8.3898C5.34638 8.38508 5.35648 8.38061 5.36669 8.37639C5.3769 8.37215 5.38719 8.36818 5.39759 8.36447C5.40799 8.36074 5.41848 8.35728 5.42906 8.35407C5.43963 8.35086 5.45028 8.34791 5.461 8.34523C5.47172 8.34253 5.48247 8.34013 5.49332 8.33798C5.50416 8.33582 5.51504 8.33393 5.52597 8.3323C5.5369 8.33068 5.54784 8.32933 5.55883 8.32825C5.56982 8.32716 5.58083 8.32635 5.59189 8.32583C5.6029 8.32528 5.61395 8.325 5.625 8.325L8.325 8.325L8.325 5.625C8.325 5.61395 8.32528 5.6029 8.32583 5.59189C8.32635 5.58083 8.32716 5.56982 8.32825 5.55883C8.32933 5.54784 8.33068 5.5369 8.3323 5.52597C8.33393 5.51504 8.33582 5.50416 8.33798 5.49332C8.34013 5.48247 8.34253 5.47172 8.34523 5.461C8.34791 5.45028 8.35086 5.43963 8.35407 5.42906C8.35728 5.41848 8.36074 5.40799 8.36447 5.39759C8.36818 5.38719 8.37215 5.3769 8.37639 5.36669C8.38061 5.35648 8.38508 5.34638 8.3898 5.3364C8.39453 5.3264 8.39949 5.31655 8.40472 5.30681C8.40991 5.29706 8.41535 5.28744 8.42104 5.27799C8.4267 5.2685 8.4326 5.25918 8.43876 5.25C8.44488 5.2408 8.45125 5.23178 8.45783 5.22292C8.46441 5.21404 8.4712 5.20532 8.47823 5.19678C8.48523 5.18824 8.49245 5.17988 8.49987 5.1717C8.50727 5.16352 8.51489 5.15552 8.52271 5.14772C8.53052 5.13989 8.53851 5.13228 8.5467 5.12487C8.55488 5.11745 8.56324 5.11023 8.57178 5.10323C8.58032 5.09621 8.58903 5.08941 8.59791 5.08283C8.60677 5.07625 8.6158 5.06988 8.625 5.06376C8.63417 5.05763 8.6435 5.05172 8.65299 5.04604C8.66244 5.04035 8.67206 5.03491 8.6818 5.02972C8.69155 5.02449 8.7014 5.01953 8.7114 5.0148C8.72138 5.01008 8.73148 5.00561 8.74169 5.00139C8.7519 4.99715 8.76219 4.99318 8.77259 4.98947C8.78299 4.98574 8.79347 4.98228 8.80406 4.97907C8.81463 4.97587 8.82528 4.97291 8.836 4.97023C8.84671 4.96753 8.85747 4.96513 8.86831 4.96298C8.87916 4.96083 8.89004 4.95893 8.90097 4.9573C8.91189 4.95568 8.92284 4.95433 8.93383 4.95325C8.94482 4.95216 8.95583 4.95135 8.96689 4.95083C8.9779 4.95028 8.98895 4.95001 9 4.95001C9.01106 4.95001 9.02209 4.95028 9.03312 4.95083C9.04415 4.95135 9.05516 4.95216 9.06617 4.95325C9.07714 4.95433 9.08811 4.95568 9.09904 4.9573C9.10996 4.95893 9.12085 4.96083 9.13169 4.96298C9.14251 4.96513 9.15329 4.96753 9.16401 4.97023C9.17472 4.97291 9.18535 4.97587 9.19594 4.97907C9.20651 4.98228 9.21699 4.98574 9.22739 4.98947C9.23779 4.99318 9.24811 4.99715 9.25832 5.00139C9.26853 5.00561 9.27861 5.01008 9.28861 5.0148C9.29858 5.01953 9.30846 5.02449 9.3182 5.02972C9.32793 5.03491 9.33752 5.04035 9.34702 5.04604C9.35649 5.05172 9.36581 5.05763 9.37501 5.06376C9.38418 5.06988 9.39321 5.07625 9.40209 5.08283C9.41095 5.08941 9.41966 5.09621 9.42823 5.10323C9.43675 5.11023 9.44512 5.11745 9.45331 5.12487C9.46149 5.13228 9.46949 5.13989 9.47729 5.14772C9.4851 5.15552 9.49271 5.16352 9.50014 5.1717C9.50756 5.17988 9.51478 5.18824 9.52178 5.19678C9.52878 5.20532 9.53559 5.21404 9.54218 5.22292C9.54876 5.23178 9.55511 5.2408 9.56124 5.25C9.56736 5.25918 9.57327 5.2685 9.57896 5.27799C9.58464 5.28744 9.59008 5.29706 9.59529 5.30681C9.6005 5.31655 9.60548 5.3264 9.6102 5.3364C9.61491 5.34638 9.61938 5.35648 9.62362 5.36669C9.62784 5.3769 9.63182 5.38719 9.63554 5.39759C9.63925 5.40799 9.64273 5.41848 9.64594 5.42906C9.64914 5.43963 9.65207 5.45028 9.65477 5.461C9.65745 5.47172 9.65988 5.48247 9.66203 5.49332C9.66418 5.50416 9.66606 5.51504 9.6677 5.52597C9.66931 5.5369 9.67066 5.54784 9.67175 5.55883C9.67283 5.56982 9.67363 5.58083 9.67418 5.59189C9.67473 5.6029 9.675 5.61395 9.675 5.625L9.675 8.325Z"   fill="#000000" ></path></g></svg>