<svg xmlns="http://www.w3.org/2000/svg" xmlns:xlink="http://www.w3.org/1999/xlink" width="8" height="8" viewBox="0 0 8 8" fill="none"><g opacity="0.3"><path d="M1.79617 3.42857L1.79617 7.2381L6.68506 7.2381L6.68506 3.42857L1.79617 3.42857ZM6.30899 2.66667L7.06113 2.66667C7.26883 2.66667 7.4372 2.83723 7.4372 3.04762L7.4372 7.61905C7.4372 7.82945 7.26883 8 7.06113 8L1.04404 8C0.836342 8 0.667969 7.82945 0.667969 7.61905L0.667969 3.04762C0.667969 2.83723 0.836342 2.66667 1.04404 2.66667L1.79617 2.66667L1.79617 2.28571C1.79617 1.02335 2.8064 0 4.05258 0C5.29876 0 6.30899 1.02335 6.30899 2.28571L6.30899 2.66667ZM5.55686 2.66667L5.55686 2.28571C5.55686 1.44414 4.88336 0.761905 4.05258 0.761905C3.2218 0.761905 2.54831 1.44414 2.54831 2.28571L2.54831 2.66667L5.55686 2.66667ZM2.17224 3.80952L2.92438 3.80952L2.92438 4.57143L2.17224 4.57143L2.17224 3.80952ZM2.17224 4.95238L2.92438 4.95238L2.92438 5.71429L2.17224 5.71429L2.17224 4.95238ZM2.17224 6.09524L2.92438 6.09524L2.92438 6.85714L2.17224 6.85714L2.17224 6.09524Z"   fill="#000000" ></path></g></svg>