<svg xmlns="http://www.w3.org/2000/svg" xmlns:xlink="http://www.w3.org/1999/xlink" width="18" height="18.00000762939453" viewBox="0 0 18 18.00000762939453" fill="none"><g opacity="0.7"><path d="M9 18C4.02954 18 0 13.9705 0 9C0 4.02954 4.02954 0 9 0C13.9705 0 18 4.02954 18 9C18 13.9705 13.9705 18 9 18ZM9 16.65C13.2251 16.65 16.65 13.2251 16.65 9C16.65 4.77495 13.2251 1.34999 9 1.34999C4.77495 1.34999 1.34999 4.77495 1.34999 9C1.34999 13.2251 4.77495 16.65 9 16.65ZM5.625 8.325L12.375 8.325C12.3861 8.325 12.3971 8.32528 12.4081 8.32583C12.4192 8.32635 12.4302 8.32716 12.4412 8.32825C12.4521 8.32933 12.4631 8.33068 12.474 8.3323C12.485 8.33393 12.4958 8.33582 12.5067 8.33798C12.5175 8.34013 12.5283 8.34253 12.539 8.34523C12.5497 8.34791 12.5604 8.35086 12.5709 8.35407C12.5815 8.35728 12.592 8.36074 12.6024 8.36447C12.6128 8.36818 12.6231 8.37215 12.6333 8.37639C12.6435 8.38061 12.6536 8.38508 12.6636 8.3898C12.6736 8.39453 12.6835 8.39949 12.6932 8.40472C12.7029 8.40991 12.7125 8.41535 12.722 8.42104C12.7315 8.42672 12.7408 8.43262 12.75 8.43876C12.7592 8.44488 12.7682 8.45125 12.7771 8.45783C12.7859 8.46441 12.7947 8.4712 12.8032 8.47823C12.8117 8.48523 12.8201 8.49245 12.8283 8.49987C12.8365 8.50727 12.8445 8.51489 12.8523 8.52271C12.8601 8.53052 12.8677 8.53851 12.8751 8.5467C12.8826 8.55488 12.8898 8.56324 12.8968 8.57178C12.9038 8.58032 12.9106 8.58903 12.9172 8.59791C12.9238 8.60677 12.9301 8.6158 12.9362 8.625C12.9424 8.63417 12.9483 8.6435 12.954 8.65299C12.9596 8.66244 12.9651 8.67206 12.9703 8.6818C12.9755 8.69155 12.9805 8.7014 12.9852 8.7114C12.9899 8.72138 12.9944 8.73148 12.9986 8.74169C13.0028 8.7519 13.0068 8.76219 13.0105 8.77259C13.0142 8.78299 13.0177 8.79347 13.0209 8.80406C13.0241 8.81463 13.0271 8.82528 13.0298 8.836C13.0325 8.84671 13.0349 8.85747 13.037 8.86831C13.0392 8.87916 13.0411 8.89004 13.0427 8.90097C13.0443 8.91189 13.0457 8.92284 13.0468 8.93383C13.0478 8.94482 13.0486 8.95583 13.0492 8.96689C13.0497 8.9779 13.05 8.98895 13.05 9C13.05 9.01106 13.0497 9.02209 13.0492 9.03312C13.0486 9.04415 13.0478 9.05516 13.0468 9.06617C13.0457 9.07714 13.0443 9.08811 13.0427 9.09904C13.0411 9.10996 13.0392 9.12085 13.037 9.13169C13.0349 9.14251 13.0325 9.15329 13.0298 9.16401C13.0271 9.17472 13.0241 9.18535 13.0209 9.19594C13.0177 9.20651 13.0142 9.21699 13.0105 9.22739C13.0068 9.23779 13.0028 9.24811 12.9986 9.25832C12.9944 9.26853 12.9899 9.27861 12.9852 9.28861C12.9805 9.29858 12.9755 9.30846 12.9703 9.3182C12.9651 9.32793 12.9596 9.33752 12.954 9.34702C12.9483 9.35649 12.9424 9.36581 12.9362 9.37501C12.9301 9.38418 12.9238 9.39321 12.9172 9.40209C12.9106 9.41095 12.9038 9.41966 12.8968 9.42823C12.8898 9.43675 12.8826 9.44512 12.8751 9.45331C12.8677 9.46149 12.8601 9.46949 12.8523 9.47729C12.8445 9.4851 12.8365 9.49271 12.8283 9.50014C12.8201 9.50756 12.8117 9.51478 12.8032 9.52178C12.7947 9.52878 12.7859 9.53559 12.7771 9.54218C12.7682 9.54876 12.7592 9.55511 12.75 9.56124C12.7408 9.56736 12.7315 9.57327 12.722 9.57896C12.7125 9.58464 12.7029 9.59008 12.6932 9.59529C12.6835 9.6005 12.6736 9.60548 12.6636 9.6102C12.6536 9.61491 12.6435 9.61938 12.6333 9.62362C12.6231 9.62784 12.6128 9.63182 12.6024 9.63554C12.592 9.63925 12.5815 9.64273 12.5709 9.64594C12.5604 9.64914 12.5497 9.65207 12.539 9.65477C12.5283 9.65745 12.5175 9.65988 12.5067 9.66203C12.4958 9.66418 12.485 9.66606 12.474 9.6677C12.4631 9.66931 12.4521 9.67066 12.4412 9.67175C12.4302 9.67283 12.4192 9.67363 12.4081 9.67418C12.3971 9.67473 12.3861 9.675 12.375 9.675L5.625 9.675C5.61395 9.675 5.6029 9.67473 5.59189 9.67418C5.58083 9.67363 5.56982 9.67283 5.55883 9.67175C5.54784 9.67066 5.5369 9.66931 5.52597 9.6677C5.51504 9.66606 5.50416 9.66418 5.49332 9.66203C5.48247 9.65988 5.47172 9.65745 5.461 9.65477C5.45028 9.65207 5.43963 9.64914 5.42906 9.64594C5.41848 9.64273 5.40799 9.63925 5.39759 9.63554C5.38719 9.63182 5.3769 9.62784 5.36669 9.62362C5.35648 9.61938 5.34638 9.61491 5.3364 9.6102C5.3264 9.60548 5.31655 9.6005 5.30681 9.59529C5.29706 9.59008 5.28744 9.58464 5.27799 9.57896C5.2685 9.57327 5.25918 9.56736 5.25 9.56124C5.2408 9.55511 5.23178 9.54876 5.22292 9.54218C5.21404 9.53559 5.20532 9.52878 5.19678 9.52178C5.18824 9.51478 5.17988 9.50756 5.1717 9.50014C5.16352 9.49271 5.15552 9.4851 5.14772 9.47729C5.13989 9.46949 5.13228 9.46149 5.12487 9.45331C5.11745 9.44512 5.11023 9.43675 5.10323 9.42823C5.09621 9.41966 5.08941 9.41095 5.08283 9.40209C5.07625 9.39321 5.06988 9.38418 5.06376 9.37501C5.05763 9.36581 5.05172 9.35649 5.04604 9.34702C5.04035 9.33752 5.03491 9.32793 5.02972 9.3182C5.02449 9.30846 5.01953 9.29858 5.0148 9.28861C5.01008 9.27861 5.00561 9.26853 5.00139 9.25832C4.99715 9.24811 4.99318 9.23779 4.98947 9.22739C4.98574 9.21699 4.98228 9.20651 4.97907 9.19594C4.97587 9.18535 4.97291 9.17472 4.97023 9.16401C4.96753 9.15329 4.96513 9.14251 4.96298 9.13169C4.96083 9.12085 4.95893 9.10996 4.9573 9.09904C4.95568 9.08811 4.95433 9.07714 4.95325 9.06617C4.95216 9.05516 4.95135 9.04415 4.95083 9.03312C4.95028 9.02209 4.95001 9.01106 4.95001 9C4.95001 8.98895 4.95028 8.9779 4.95083 8.96689C4.95135 8.95583 4.95216 8.94482 4.95325 8.93383C4.95433 8.92284 4.95568 8.91189 4.9573 8.90097C4.95893 8.89004 4.96083 8.87916 4.96298 8.86831C4.96513 8.85747 4.96753 8.84671 4.97023 8.836C4.97291 8.82528 4.97587 8.81463 4.97907 8.80406C4.98228 8.79347 4.98574 8.78299 4.98947 8.77259C4.99318 8.76219 4.99715 8.7519 5.00139 8.74169C5.00561 8.73148 5.01008 8.72138 5.0148 8.7114C5.01953 8.7014 5.02449 8.69155 5.02972 8.6818C5.03491 8.67206 5.04035 8.66244 5.04604 8.65299C5.05172 8.6435 5.05763 8.63417 5.06376 8.625C5.06988 8.6158 5.07625 8.60677 5.08283 8.59791C5.08941 8.58903 5.09621 8.58032 5.10323 8.57178C5.11023 8.56324 5.11745 8.55488 5.12487 8.5467C5.13228 8.53851 5.13989 8.53052 5.14772 8.52271C5.15552 8.51489 5.16352 8.50727 5.1717 8.49987C5.17988 8.49245 5.18824 8.48523 5.19678 8.47823C5.20532 8.4712 5.21404 8.46441 5.22292 8.45783C5.23178 8.45125 5.2408 8.44488 5.25 8.43876C5.25918 8.43262 5.2685 8.42672 5.27799 8.42104C5.28744 8.41535 5.29706 8.40991 5.30681 8.40472C5.31655 8.39949 5.3264 8.39453 5.3364 8.3898C5.34638 8.38508 5.35648 8.38061 5.36669 8.37639C5.3769 8.37215 5.38719 8.36818 5.39759 8.36447C5.40799 8.36074 5.41848 8.35728 5.42906 8.35407C5.43963 8.35086 5.45028 8.34791 5.461 8.34523C5.47172 8.34253 5.48247 8.34013 5.49332 8.33798C5.50416 8.33582 5.51504 8.33393 5.52597 8.3323C5.5369 8.33068 5.54784 8.32933 5.55883 8.32825C5.56982 8.32716 5.58083 8.32635 5.59189 8.32583C5.6029 8.32528 5.61395 8.325 5.625 8.325Z"   fill="#000000" ></path></g></svg>