<svg xmlns="http://www.w3.org/2000/svg" xmlns:xlink="http://www.w3.org/1999/xlink" width="20" height="20" viewBox="0 0 20 20" fill="none"><g opacity="0.9"><path d="M7.68865 15.2381L11.5494 15.2381C11.6751 14.0937 12.2591 13.149 13.2072 12.1168C13.314 12.0006 13.9989 11.2918 14.0801 11.1906C14.8874 10.1839 15.3333 8.9381 15.3333 7.61905C15.3333 4.46313 12.775 1.90476 9.61905 1.90476C6.46313 1.90476 3.90476 4.46313 3.90476 7.61905C3.90476 8.93743 4.35023 10.1826 5.15678 11.189C5.23813 11.2905 5.92458 12.0011 6.03004 12.116C6.97872 13.149 7.56289 14.0937 7.68865 15.2381ZM11.5238 17.1429L7.71429 17.1429L7.71429 18.0952L11.5238 18.0952L11.5238 17.1429ZM3.67043 12.3802C2.62519 11.0759 2 9.42048 2 7.61905C2 3.41116 5.41116 0 9.61905 0C13.827 0 17.2381 3.41116 17.2381 7.61905C17.2381 9.42143 16.6122 11.0776 15.566 12.3823C14.9752 13.1189 13.4286 14.2857 13.4286 15.7143L13.4286 18.0952C13.4286 19.1472 12.5758 20 11.5238 20L7.71429 20C6.66231 20 5.80952 19.1472 5.80952 18.0952L5.80952 15.7143C5.80952 14.2857 4.2615 13.1177 3.67043 12.3802ZM10.5714 7.62362L12.9524 7.62362L8.66667 13.3379L8.66667 9.52838L6.28571 9.52838L10.5714 3.80952L10.5714 7.62362Z"   fill="#000000" ></path></g></svg>