<svg xmlns="http://www.w3.org/2000/svg" xmlns:xlink="http://www.w3.org/1999/xlink" width="12.000244140625" height="12" viewBox="0 0 12.000244140625 12" fill="none"><path d="M5.29466 0.478903C5.55938 -0.159622 6.4409 -0.159646 6.70562 0.478903L7.0853 1.39493C7.73318 2.95844 8.94278 4.20775 10.4627 4.8833L11.5384 5.36118C12.1542 5.63526 12.1543 6.53164 11.5384 6.80549L10.3981 7.31155C8.91674 7.97019 7.72922 9.17424 7.07006 10.6863L6.70094 11.5344C6.43022 12.1552 5.57006 12.1552 5.29934 11.5344L4.93022 10.6863C4.27106 9.17424 3.08359 7.97019 1.60209 7.31155L0.461862 6.80549C-0.154026 6.53164 -0.153882 5.63526 0.461862 5.36118L1.53764 4.8833C3.0574 4.20775 4.2659 2.95844 4.91378 1.39493L5.29466 0.478903Z"   fill="#FFFFFF" ></path></svg>