<svg
    version="1.1"
    width="28px"
    height="28px"
    viewBox="0 0 28 28"
    xmlns="http://www.w3.org/2000/svg">
    
    <g transform="translate(2, 3)"> <path
            d="M23,12.16 C23,13.08 23,14.45 23,16.29 C23,19.99 19.99,23 16.29,23 L6.7,23 C3,23 0,19.99 0,16.29 L0,6.7 C0,3 3,0 6.7,0 C8.6,0 10.03,0 10.98,0"
            stroke="currentColor"
            stroke-width="1.7"
            fill="none"
            stroke-linecap="round"
            stroke-miterlimit="10"/>

        <path
            transform="translate(4, 0)"
            fill="currentColor"
            d="M13.46,17.54 C13.76,17.54 14,17.86 14,18.27 C14,18.67 13.76,19 13.46,19 L0.54,19 C0.24,19 0,18.67 0,18.27 C0,17.86 0.24,17.54 0.54,17.54 L13.46,17.54 Z M16.9,0.78 L17.24,1.13 C18.29,2.18 18.29,3.87 17.24,4.92 L7.37,14.78 C6.88,15.27 6.26,15.61 5.59,15.76 L2.11,16.54 C1.56,16.66 1.09,16.16 1.25,15.62 L2.24,12.27 C2.41,11.68 2.73,11.15 3.16,10.72 L13.1,0.78 C14.15,-0.26 15.85,-0.26 16.9,0.78 Z M12.34,3.61 L4.19,11.75 C3.93,12.01 3.74,12.33 3.64,12.68 L3,14.84 L5.26,14.33 C5.67,14.24 6.04,14.04 6.33,13.75 L14.4,5.68 L12.34,3.61 Z M14.13,1.82 L13.37,2.58 L15.44,4.64 L16.2,3.88 C16.43,3.65 16.56,3.35 16.56,3.02 C16.56,2.7 16.43,2.39 16.2,2.16 L15.86,1.82 C15.38,1.34 14.61,1.34 14.13,1.82 Z"/>
    </g>
</svg>